<?xml version="1.0" standalone="no"?>
<!DOCTYPE svg PUBLIC "-//W3C//DTD SVG 1.1//EN" "http://www.w3.org/Graphics/SVG/1.1/DTD/svg11.dtd" >
<svg>
<metadata>
Created by FontForge 20090914 at Tue Feb 17 16:50:51 2015
 By www-data
Copyright (c) 1990 Adobe Systems Incorporated.  All Rights Reserved.ITC Century is a registered trademark of International Typeface Corporation.
</metadata>
<defs>
<font id="ITCCentury-Light" horiz-adv-x="519" >
  <font-face 
    font-family="ITCCentury-Light"
    font-weight="300"
    font-stretch="normal"
    units-per-em="1000"
    panose-1="2 2 4 0 0 0 0 0 0 0"
    ascent="800"
    descent="-200"
    x-height="470"
    cap-height="688"
    bbox="-66.002 -206 1028 917"
    underline-thickness="50"
    underline-position="-50"
    unicode-range="U+0020-U+2122"
  />
<missing-glyph horiz-adv-x="502" 
d="M-1 0h500v500h-500v-500zM9 10v480h480v-480h-480z" />
    <glyph glyph-name=".notdef" horiz-adv-x="502" 
d="M-1 0h500v500h-500v-500zM9 10v480h480v-480h-480z" />
    <glyph glyph-name="space" unicode=" " horiz-adv-x="259" 
 />
    <glyph glyph-name="exclam" unicode="!" horiz-adv-x="241" 
d="M133 190l8 98c6 78.667 10.667 144.667 14 198s5 103.333 5 150c0 20 -3 33.667 -9 41s-16.333 11 -31 11s-25 -3.66699 -31 -11s-9 -21 -9 -41c0 -46.667 1.66699 -96.667 5 -150s8 -119.333 14 -198l8 -98h26zM70 42c0 -14.667 4.66699 -26.667 14 -36
s21.333 -14 36 -14c14 0 25.833 5 35.5 15s14.5 21.667 14.5 35s-5 25 -15 35s-21.667 15 -35 15s-25 -5 -35 -15s-15 -21.667 -15 -35z" />
    <glyph glyph-name="quotedbl" unicode="&#x22;" horiz-adv-x="333" 
d="M266 620c0 2.66699 0.333008 6 1 10v15c0 16 -2.33301 29.167 -7 39.5s-13 15.5 -25 15.5s-20.333 -5.16699 -25 -15.5s-7 -23.5 -7 -39.5c0 -2.66699 0.333008 -7.66699 1 -15v-10l16 -200v-4c0.666992 -7.33301 2 -13.5 4 -18.5s5.66699 -7.5 11 -7.5s9 2.33301 11 7
s3.33301 11 4 19v4zM129 620c0 2.66699 0.333008 6 1 10v15c0 16 -2.33301 29.167 -7 39.5s-13 15.5 -25 15.5s-20.333 -5.16699 -25 -15.5s-7 -23.5 -7 -39.5c0 -2.66699 0.333008 -7.66699 1 -15v-10l16 -200v-4c0.666992 -7.33301 2 -13.5 4 -18.5s5.66699 -7.5 11 -7.5
s9 2.33301 11 7s3.33301 11 4 19v4z" />
    <glyph glyph-name="numbersign" unicode="#" 
d="M474 268h-104l22 160h112v42h-104l29 218h-50l-32 -218h-140l32 218h-50l-31 -218h-120v-42h114l-22 -160h-120v-42h114l-33 -226h50l32 226h140l-32 -226h50l33 226h110v42zM341 428l-22 -160h-140l22 160h140z" />
    <glyph glyph-name="dollar" unicode="$" 
d="M236 40c-36 0 -69.3369 8.66992 -100.004 26.0029s-48.667 41.333 -54 72c18 0 33.667 3.33301 47 10s20 18.667 20 36c0 14.667 -4.16699 26.667 -12.5 36s-19.166 14 -32.499 14c-16 0 -29 -6.66699 -39 -20s-15 -28.666 -15 -45.999c0 -24 5 -45.833 15 -65.5
s23.833 -36.167 41.5 -49.5s37.667 -23.5 60 -30.5s45.5 -10.5 69.5 -10.5v-86h30v88c57.333 7.33301 103 28.666 137 63.999s51 79.333 51 132c0 29.333 -5.16699 54.666 -15.5 75.999s-24.166 39.333 -41.499 54s-36.666 26.834 -57.999 36.501s-45.666 18.5 -72.999 26.5
v245c34.667 0 63.667 -5.33301 87 -16s35 -25.334 35 -44.001c-4 0.666992 -10.333 1 -19 1c-24.667 0 -37 -15 -37 -45c0 -12.667 4.16699 -23 12.5 -31s18.5 -12 30.5 -12c14.667 0 26.5 5.66699 35.5 17s13.5 25 13.5 41c0 20.667 -4.66699 38.5 -14 53.5
s-21.666 27.167 -36.999 36.5s-32.333 16.166 -51 20.499s-37.334 6.5 -56.001 6.5v94h-30v-96c-49.333 -6.66699 -88.333 -25.334 -117 -56.001s-43 -69 -43 -115c0 -36 13.833 -68 41.5 -96s67.167 -48.333 118.5 -61v-306zM235.996 411.003
c-38 14 -65.499 29.498 -82.499 46.498s-25.5 41.5 -25.5 73.5c0 28.667 10.667 54.334 32 77.001s46.666 35.334 75.999 38.001v-235zM265.997 338.001c44 -12.667 77.667 -30.333 101 -53s35 -55 35 -97c0 -40 -12.667 -73 -38 -99s-58 -41.667 -98 -47v296z" />
    <glyph glyph-name="percent" unicode="%" horiz-adv-x="833" 
d="M185 676c-40.667 0 -74.334 -17.667 -101.001 -53s-40 -83 -40 -143s13.333 -107.667 40 -143s60.334 -53 101.001 -53s74.334 17.667 101.001 53s40 83 40 143s-13.333 107.667 -40 143s-60.334 53 -101.001 53zM185 654c30 0 50.667 -13.332 62 -39.999
s17 -71.334 17 -134.001s-5.66699 -107.334 -17 -134.001s-32 -40 -62 -40c-29.333 0 -49.833 13.5 -61.5 40.5s-17.5 71.5 -17.5 133.5c0 62.667 5.83301 107.334 17.5 134.001s32.167 40 61.5 40zM575 392.001c-40.667 0 -74.334 -17.667 -101.001 -53s-40 -83 -40 -143
s13.333 -107.667 40 -143s60.334 -53 101.001 -53s74.334 17.667 101.001 53s40 83 40 143s-13.333 107.667 -40 143s-60.334 53 -101.001 53zM575 370.001c30 0 50.667 -13.332 62 -39.999s17 -71.334 17 -134.001s-5.66699 -107.334 -17 -134.001s-32 -40 -62 -40
c-29.333 0 -49.833 13.5 -61.5 40.5s-17.5 71.5 -17.5 133.5c0 62.667 5.83301 107.334 17.5 134.001s32.167 40 61.5 40zM139 -11.998h45l440 700h-47z" />
    <glyph glyph-name="ampersand" unicode="&#x26;" horiz-adv-x="704" 
d="M319 660c32.667 0 57.835 -10.833 75.502 -32.5s26.5 -48.5 26.5 -80.5c0 -20 -4.5 -38 -13.5 -54s-20.5 -29.833 -34.5 -41.5s-28.333 -21.667 -43 -30s-33.334 -17.833 -56.001 -28.5l-4 -2c-14.667 26.667 -26.834 54.5 -36.501 83.5s-14.5 55.167 -14.5 78.5
c0 30 9 55.333 27 76s42.333 31 73 31zM431.001 344c33.333 0 57 -5.66992 71 -17.0029s21 -34.666 21 -69.999c0 -24.667 -6 -51.667 -18 -81s-26.667 -52 -44 -68c-62.667 73.333 -121.667 159 -177 257l42 23c24 12.667 44 23.667 60 33s30.833 20.333 44.5 33
s24.834 27.5 33.501 44.5s13 36.167 13 57.5c0 36.667 -14.167 67.834 -42.5 93.501s-64.166 38.5 -107.499 38.5c-52.667 0 -94.167 -16.5 -124.5 -49.5s-45.5 -74.5 -45.5 -124.5c0 -24 4 -48.5 12 -73.5s18.333 -51.167 31 -78.5c-26 -13.333 -47.833 -25.5 -65.5 -36.5
s-34.334 -24.167 -50.001 -39.5s-28.167 -32.833 -37.5 -52.5s-14 -41.834 -14 -66.501c0 -52.667 19.667 -95.667 59 -129s96 -50 170 -50c33.333 0 64.666 3.66699 93.999 11s54.666 20 75.999 38c17.333 -14.667 36.333 -26.5 57 -35.5s40.667 -13.5 60 -13.5
c40 0 70.333 9 91 27s31 49.667 31 95v24h-28v-14c0 -31.333 -5 -54.166 -15 -68.499s-24.667 -21.5 -44 -21.5c-17.333 0 -35.333 5.83301 -54 17.5s-34.667 24.834 -48 39.501c18 22 33.667 45.667 47 71s23 53 29 83c4.66699 23.333 9.33398 41.5 14.001 54.5
s10.667 22.833 18 29.5s17 11.167 29 13.5s28 3.5 48 3.5v28h-236v-26zM113.001 183.997c0 34.667 8.3291 63.8311 24.9961 87.498s41.334 44.834 74.001 63.501c32.667 -54.667 64.834 -105 96.501 -151s64.834 -89 99.501 -129c-14 -14 -33.833 -24 -59.5 -30
s-52.167 -9 -79.5 -9c-49.333 0 -87.666 14.833 -114.999 44.5s-41 70.834 -41 123.501z" />
    <glyph glyph-name="quotesingle" unicode="'" horiz-adv-x="222" 
d="M142 620c0 2.66699 0.333008 6 1 10v15c0 16 -2.33301 29.167 -7 39.5s-13 15.5 -25 15.5s-20.333 -5.16699 -25 -15.5s-7 -23.5 -7 -39.5c0 -2.66699 0.333008 -7.66699 1 -15v-10l16 -200v-4c0.666992 -7.33301 2 -13.5 4 -18.5s5.66699 -7.5 11 -7.5s9 2.33301 11 7
s3.33301 11 4 19v4z" />
    <glyph glyph-name="parenleft" unicode="(" horiz-adv-x="444" 
d="M424 -154c-36.667 0 -70.667 10.1689 -102 30.502s-58.333 49 -81 86s-40.167 80.833 -52.5 131.5s-18.5 105.667 -18.5 165s6.16699 114.333 18.5 165s29.833 94.5 52.5 131.5s49.667 65.667 81 86s65.333 30.5 102 30.5v28
c-51.333 -0.666992 -97.333 -13.834 -138 -39.501s-74.667 -59.667 -102 -102s-47.833 -89.333 -61.5 -141s-20.5 -104.5 -20.5 -158.5c0 -53.333 6.83301 -106 20.5 -158s34.167 -99.167 61.5 -141.5s61.333 -76.333 102 -102s86.667 -38.834 138 -39.501v28z" />
    <glyph glyph-name="parenright" unicode=")" horiz-adv-x="444" 
d="M20 672c37.333 0 71.5 -10.1689 102.5 -30.502s57.833 -49 80.5 -86s40.167 -80.833 52.5 -131.5s18.5 -105.667 18.5 -165s-6.16699 -114.333 -18.5 -165s-29.833 -94.5 -52.5 -131.5s-49.5 -65.667 -80.5 -86s-65.167 -30.5 -102.5 -30.5v-28
c51.333 0.666992 97.333 13.834 138 39.501s74.667 59.667 102 102s47.833 89.5 61.5 141.5s20.5 104.667 20.5 158c0 54 -6.83301 106.833 -20.5 158.5s-34.167 98.667 -61.5 141s-61.333 76.333 -102 102s-86.667 38.834 -138 39.501v-28z" />
    <glyph glyph-name="asterisk" unicode="*" horiz-adv-x="463" 
d="M413 579c0 10.667 -3.49902 19.4951 -10.499 26.4951s-16.5 10.5 -28.5 10.5c-8 0 -15.167 -2.5 -21.5 -7.5s-14.833 -13.5 -25.5 -25.5c-13.333 -15.333 -26.166 -28.666 -38.499 -39.999s-28.166 -22.666 -47.499 -33.999c0 30.667 1.83301 54.5 5.5 71.5
s8.5 32.833 14.5 47.5c5.33301 13.333 8 24 8 32c0 10.667 -4 20 -12 28s-16.333 12 -25 12s-17.167 -4 -25.5 -12s-12.5 -17.333 -12.5 -28c0 -7.33301 2.66699 -17.666 8 -30.999c6 -14.667 10.667 -30.5 14 -47.5s5 -41.167 5 -72.5
c-19.333 11.333 -35.333 22.833 -48 34.5s-25.334 24.834 -38.001 39.501c-10 12 -18.333 20.5 -25 25.5s-14 7.5 -22 7.5c-12 0 -21.5 -3.5 -28.5 -10.5s-10.5 -15.833 -10.5 -26.5c0 -15.333 4.66699 -25.666 14 -30.999s25.333 -10.333 48 -15
c20.667 -4 39 -8.5 55 -13.5s31.667 -13.167 47 -24.5c-16 -11.333 -31.833 -19.666 -47.5 -24.999s-33.834 -10 -54.501 -14c-22.667 -4.66699 -38.667 -9.66699 -48 -15s-14 -15.666 -14 -30.999c0 -10.667 3.5 -19.334 10.5 -26.001s16.5 -10 28.5 -10
c8 0 15.167 2.5 21.5 7.5s14.833 13.5 25.5 25.5c13.333 15.333 26.166 28.833 38.499 40.5s28.166 22.834 47.499 33.501c0 -30.667 -1.66699 -54.5 -5 -71.5s-8 -33.167 -14 -48.5c-5.33301 -13.333 -8 -24 -8 -32c0 -10.667 4.16699 -19.834 12.5 -27.501
s16.833 -11.5 25.5 -11.5s17 3.83301 25 11.5s12 16.834 12 27.501c0 8 -2.66699 19 -8 33c-6 15.333 -10.833 31.333 -14.5 48s-5.5 40.334 -5.5 71.001c19.333 -11.333 35.333 -22.833 48 -34.5s25.334 -24.834 38.001 -39.501c10.667 -12 19.167 -20.5 25.5 -25.5
s13.5 -7.5 21.5 -7.5c12 0 21.5 3.33301 28.5 10s10.5 15.334 10.5 26.001c0 15.333 -4.66699 25.666 -14 30.999s-25.333 10.333 -48 15c-20.667 4 -39 8.66699 -55 14s-31.667 13.666 -47 24.999c15.333 11.333 31 19.5 47 24.5s34.333 9.5 55 13.5
c22 4.66699 37.833 9.66699 47.5 15s14.5 15.666 14.5 30.999z" />
    <glyph glyph-name="plus" unicode="+" horiz-adv-x="600" 
d="M275 260h-210v-50h210v-210h50v210h210v50h-210v210h-50v-210z" />
    <glyph glyph-name="comma" unicode="," horiz-adv-x="259" 
d="M104 -188c28.667 25.333 50.332 53 64.999 83s22 63 22 99c0 27.333 -4.83301 50.5 -14.5 69.5s-25.5 28.5 -47.5 28.5c-13.333 0 -25 -5 -35 -15s-15 -21.667 -15 -35c0 -14.667 4.66699 -26.667 14 -36s21.333 -14 36 -14c12.667 0 21.334 0.333008 26.001 1v-7
c0.666992 -3.33301 1 -6 1 -8c0 -26 -7 -51.5 -21 -76.5s-32 -48.167 -54 -69.5z" />
    <glyph glyph-name="hyphen" unicode="-" horiz-adv-x="333" 
d="M291 208v54h-250v-54h250z" />
    <glyph glyph-name="period" unicode="." horiz-adv-x="259" 
d="M79 42c0 -14.667 4.66699 -26.667 14 -36s21.333 -14 36 -14c14 0 25.833 5 35.5 15s14.5 21.667 14.5 35s-5 25 -15 35s-21.667 15 -35 15s-25 -5 -35 -15s-15 -21.667 -15 -35z" />
    <glyph glyph-name="slash" unicode="/" horiz-adv-x="278" 
d="M36 -12l256 712h-50l-256 -712h50z" />
    <glyph glyph-name="zero" unicode="0" 
d="M259 -12c30.667 0 59.167 8.16699 85.5 24.5s49.333 40 69 71s34.834 68.5 45.501 112.5s16 93.333 16 148s-5.33301 104.167 -16 148.5s-25.834 81.833 -45.501 112.5s-42.667 54.167 -69 70.5s-54.833 24.5 -85.5 24.5s-59.167 -8.16699 -85.5 -24.5
s-49.333 -39.833 -69 -70.5s-34.834 -68.167 -45.501 -112.5s-16 -93.833 -16 -148.5s5.33301 -104 16 -148s25.834 -81.5 45.501 -112.5s42.667 -54.667 69 -71s54.833 -24.5 85.5 -24.5zM259 16c-51.333 0 -86.833 25.167 -106.5 75.5s-29.5 134.5 -29.5 252.5
s9.83301 202.167 29.5 252.5s55.167 75.5 106.5 75.5s86.833 -25.167 106.5 -75.5s29.5 -134.5 29.5 -252.5s-9.83301 -202.167 -29.5 -252.5s-55.167 -75.5 -106.5 -75.5z" />
    <glyph glyph-name="one" unicode="1" 
d="M301 688l-25.999 -0.00292969c-11.333 -19.333 -29.333 -33.166 -54 -41.499s-59.667 -12.5 -105 -12.5v-28c42 0 71.333 -3 88 -9s25 -15.667 25 -29v-474c0 -23.333 -9.33301 -40.166 -28 -50.499s-53.334 -15.5 -104.001 -15.5v-28h320v28
c-43.333 0 -73.5 5.33301 -90.5 16s-25.5 27.334 -25.5 50.001v594z" />
    <glyph glyph-name="two" unicode="2" 
d="M444 0l15.998 221h-32c0 -51.333 -13.833 -90.666 -41.5 -117.999s-69.834 -41 -126.501 -41h-190c15.333 42.667 38.833 79.667 70.5 111s74.834 66.666 129.501 105.999c30 22 54.333 40.5 73 55.5s36.167 31.667 52.5 50s29.166 38.333 38.499 60s14 45.167 14 70.5
s-5.16699 49.166 -15.5 71.499s-25.166 42 -44.499 59s-42.166 30.333 -68.499 40s-54.833 14.5 -85.5 14.5c-26.667 0 -51.834 -4.33301 -75.501 -13s-44.167 -21.167 -61.5 -37.5s-30.833 -35.333 -40.5 -57s-14.5 -45.167 -14.5 -70.5s6.16699 -45.333 18.5 -60
s27.166 -22 44.499 -22c14.667 0 26.834 4.5 36.501 13.5s14.5 19.167 14.5 30.5c0 16 -4.66699 28.667 -14 38s-23 14 -41 14c-7.33301 0 -13 -1 -17 -3c-1.33301 6.66699 -2 12 -2 16c0 16 4 31.5 12 46.5s18.833 28.333 32.5 40s29.334 20.667 47.001 27
s35.834 9.5 54.501 9.5c44 0 78.333 -13.667 103 -41s37 -64.333 37 -111c0 -26 -3.5 -49.667 -10.5 -71s-16.667 -40.333 -29 -57s-25.833 -32 -40.5 -46s-34.667 -31.667 -60 -53c-46 -39.333 -84.667 -76.166 -116 -110.499s-59.333 -77.833 -84 -130.5v-52h416z" />
    <glyph glyph-name="three" unicode="3" 
d="M232 672c48.667 0 84.167 -14.999 106.5 -44.999s33.5 -69.667 33.5 -119c0 -24 -4.16699 -44.833 -12.5 -62.5s-18.5 -31.834 -30.5 -42.501s-24.167 -18.5 -36.5 -23.5s-22.166 -7.5 -29.499 -7.5c-5.33301 0 -14.333 0.666992 -27 2c-14.667 1.33301 -24.667 2 -30 2
c-10.667 0 -16 -5.33301 -16 -16s6 -16 18 -16c3.33301 0 11.666 0.666992 24.999 2c14 1.33301 24 2 30 2c13.333 0 27.166 -3.5 41.499 -10.5s27.833 -17 40.5 -30s22.667 -28.5 30 -46.5s11 -37.333 11 -58c0 -62 -15.833 -108.667 -47.5 -140s-76.834 -47 -135.501 -47
c-14.667 0 -30 2.33301 -46 7s-31.167 11.667 -45.5 21s-25.833 20.666 -34.5 33.999s-13 28.333 -13 45c0 10.667 0.666992 18.667 2 24c10.667 -8.66699 21.334 -13 32.001 -13c16 0 28.167 4.5 36.5 13.5s12.5 20.167 12.5 33.5c0 16 -5.33301 28.5 -16 37.5
s-22.334 13.5 -35.001 13.5c-18.667 0 -34 -7.66699 -46 -23s-18 -34.333 -18 -57c0 -49.333 17.5 -89 52.5 -119s80.5 -45 136.5 -45c33.333 0 64.833 5 94.5 15s55.834 24.5 78.501 43.5s40.334 41.5 53.001 67.5s19 54.667 19 86c0 43.333 -14.667 78.833 -44 106.5
s-66.333 46.5 -111 56.5v2v-1c40.667 13.333 74.334 33.5 101.001 60.5s40 60.167 40 99.5c0 24.667 -5 47.834 -15 69.501s-24.167 40.5 -42.5 56.5s-39.833 28.333 -64.5 37s-51.334 13 -80.001 13c-34 0 -63.5 -4.83301 -88.5 -14.5s-45.5 -22.667 -61.5 -39
s-27.667 -34 -35 -53s-11 -37.833 -11 -56.5c0 -18 5.16699 -33.333 15.5 -46s23.5 -19 39.5 -19c15.333 0 27.666 4.66699 36.999 14s14 20.333 14 33c0 14.667 -4.33301 26.5 -13 35.5s-20.667 13.5 -36 13.5c-10.667 0 -18.334 -0.333008 -23.001 -1
c4 18 11.333 33.833 22 47.5s23.334 24.667 38.001 33s29.334 14.5 44.001 18.5s28 6 40 6z" />
    <glyph glyph-name="four" unicode="4" 
d="M463 0l-0.000976562 28c-34 0 -55.667 3.83301 -65 11.5s-14 26.834 -14 57.501v90h102v42h-102v459h-37l-321 -464v-37h286v-93c0 -22.667 -8.16699 -39.334 -24.5 -50.001s-44.166 -16 -83.499 -16v-28h259zM65.999 229l244 353h2v-353h-246z" />
    <glyph glyph-name="five" unicode="5" 
d="M127 609c6 -1.33301 10.335 -2.66602 13.002 -3.99902c40.667 -10.667 71.667 -16 93 -16c27.333 0 53.666 3.33301 78.999 10s47.333 15.167 66 25.5s33.5 20.666 44.5 30.999s16.5 18.833 16.5 25.5c0 4.66699 -2.66699 7 -8 7c-2 0 -8.66699 -1.33301 -20 -4
c-12.667 -4 -24 -7 -34 -9c-36 -9.33301 -69.333 -14 -100 -14c-29.333 0 -56 1.66699 -80 5c-30 4 -61.667 11.333 -95 22c-8.66699 -62 -17.334 -156 -26.001 -282l-2 -33c-1.33301 -19.333 -3.33301 -36 -6 -50c-1.33301 -4.66699 -2 -8 -2 -10c0 -10 5 -15 15 -15
c6 0 11 2 15 6s6 10.667 6 20c0 26.667 14.5 48.334 43.5 65.001s60.833 25 95.5 25c18.667 0 37.5 -4.33301 56.5 -13s36.667 -21.5 53 -38.5s29.333 -38 39 -63s14.5 -52.833 14.5 -83.5c0 -58.667 -16.5 -106.667 -49.5 -144s-80.167 -56 -141.5 -56
c-42 0 -75.5 11.333 -100.5 34s-37.5 47.334 -37.5 74.001c0 3.33301 1.33301 8.33301 4 15c8.66699 -6 21 -9 37 -9c12.667 0 23.667 4 33 12s14 19 14 33c0 16 -5 28.833 -15 38.5s-22.333 14.5 -37 14.5c-20 0 -36.333 -8.33301 -49 -25s-19 -35.334 -19 -56.001
c0 -48.667 16.167 -87.334 48.5 -116.001s73.833 -43 124.5 -43c36.667 0 71 5.83301 103 17.5s59.667 28 83 49s41.5 45.667 54.5 74s19.5 58.833 19.5 91.5c0 34 -6.33301 64.833 -19 92.5s-30 51.167 -52 70.5s-47.167 34 -75.5 44s-57.833 15 -88.5 15
c-26.667 0 -50.667 -4.5 -72 -13.5s-42 -21.5 -62 -37.5z" />
    <glyph glyph-name="six" unicode="6" 
d="M272 436c-32 0 -60.5029 -8.16602 -85.5029 -24.499s-45.167 -38.833 -60.5 -67.5h-2v35c0 34.667 3.16699 69 9.5 103s16.666 65.5 30.999 94.5s33.333 52.167 57 69.5s52.167 26 85.5 26c22.667 0 42.5 -5 59.5 -15s26.167 -23.333 27.5 -40h-1
c-8 3.33301 -15.667 5 -23 5c-14 0 -25.5 -4.33301 -34.5 -13s-13.5 -20.334 -13.5 -35.001c0 -14 4.33301 -25.833 13 -35.5s20.334 -14.5 35.001 -14.5c20 0 35.333 6.33301 46 19s16 29.667 16 51c0 28 -11.333 52.667 -34 74s-52 32 -88 32
c-44 0 -82.833 -11 -116.5 -33s-61.667 -52 -84 -90s-38.833 -80.333 -49.5 -127s-16 -94.667 -16 -144c0 -35.333 4 -71.333 12 -108s20.833 -71 38.5 -103s40.834 -57.833 69.501 -77.5s62.334 -29.5 101.001 -29.5c28.667 0 55.834 6.16699 81.501 18.5
s48 29.166 67 50.499s33.833 46 44.5 74s16 56.667 16 86c0 33.333 -5.5 63.833 -16.5 91.5s-25.833 50.834 -44.5 69.501s-40.167 33 -64.5 43s-49.833 15 -76.5 15zM261.997 16.001c-24.667 0 -45.833 5.83105 -63.5 17.498s-32 27.334 -43 47.001s-19 41.334 -24 65.001
s-7.5 47.834 -7.5 72.501c0 24 3 47.333 9 70s15 43 27 61s26.667 32.333 44 43s37 16 59 16c24 0 44.5 -5.33301 61.5 -16s30.5 -24.834 40.5 -42.501s17.333 -36.667 22 -57s7 -40.5 7 -60.5c0 -27.333 -1.5 -53 -4.5 -77s-9.16699 -46.667 -18.5 -68
s-22.833 -38.5 -40.5 -51.5s-40.5 -19.5 -68.5 -19.5z" />
    <glyph glyph-name="seven" unicode="7" 
d="M490 688l-416 -0.00195312c-1.33301 -52.667 -4 -129 -8 -229h24c4 22.667 9.33301 43.334 16 62.001s15.5 35.667 26.5 51s25.333 27.5 43 36.5s38.834 13.5 63.501 13.5h199l-56 -87c-28.667 -42.667 -53.334 -80.834 -74.001 -114.501s-40 -69 -58 -106
s-32.5 -75.333 -43.5 -115s-16.5 -78.834 -16.5 -117.501c0 -34 5 -58.167 15 -72.5s22 -21.5 36 -21.5c27.333 0 41 16.333 41 49c0 5.33301 -0.333008 17.333 -1 36c-2 34.667 -3 64.334 -3 89.001c0 30.667 3.66699 63.834 11 99.501s19.333 73.834 36 114.501
s38.667 83.167 66 127.5s60.333 88.5 99 132.5v52z" />
    <glyph glyph-name="eight" unicode="8" 
d="M332 382c37.333 22 67.1689 44.9932 89.502 68.9932s33.5 52.667 33.5 86c0 22.667 -4.83301 44 -14.5 64s-23.334 37.5 -41.001 52.5s-38.334 26.5 -62.001 34.5s-49.167 12 -76.5 12c-24.667 0 -48.834 -4.5 -72.501 -13.5s-45 -22.167 -64 -39.5
s-34 -37.666 -45 -60.999s-16.5 -49 -16.5 -77c0 -22.667 4.16699 -43.167 12.5 -61.5s19.333 -34.166 33 -47.499s28.834 -24.166 45.501 -32.499s33.667 -14.5 51 -18.5v-2c-24 -9.33301 -45.667 -19.166 -65 -29.499s-37 -22.666 -53 -36.999
s-28.667 -31.166 -38 -50.499s-14 -41.333 -14 -66c0 -26.667 5.5 -51 16.5 -73s26.167 -40.667 45.5 -56s41 -27 65 -35s49 -12 75 -12c74 0 133.5 17.5 178.5 52.5s67.5 84.167 67.5 147.5c0 48.667 -13.167 88.834 -39.5 120.501s-63.5 56.167 -111.5 73.5z
M242.003 332.993c10 -4.66699 21 -9.33203 33 -13.999c25.333 -10.667 45.333 -19.667 60 -27s28.167 -16.833 40.5 -28.5s22 -26 29 -43s10.5 -37.833 10.5 -62.5c0 -25.333 -4.5 -47 -13.5 -65s-21.833 -33 -38.5 -45c-30 -21.333 -70 -32 -120 -32
c-43.333 0 -78.5 13.667 -105.5 41s-40.5 62.666 -40.5 105.999c0 46.667 12 82 36 106s60.333 45.333 109 64zM298.003 394.995c-6 2 -11.334 4.00098 -16.001 6.00098c-23.333 8 -42.5 15.167 -57.5 21.5s-29.833 14.666 -44.5 24.999s-26.5 23 -35.5 38
s-13.5 32.5 -13.5 52.5c0 42.667 12.333 75.667 37 99s54.334 35 89.001 35c38 0 70.167 -12.5 96.5 -37.5s39.5 -61.833 39.5 -110.5c0 -29.333 -8.5 -54.333 -25.5 -75s-40.167 -38.667 -69.5 -54z" />
    <glyph glyph-name="nine" unicode="9" 
d="M256 700c-32 0 -61.1689 -6.16406 -87.502 -18.4971s-48.666 -29.5 -66.999 -51.5s-32.5 -47.333 -42.5 -76s-15 -58.667 -15 -90c0 -26 4.66699 -51.5 14 -76.5s22.666 -47.5 39.999 -67.5s38.166 -36 62.499 -48s50.5 -18 78.5 -18c68 0 119.333 30.667 154 92
c1.33301 -5.33301 2 -13 2 -23c0 -94.667 -15.167 -169.5 -45.5 -224.5s-77.166 -82.5 -140.499 -82.5c-26.667 0 -49.667 4.16699 -69 12.5s-31.333 23.166 -36 44.499c8 -2.66699 15 -4 21 -4c15.333 0 28 4.16699 38 12.5s15 20.166 15 35.499
s-5.16699 27.833 -15.5 37.5s-23.166 14.5 -38.499 14.5c-18 0 -32.167 -7.33301 -42.5 -22s-15.5 -31.334 -15.5 -50.001s4.16699 -35 12.5 -49s19.333 -25.333 33 -34s28.834 -15.167 45.501 -19.5s34 -6.5 52 -6.5c43.333 0 81.833 9.66699 115.5 29
s61.667 46.833 84 82.5s39 77.334 50 125.001s16.5 100.167 16.5 157.5c0 43.333 -5.16699 84.166 -15.5 122.499s-25.333 72.333 -45 102s-43 52.667 -70 69s-56.5 24.5 -88.5 24.5zM254.998 672.003c46.667 0 81.333 -19.165 104 -57.498s34 -87.833 34 -148.5
c0 -23.333 -3 -45.833 -9 -67.5s-15 -41.334 -27 -59.001s-27.167 -31.667 -45.5 -42s-39.5 -15.5 -63.5 -15.5c-39.333 0 -69.833 15.667 -91.5 47s-32.5 79.666 -32.5 144.999c0 66 11.333 115.5 34 148.5s55 49.5 97 49.5z" />
    <glyph glyph-name="colon" unicode=":" horiz-adv-x="259" 
d="M79 42c0 -14.667 4.66699 -26.667 14 -36s21.333 -14 36 -14c14 0 25.833 5 35.5 15s14.5 21.667 14.5 35s-5 25 -15 35s-21.667 15 -35 15s-25 -5 -35 -15s-15 -21.667 -15 -35zM79 394c0 -14.667 4.66699 -26.667 14 -36s21.333 -14 36 -14c14 0 25.833 5 35.5 15
s14.5 21.667 14.5 35s-5 25 -15 35s-21.667 15 -35 15s-25 -5 -35 -15s-15 -21.667 -15 -35z" />
    <glyph glyph-name="semicolon" unicode=";" horiz-adv-x="259" 
d="M104 -188c28.667 25.333 50.332 53 64.999 83s22 63 22 99c0 27.333 -4.83301 50.5 -14.5 69.5s-25.5 28.5 -47.5 28.5c-13.333 0 -25 -5 -35 -15s-15 -21.667 -15 -35c0 -14.667 4.66699 -26.667 14 -36s21.333 -14 36 -14c12.667 0 21.334 0.333008 26.001 1v-7
c0.666992 -3.33301 1 -6 1 -8c0 -26 -7 -51.5 -21 -76.5s-32 -48.167 -54 -69.5zM78.998 394c0 -14.667 4.66699 -26.667 14 -36s21.333 -14 36 -14c14 0 25.833 5 35.5 15s14.5 21.667 14.5 35s-5 25 -15 35s-21.667 15 -35 15s-25 -5 -35 -15s-15 -21.667 -15 -35z" />
    <glyph glyph-name="less" unicode="&#x3c;" horiz-adv-x="600" 
d="M535 49l-436 186l436 186v49l-470 -211v-48l470 -211v49z" />
    <glyph glyph-name="equal" unicode="=" horiz-adv-x="600" 
d="M535 358h-470v-50h470v50zM535 164h-470v-50h470v50z" />
    <glyph glyph-name="greater" unicode="&#x3e;" horiz-adv-x="600" 
d="M65 0l470 211v48l-470 211v-49l436 -186l-436 -186v-49z" />
    <glyph glyph-name="question" unicode="?" horiz-adv-x="444" 
d="M208 196l-0.000976562 42c0 34.667 7.5 62 22.5 82s37.833 41 68.5 63c30 22.667 52.667 44 68 64s23 47.667 23 83c0 48.667 -17.5 87.167 -52.5 115.5s-77.167 42.5 -126.5 42.5c-21.333 0 -41.833 -3.5 -61.5 -10.5s-37.334 -17 -53.001 -30s-28 -28.5 -37 -46.5
s-13.5 -37.667 -13.5 -59c0 -22 5.33301 -39.833 16 -53.5s24.334 -20.5 41.001 -20.5c11.333 0 21.333 4.16699 30 12.5s13 18.5 13 30.5c0 13.333 -4.33301 24.5 -13 33.5s-19.667 13.5 -33 13.5c-6.66699 0 -14.667 -1.33301 -24 -4c1.33301 32 13.833 57.667 37.5 77
s51.5 29 83.5 29c36.667 0 66.667 -13.5 90 -40.5s35 -59.833 35 -98.5c0 -26 -6.66699 -49 -20 -69s-32.666 -42.667 -57.999 -68c-22 -22 -38.167 -40.5 -48.5 -55.5s-15.5 -31.167 -15.5 -48.5v-84h28zM147.999 42c0 -14.667 4.66699 -26.667 14 -36s21.333 -14 36 -14
c14 0 25.833 5 35.5 15s14.5 21.667 14.5 35s-5 25 -15 35s-21.667 15 -35 15s-25 -5 -35 -15s-15 -21.667 -15 -35z" />
    <glyph glyph-name="at" unicode="@" horiz-adv-x="800" 
d="M519 420c0 -20 -3.99805 -43.167 -11.998 -69.5s-19 -51.333 -33 -75s-30 -43.167 -48 -58.5s-36.333 -23 -55 -23c-16.667 0 -29.834 6.83301 -39.501 20.5s-14.5 32.5 -14.5 56.5c0 32.667 5 62.5 15 89.5s22.667 49.667 38 68s31.166 32.333 47.499 42
s30.5 14.5 42.5 14.5c20.667 0 35.667 -5.66699 45 -17s14 -27.333 14 -48zM533.002 471c-10 21.333 -21.668 35.9961 -35.001 43.9961s-29.666 12 -48.999 12c-23.333 0 -47 -7.16699 -71 -21.5s-45.667 -33.5 -65 -57.5s-34.833 -51 -46.5 -81s-17.5 -59.667 -17.5 -89
c0 -43.333 9.33301 -75.166 28 -95.499s42.667 -30.5 72 -30.5c14.667 0 28.834 2.66699 42.501 8s25.834 11.833 36.501 19.5s19.667 15.334 27 23.001s13 14.5 17 20.5h3c2 -16.667 11.5 -32.667 28.5 -48s38.5 -23 64.5 -23c30 0 57.333 7.5 82 22.5s45.5 34.667 62.5 59
s30 50.833 39 79.5s13.5 56.334 13.5 83.001c0 42.667 -8.83301 82.667 -26.5 120s-42.334 69.666 -74.001 96.999s-68.667 48.666 -111 63.999s-87.5 23 -135.5 23c-51.333 0 -100.166 -8.83301 -146.499 -26.5s-87.333 -43.167 -123 -76.5s-63.5 -72.833 -83.5 -118.5
s-30 -95.834 -30 -150.501c0 -36 8 -73.833 24 -113.5s40.333 -76.667 73 -111s74 -62.166 124 -83.499s107.667 -32 173 -32c36.667 0 71.5 4.83301 104.5 14.5s71.5 23.834 115.5 42.501l-14 24c-38.667 -18.667 -73.334 -32.167 -104.001 -40.5s-65 -12.5 -103 -12.5
c-42 0 -82.167 7.5 -120.5 22.5s-72.333 36.167 -102 63.5s-52.834 59.5 -69.501 96.5s-25 76.833 -25 119.5c0 56 7.5 106.333 22.5 151s36.333 82.334 64 113.001s60.334 54 98.001 70s78.5 24 122.5 24c48.667 0 92.667 -8.5 132 -25.5s72.666 -39.667 99.999 -68
s48 -59 62 -92s21 -64.833 21 -95.5c0 -23.333 -3.16699 -47.166 -9.5 -71.499s-16 -47 -29 -68s-28.833 -37.833 -47.5 -50.5s-39.667 -19 -63 -19c-14.667 0 -25.167 3.66699 -31.5 11s-9.5 17.666 -9.5 30.999c0 10.667 2.66699 26.334 8 47.001
c1.33301 4.66699 2.33301 7.66699 3 9l60 229h-69z" />
    <glyph glyph-name="A" unicode="A" horiz-adv-x="667" 
d="M227 0v28.0029c-35.333 0 -59.166 1.66699 -71.499 5s-18.5 10.666 -18.5 21.999c0 5.33301 1.5 13.5 4.5 24.5s7 24.167 12 39.5s9 27.166 12 35.499l17.5 48.5c6 17.333 9.66699 27.666 11 30.999h249c1.33301 -4.66699 3.33301 -10.667 6 -18l16 -44
c12 -31.333 21.333 -56.5 28 -75.5s10 -32.5 10 -40.5c0 -10.667 -6 -18 -18 -22s-35.667 -6 -71 -6v-28h255v28c-27.333 0 -47.166 2.5 -59.499 7.5s-21.5 15.167 -27.5 30.5l-229 622h-24l-230 -616c-6.66699 -17.333 -16.834 -29 -30.501 -35s-36.834 -9 -69.501 -9v-28
h228zM319 576.003l112 -308h-225z" />
    <glyph glyph-name="B" unicode="B" horiz-adv-x="648" 
d="M195 591c0 16 1.16699 28.501 3.5 37.501s7 15.833 14 20.5s16.5 7.66699 28.5 9s29.667 2 53 2c66 0 113.167 -10.333 141.5 -31s42.5 -57 42.5 -109c0 -48.667 -15.333 -84.834 -46 -108.501s-79 -35.5 -145 -35.5h-92v215zM119 97.001
c0 -16.667 -1.16602 -29.5029 -3.49902 -38.5029s-6.66602 -15.667 -12.999 -20s-15.333 -7.16602 -27 -8.49902s-29.167 -2 -52.5 -2v-28h351c40.667 0 75.834 5.5 105.501 16.5s53.5 25.667 71.5 44s31.333 38.833 40 61.5s13 46.667 13 72c0 46.667 -17 85.167 -51 115.5
s-78.333 49.5 -133 57.5v2c45.333 11.333 80.666 29.833 105.999 55.5s38 60.167 38 103.5c0 19.333 -3.33301 38.333 -10 57s-17.834 35.834 -33.501 51.501s-36.834 28.167 -63.501 37.5s-59 14 -97 14h-330v-28c21.333 0 37.333 -0.666992 48 -2s19 -4.16602 25 -8.49902
s10.167 -11 12.5 -20s3.5 -21.833 3.5 -38.5v-494zM195.001 347.998h153c50.667 0 91.667 -13.333 123 -40s47 -66.667 47 -120c0 -30 -3.33301 -55.167 -10 -75.5s-17.667 -36.833 -33 -49.5c-29.333 -23.333 -83 -35 -161 -35c-47.333 0 -79 3.33301 -95 10s-24 22 -24 46
v264z" />
    <glyph glyph-name="C" unicode="C" horiz-adv-x="648" 
d="M582 678h-27.9971c-0.666992 -1.33301 -2 -4.33301 -4 -9c-4 -9.33301 -8 -17.166 -12 -23.499s-9.33301 -9.5 -16 -9.5c-4.66699 0 -14.334 5 -29.001 15c-21.333 14.667 -42.333 26.5 -63 35.5s-45.334 13.5 -74.001 13.5c-41.333 0 -80.5 -8.83301 -117.5 -26.5
s-69.667 -42.834 -98 -75.501s-50.5 -70.834 -66.5 -114.501s-24 -90.167 -24 -139.5c0 -44 6.5 -87.333 19.5 -130s32.5 -81 58.5 -115s58.333 -61 97 -81s82.334 -30 131.001 -30c75.333 0 134.5 24.833 177.5 74.5s64.5 117.167 64.5 202.5h-34
c-3.33301 -75.333 -23 -135.666 -59 -180.999s-85.667 -68 -149 -68c-31.333 0 -59.666 5.33301 -84.999 16s-47.833 28.5 -67.5 53.5s-34.834 58.833 -45.501 101.5s-16 95 -16 157c0 61.333 6 113.333 18 156s28.167 76.667 48.5 102s42.666 43.333 66.999 54
s49.833 16 76.5 16c30 0 56.667 -6.5 80 -19.5s43.166 -30.5 59.499 -52.5s29.5 -46.167 39.5 -72.5s17.667 -53.5 23 -81.5h28v232z" />
    <glyph glyph-name="D" unicode="D" horiz-adv-x="704" 
d="M116 97c0 -16.667 -1.16895 -29.502 -3.50195 -38.502s-6.66602 -15.667 -12.999 -20s-15.166 -7.16602 -26.499 -8.49902s-28 -2 -50 -2v-28h313c52 0 98.333 9.16699 139 27.5s75 43.833 103 76.5s49 69.5 63 110.5s21 84.167 21 129.5s-7 88.5 -21 129.5
s-35 77.833 -63 110.5s-62.333 58.167 -103 76.5s-87 27.5 -139 27.5h-308v-28c20.667 0 36.5 -0.666992 47.5 -2s19.333 -4.16602 25 -8.49902s9.66699 -11 12 -20s3.5 -21.833 3.5 -38.5v-494zM191.998 589.998c0 28.667 5.33398 47.499 16.001 56.499s31 13.5 61 13.5h44
c94 0 160.333 -24.5 199 -73.5s58 -129.833 58 -242.5c0 -58.667 -4.83301 -108 -14.5 -148s-24.834 -72.333 -45.501 -97s-47.5 -42.667 -80.5 -54s-73.833 -17 -122.5 -17h-51c-26 0 -43.167 3.83301 -51.5 11.5s-12.5 20.834 -12.5 39.501v511z" />
    <glyph glyph-name="E" unicode="E" horiz-adv-x="667" 
d="M586 260l-27.0029 -0.00195312c-5.33301 -44 -13.833 -80.5 -25.5 -109.5s-27.167 -52.5 -46.5 -70.5s-44 -31.167 -74 -39.5s-66.667 -12.5 -110 -12.5c-40.667 0 -69 3 -85 9s-24 17 -24 33v276h60c38 0 64.833 -10.167 80.5 -30.5s24.167 -50.166 25.5 -89.499h28v268
h-28c-1.33301 -39.333 -9.83301 -69.166 -25.5 -89.499s-42.5 -30.5 -80.5 -30.5h-60v228c0 21.333 9.83301 36.333 29.5 45s52.834 13 99.501 13c34.667 0 64.334 -3.16699 89.001 -9.5s46 -17.333 64 -33s32.833 -37.834 44.5 -66.501s19.834 -65.334 24.501 -110.001h27
l-6 247h-538v-28c21.333 0 37.5 -0.666992 48.5 -2s19.5 -4.16602 25.5 -8.49902s10.167 -11 12.5 -20s3.5 -21.833 3.5 -38.5v-494c0 -16.667 -1.16699 -29.5 -3.5 -38.5s-6.66602 -15.667 -12.999 -20s-15.333 -7.16602 -27 -8.49902s-28.834 -2 -51.501 -2v-28h557z" />
    <glyph glyph-name="F" unicode="F" horiz-adv-x="611" 
d="M30 688l0.000976562 -28.0078c21.333 0 37.5 -0.666992 48.5 -2s19.5 -4.16602 25.5 -8.49902s10.167 -11 12.5 -20s3.5 -21.833 3.5 -38.5v-494c0 -16.667 -1.16699 -29.5 -3.5 -38.5s-6.66602 -15.667 -12.999 -20s-15.333 -7.16602 -27 -8.49902
s-28.834 -2 -51.501 -2v-28h305v28c-32.667 0 -57.5 0.833008 -74.5 2.5s-29.833 4.33398 -38.5 8.00098s-14.334 9.33398 -17.001 17.001s-4 18.5 -4 32.5v258h66c38 0 64.833 -10.167 80.5 -30.5s24.167 -50.166 25.5 -89.499h28v268h-28
c-1.33301 -39.333 -9.83301 -69.166 -25.5 -89.499s-42.5 -30.5 -80.5 -30.5h-66v215c0 30.667 6.33301 50.167 19 58.5s32.667 12.5 60 12.5c49.333 0 90 -3.16699 122 -9.5s58.833 -17.166 80.5 -32.499s38.5 -37.166 50.5 -65.499s20.667 -65.5 26 -111.5h27l-6 247h-545
z" />
    <glyph glyph-name="G" unicode="G" horiz-adv-x="685" 
d="M546 676l-22.001 -35.9971c-2 -3.33301 -5.33301 -5 -10 -5c-1.33301 0 -6 2.66699 -14 8c-22.667 15.333 -46 28.666 -70 39.999s-50 17 -78 17c-48.667 0 -92.334 -10 -131.001 -30s-71 -47 -97 -81s-45.5 -72.333 -58.5 -115s-19.5 -86 -19.5 -130
s6.5 -87.333 19.5 -130s31.833 -81 56.5 -115s55.334 -61 92.001 -81s77.334 -30 122.001 -30c35.333 0 64.333 4.16699 87 12.5s44.667 19.166 66 32.499c12.667 7.33301 20.667 11 24 11c5.33301 0 10.333 -3.16699 15 -9.5s11.334 -17.5 20.001 -33.5l1 -1h25v245
c0 19.333 4.16699 33 12.5 41s23.166 12 44.499 12h24v28h-271v-28h27c30 0 52 -8 66 -24s21 -45 21 -87c0 -114 -48.667 -171 -146 -171c-31.333 0 -59.666 5.33301 -84.999 16s-47.833 28.5 -67.5 53.5s-34.834 58.833 -45.501 101.5s-16 95 -16 157
s5.33301 114.333 16 157s25.834 76.5 45.501 101.5s42.167 42.833 67.5 53.5s53.666 16 84.999 16c30 0 56.167 -6.33301 78.5 -19s41 -30 56 -52s27.167 -46.833 36.5 -74.5s16.333 -57.834 21 -90.501h30v240h-28z" />
    <glyph glyph-name="H" unicode="H" horiz-adv-x="704" 
d="M28 688l0.00390625 -28c21.333 0 37.5 -0.666992 48.5 -2s19.5 -4.16602 25.5 -8.49902s10.167 -11 12.5 -20s3.5 -21.833 3.5 -38.5v-494c0 -16.667 -1.16699 -29.5 -3.5 -38.5s-6.66602 -15.667 -12.999 -20s-15.333 -7.16602 -27 -8.49902s-28.834 -2 -51.501 -2v-28
h258v28c-20.667 0 -36.334 0.666992 -47.001 2s-18.834 4.16602 -24.501 8.49902s-9.66699 11 -12 20s-3.5 21.833 -3.5 38.5v245h318v-245c0 -16.667 -1.16699 -29.5 -3.5 -38.5s-6.66602 -15.667 -12.999 -20s-15.333 -7.16602 -27 -8.49902s-28.834 -2 -51.501 -2v-28
h258v28c-20.667 0 -36.334 0.666992 -47.001 2s-18.834 4.16602 -24.501 8.49902s-9.66699 11 -12 20s-3.5 21.833 -3.5 38.5v494c0 16.667 1.16699 29.5 3.5 38.5s6.5 15.667 12.5 20s14.667 7.16602 26 8.49902s28 2 50 2v28h-258v-28c21.333 0 37.5 -0.666992 48.5 -2
s19.5 -4.16602 25.5 -8.49902s10.167 -11 12.5 -20s3.5 -21.833 3.5 -38.5v-215h-318v215c0 16.667 1.16699 29.5 3.5 38.5s6.5 15.667 12.5 20s14.667 7.16602 26 8.49902s28 2 50 2v28h-258z" />
    <glyph glyph-name="I" unicode="I" horiz-adv-x="315" 
d="M31 688l0.00195312 -28c21.333 0 37.5 -0.666992 48.5 -2s19.5 -4.16602 25.5 -8.49902s10.167 -11 12.5 -20s3.5 -21.833 3.5 -38.5v-494c0 -16.667 -1.16699 -29.5 -3.5 -38.5s-6.66602 -15.667 -12.999 -20s-15.333 -7.16602 -27 -8.49902s-28.834 -2 -51.501 -2v-28
h258v28c-20.667 0 -36.334 0.666992 -47.001 2s-18.834 4.16602 -24.501 8.49902s-9.66699 11 -12 20s-3.5 21.833 -3.5 38.5v494c0 16.667 1.16699 29.5 3.5 38.5s6.5 15.667 12.5 20s14.667 7.16602 26 8.49902s28 2 50 2v28h-258z" />
    <glyph glyph-name="J" unicode="J" horiz-adv-x="444" 
d="M174 688v-27.9961c21.333 0 37.5 -0.666992 48.5 -2s19.5 -4.16602 25.5 -8.49902s10.167 -11 12.5 -20s3.5 -21.833 3.5 -38.5v-443c0 -52.667 -9.83301 -87.834 -29.5 -105.501s-51.167 -26.5 -94.5 -26.5c-22.667 0 -44.667 8.5 -66 25.5s-32 38.833 -32 65.5
c11.333 -7.33301 22.333 -11 33 -11c14 0 25.333 4.83301 34 14.5s13 21.5 13 35.5c0 16 -4.66699 28.667 -14 38s-21.333 14 -36 14c-22 0 -38.5 -8.33301 -49.5 -25s-16.5 -35.334 -16.5 -56.001c0 -38.667 14.5 -69.834 43.5 -93.501s62.833 -35.5 101.5 -35.5
c58.667 0 104.167 13.667 136.5 41s48.5 69.666 48.5 126.999v435c0 16.667 1.16699 29.5 3.5 38.5s6.5 15.667 12.5 20s14.667 7.16602 26 8.49902s28 2 50 2v28h-254z" />
    <glyph glyph-name="K" unicode="K" horiz-adv-x="685" 
d="M35 688l-0.00195312 -28.002c21.333 0 37.5 -0.666992 48.5 -2s19.5 -4.16602 25.5 -8.49902s10.167 -11 12.5 -20s3.5 -21.833 3.5 -38.5v-494c0 -16.667 -1.16699 -29.5 -3.5 -38.5s-6.66602 -15.667 -12.999 -20s-15.333 -7.16602 -27 -8.49902s-28.834 -2 -51.501 -2
v-28h266v28c-22.667 0 -39.834 0.666992 -51.501 2s-20.667 4.16602 -27 8.49902s-10.666 11 -12.999 20s-3.5 21.833 -3.5 38.5v147c0 6 4.66699 13.333 14 22c3.33301 2.66699 6 5 8 7l66 66l163 -225c2.66699 -3.33301 4.66699 -6 6 -8
c9.33301 -13.333 16 -23.666 20 -30.999s6 -15.666 6 -24.999c0 -8.66699 -6.5 -14.167 -19.5 -16.5s-37.5 -3.83301 -73.5 -4.5v-29h293v28c-26 0 -48 3.16699 -66 9.5s-33.667 18.833 -47 37.5l-226 317l213 214c16.667 16.667 33.334 29.667 50.001 39s37 14.333 61 15
v28h-250v-28c38.667 0 64.334 -2.5 77.001 -7.5s19 -12.5 19 -22.5c0 -14 -4.66699 -25.667 -14 -35l-297 -297v293c0 16.667 1.16699 29.5 3.5 38.5s6.5 15.667 12.5 20s14.667 7.16602 26 8.49902s28 2 50 2v28h-261z" />
    <glyph glyph-name="L" unicode="L" horiz-adv-x="574" 
d="M542 260h-27.0029c-5.33301 -44 -13.833 -80.5 -25.5 -109.5s-27.167 -52.5 -46.5 -70.5s-44 -31.167 -74 -39.5s-66.667 -12.5 -110 -12.5c-26.667 0 -44.5 4.16699 -53.5 12.5s-13.5 29.166 -13.5 62.499v488c0 16.667 1.16699 29.5 3.5 38.5s6.33301 15.667 12 20
s13.834 7.16602 24.501 8.49902s26 2 46 2v28h-250v-28c20.667 0 36.5 -0.666992 47.5 -2s19.333 -4.16602 25 -8.49902s9.66699 -11 12 -20s3.5 -21.833 3.5 -38.5v-494c0 -16.667 -1.16699 -29.5 -3.5 -38.5s-6.66602 -15.667 -12.999 -20
s-15.166 -7.16602 -26.499 -8.49902s-28 -2 -50 -2v-28h513z" />
    <glyph glyph-name="M" unicode="M" horiz-adv-x="796" 
d="M20 660c22 0 38.666 -0.666992 49.999 -2s20.166 -4.16602 26.499 -8.49902s10.666 -11 12.999 -20s3.5 -21.833 3.5 -38.5v-491c0 -24.667 -6.83301 -42.5 -20.5 -53.5s-37.834 -17.167 -72.501 -18.5v-28h222v28c-35.333 1.33301 -60 7.5 -74 18.5s-21 28.833 -21 53.5
v536h2l211 -636h24l221 636h2v-539c0 -16.667 -1 -29.5 -3 -38.5s-6.16699 -15.667 -12.5 -20s-15.166 -7.16602 -26.499 -8.49902s-28.666 -2 -51.999 -2v-28h263v28c-22 0 -38.667 0.666992 -50 2s-20.166 4.16602 -26.499 8.49902s-10.666 11 -12.999 20
s-3.5 21.833 -3.5 38.5v494c0 16.667 1.16699 29.5 3.5 38.5s6.5 15.667 12.5 20s14.5 7.16602 25.5 8.49902s27.5 2 49.5 2v28h-186l-190 -554h-4l-180 554h-194v-28z" />
    <glyph glyph-name="N" unicode="N" horiz-adv-x="704" 
d="M458 660c24 0 42.165 -0.666992 54.498 -2s21.833 -4.16602 28.5 -8.49902s11.167 -11 13.5 -20s3.5 -21.833 3.5 -38.5v-455h-2l-390 552h-145v-28c25.333 0 47.333 -4.83301 66 -14.5s28 -21.5 28 -35.5v-513c0 -16.667 -1.16699 -29.5 -3.5 -38.5
s-6.66602 -15.667 -12.999 -20s-15.166 -7.16602 -26.499 -8.49902s-28.333 -2 -51 -2v-28h234v28c-24 0 -42.167 0.666992 -54.5 2s-21.833 4.16602 -28.5 8.49902s-11.167 11 -13.5 20s-3.5 21.833 -3.5 38.5v475h2l404 -572h37v591c0 16.667 1.16699 29.5 3.5 38.5
s6.5 15.667 12.5 20s14.667 7.16602 26 8.49902s28 2 50 2v28h-232v-28z" />
    <glyph glyph-name="O" unicode="O" horiz-adv-x="704" 
d="M352 672c31.333 0 59.833 -5.33301 85.5 -16s48.167 -28.5 67.5 -53.5s34.333 -58.833 45 -101.5s16 -95 16 -157s-5.33301 -114.333 -16 -157s-25.834 -76.5 -45.501 -101.5s-42.167 -42.833 -67.5 -53.5s-53.666 -16 -84.999 -16s-59.666 5.33301 -84.999 16
s-47.833 28.5 -67.5 53.5s-34.834 58.833 -45.501 101.5s-16 95 -16 157s5.33301 114.333 16 157s25.834 76.5 45.501 101.5s42.167 42.833 67.5 53.5s53.666 16 84.999 16zM352 -12c48.667 0 92.334 10.001 131.001 30.001s71 47.167 97 81.5s45.5 72.666 58.5 114.999
s19.5 85.5 19.5 129.5s-6.5 87.333 -19.5 130s-32.5 81 -58.5 115s-58.333 61 -97 81s-82.334 30 -131.001 30s-92.334 -10 -131.001 -30s-71 -47 -97 -81s-45.5 -72.333 -58.5 -115s-19.5 -86 -19.5 -130s6.5 -87.333 19.5 -130s32.5 -81 58.5 -115s58.333 -61 97 -81
s82.334 -30 131.001 -30z" />
    <glyph glyph-name="P" unicode="P" horiz-adv-x="611" 
d="M319 0l-0.00195312 27.999h-38c-36 0 -58.833 2.66699 -68.5 8s-14.5 19.333 -14.5 42v234h126c82 0 144.833 16 188.5 48s65.5 76.333 65.5 133c0 65.333 -24.167 114.166 -72.5 146.499s-112.166 48.5 -191.499 48.5h-284v-28c22 0 38.667 -0.666992 50 -2
s20 -4.16602 26 -8.49902s10.167 -11 12.5 -20s3.5 -21.833 3.5 -38.5v-513c0 -12 -1.16699 -21.167 -3.5 -27.5s-6.66602 -11.166 -12.999 -14.499s-15.833 -5.5 -28.5 -6.5s-30.667 -1.5 -54 -1.5v-28h296zM197.998 609.999c0 20 6.83301 33.333 20.5 40s43.5 10 89.5 10
c64.667 0 111.5 -13.5 140.5 -40.5s43.5 -66.833 43.5 -119.5c0 -49.333 -12.5 -88.333 -37.5 -117s-62.5 -43 -112.5 -43h-144v270z" />
    <glyph glyph-name="Q" unicode="Q" horiz-adv-x="704" 
d="M626 40v-11.999c0 -35.333 -6.5 -63.5 -19.5 -84.5s-34.5 -31.5 -64.5 -31.5c-11.333 0 -21.166 3.16699 -29.499 9.5s-15.166 14.666 -20.499 24.999s-9.16602 21.5 -11.499 33.5s-3.83301 23.667 -4.5 35c57.333 27.333 102 71.5 134 132.5s48 126.5 48 196.5
c0 44 -6.5 87.333 -19.5 130s-32.5 81 -58.5 115s-58.333 61 -97 81s-82.334 30 -131.001 30s-92.334 -10 -131.001 -30s-71 -47 -97 -81s-45.5 -72.333 -58.5 -115s-19.5 -86 -19.5 -130c0 -43.333 6.5 -86 19.5 -128s32.5 -80.333 58.5 -115s58.333 -62.167 97 -82.5
s82.334 -30.5 131.001 -30.5c15.333 0 25 0.333008 29 1c1.33301 0 3.33301 0.333008 6 1c5.33301 1.33301 11 2.33301 17 3c0.666992 -39.333 10.167 -71.333 28.5 -96s47.166 -37 86.499 -37c47.333 0 81.666 14.5 102.999 43.5s32 69.167 32 120.5v16h-28zM138 344.001
c0 62 5.33301 114.332 16 156.999s25.834 76.5 45.501 101.5s42.167 42.833 67.5 53.5s53.666 16 84.999 16s59.833 -5.33301 85.5 -16s48.167 -28.5 67.5 -53.5s34.333 -58.833 45 -101.5s16 -95 16 -157c0 -66 -7.16699 -123.667 -21.5 -173s-39.166 -87 -74.499 -113
c-3.33301 47.333 -15.833 85.833 -37.5 115.5s-51.5 44.5 -89.5 44.5c-32 0 -57.833 -9.83301 -77.5 -29.5s-29.5 -44.167 -29.5 -73.5c0 -12 1.16699 -22 3.5 -30s6.16602 -17.333 11.499 -28c2 -4 3.33301 -7 4 -9l-2 -3c-24 12.667 -43.833 30.334 -59.5 53.001
s-27.5 47.834 -35.5 75.501s-13.333 55.667 -16 84s-4 57.166 -4 86.499zM338 190c24 0 42.332 -9.83301 54.999 -29.5s19 -46.834 19 -81.501c0 -11.333 -1.33301 -26.666 -4 -45.999l-1 -9c-15.333 -5.33301 -37.666 -8 -66.999 -8c-18.667 0 -35 8.66699 -49 26
s-21 38.333 -21 63c0 26.667 6.16699 47.5 18.5 62.5s28.833 22.5 49.5 22.5z" />
    <glyph glyph-name="R" unicode="R" horiz-adv-x="648" 
d="M26 660c21.333 0 37.333 -0.664062 48 -1.99707s19 -4.16602 25 -8.49902s10.167 -11 12.5 -20s3.5 -21.833 3.5 -38.5v-494c0 -16.667 -1.16699 -29.5 -3.5 -38.5s-6.66602 -15.667 -12.999 -20s-15.166 -7.16602 -26.499 -8.49902s-28 -2 -50 -2v-28h261v28h-47
c-14 0 -25 3.66699 -33 11s-12 19.666 -12 36.999v260h85c39.333 0 69 -9 89 -27s32 -51.667 36 -101c6 -81.333 17.667 -138.333 35 -171s46.666 -49 87.999 -49c36.667 0 62.834 10.5 78.501 31.5s23.5 63.167 23.5 126.5h-28
c-2.66699 -40.667 -6.83398 -70.167 -12.501 -88.5s-16.834 -27.5 -33.501 -27.5c-12 0 -20.833 6.83301 -26.5 20.5s-11.834 37.167 -18.501 70.5c-8 39.333 -15.333 70 -22 92c-10 33.333 -23.833 61.166 -41.5 83.499s-40.834 37.166 -69.501 44.499v2
c26 0 51 3.66699 75 11s45.5 18 64.5 32s34 31.667 45 53s16.5 45.666 16.5 72.999c0 29.333 -6.66699 55.166 -20 77.499s-31.666 40.833 -54.999 55.5s-49.666 25.5 -78.999 32.5s-60 10.5 -92 10.5h-303v-28zM191 588.003c0 27.333 6.50195 46.1699 19.502 56.5029
s43.833 15.5 92.5 15.5c63.333 0 110.166 -12.167 140.499 -36.5s45.5 -60.5 45.5 -108.5c0 -22.667 -2.33301 -42.834 -7 -60.501s-13 -33.334 -25 -47.001s-28.833 -24.334 -50.5 -32.001s-48.834 -11.5 -81.501 -11.5h-134v224z" />
    <glyph glyph-name="S" unicode="S" horiz-adv-x="556" 
d="M478 455l-0.00976562 232.998h-30c-2 -4 -4.66699 -9.66699 -8 -17c-5.33301 -11.333 -9.66602 -19.833 -12.999 -25.5s-7.33301 -8.5 -12 -8.5c-2.66699 0 -9 4 -19 12c-18.667 14.667 -38.167 26.834 -58.5 36.501s-45.833 14.5 -76.5 14.5s-58.667 -5.33301 -84 -16
s-46.833 -24.667 -64.5 -42s-31 -36.666 -40 -57.999s-13.5 -42.333 -13.5 -63c0 -34 5.83301 -62.5 17.5 -85.5s27.167 -41.5 46.5 -55.5s39.833 -25 61.5 -33s49.834 -16.667 84.501 -26c29.333 -8.66699 52.833 -16 70.5 -22s34.334 -14.167 50.001 -24.5
s28 -23.333 37 -39s13.5 -34.834 13.5 -57.501c0 -52.667 -14 -92.834 -42 -120.501s-68 -41.5 -120 -41.5c-32.667 0 -61.167 6.83301 -85.5 20.5s-44.666 32 -60.999 55s-29.333 48.667 -39 77s-16.5 58.166 -20.5 89.499h-28v-258h28c0.666992 2 2 5.66699 4 11
c3.33301 10 7 17.833 11 23.5s9.66699 8.5 17 8.5c9.33301 0 25.333 -6 48 -18c22 -11.333 42.833 -20.333 62.5 -27s42.834 -10 69.501 -10c28.667 0 56.667 5 84 15s51.833 24.5 73.5 43.5s38.834 41.333 51.501 67s19 53.167 19 82.5
c0 32.667 -5.83301 60.167 -17.5 82.5s-27.334 40.5 -47.001 54.5s-40.167 24.833 -61.5 32.5s-49.666 16.834 -84.999 27.501c-29.333 8 -53.666 15.333 -72.999 22s-37.166 15.334 -53.499 26.001s-29.333 24.334 -39 41.001s-14.5 36.667 -14.5 60
c0 17.333 3.66699 34 11 50s17.333 30 30 42s26.834 21.333 42.501 28s31.834 10 48.501 10c54 0 97.333 -19.667 130 -59s55 -92 67 -158h28z" />
    <glyph glyph-name="T" unicode="T" horiz-adv-x="630" 
d="M602 453l-6.00195 235h-562l-6 -235h27c9.33301 80.667 31.5 135.334 66.5 164.001s86.833 43 155.5 43v-563c0 -17.333 -1.33301 -30.333 -4 -39s-7.66699 -15.167 -15 -19.5s-17.666 -7.16602 -30.999 -8.49902s-33.666 -2 -60.999 -2v-28h298v28
c-27.333 0 -47.833 0.666992 -61.5 2s-24 4.16602 -31 8.49902s-11.833 10.833 -14.5 19.5s-4 21.667 -4 39v563c69.333 0 121.333 -14.333 156 -43s56.667 -83.334 66 -164.001h27z" />
    <glyph glyph-name="U" unicode="U" horiz-adv-x="685" 
d="M22 688l-0.00195312 -28.002c20.667 0 36.5 -0.666992 47.5 -2s19.333 -4.16602 25 -8.49902s9.66699 -11 12 -20s3.5 -21.833 3.5 -38.5v-403c0 -28 3.66699 -54 11 -78s19.5 -45 36.5 -63s39.833 -32.333 68.5 -43s63.667 -16 105 -16c75.333 0 135 18.167 179 54.5
s66 91.5 66 165.5v374c0 30 6 50.5 18 61.5s37.333 16.5 76 16.5v28h-220v-28c38 0 62.833 -5.66699 74.5 -17s17.5 -31.666 17.5 -60.999v-370c0 -65.333 -17 -114.333 -51 -147s-80.333 -49 -139 -49c-36 0 -65.167 4 -87.5 12s-39.166 18.833 -50.499 32.5
s-18.833 28.834 -22.5 45.501s-5.5 36 -5.5 58v427c0 16.667 1.16699 29.5 3.5 38.5s6.5 15.667 12.5 20s14.333 7.16602 25 8.49902s26.334 2 47.001 2v28h-252z" />
    <glyph glyph-name="V" unicode="V" horiz-adv-x="630" 
d="M-2 688v-28.002c21.333 0 38.833 -2.66699 52.5 -8s22.167 -12.333 25.5 -21l232 -631h17l217 596c8.66699 24 20.167 40.667 34.5 50s36.833 14 67.5 14v28h-218v-28c33.333 0 55.666 -3.66699 66.999 -11s17 -17.666 17 -30.999c0 -10 -1.5 -20.167 -4.5 -30.5
s-9.16699 -28.166 -18.5 -53.499l-148 -405l-159 434l-3 9c-10 24.667 -15 43.667 -15 57c0 10.667 6.33301 18.5 19 23.5s37.334 7.5 74.001 7.5v28h-257z" />
    <glyph glyph-name="W" unicode="W" horiz-adv-x="870" 
d="M0 688v-28.001c18 0 33.333 -3.83301 46 -11.5s21.667 -19.5 27 -35.5l197 -613h20l143 438h2l140 -438h16l191 587c8.66699 26 19.167 44.667 31.5 56s31.166 17 56.499 17v28h-190v-28c23.333 0 41.5 -2.5 54.5 -7.5s19.5 -13.5 19.5 -25.5
c0 -15.333 -3.66699 -35.333 -11 -60l-136 -426h-2c-1.33301 5.33301 -6.33301 21.5 -15 48.5l-30 89.5l-72.5 224c-11 34 -19.667 61.833 -26 83.5s-9.5 34.834 -9.5 39.501c0 12.667 6 21.5 18 26.5s37 7.5 75 7.5v28h-247v-28c24 0 42.333 -4.33301 55 -13
s23.334 -27 32.001 -55l33 -104l-114 -349h-2l-137 431l-3 10c-4 12.667 -7 23 -9 31s-3 15 -3 21c0 10 6 17.167 18 21.5s32.667 6.5 62 6.5v28h-230z" />
    <glyph glyph-name="X" unicode="X" horiz-adv-x="667" 
d="M38 660c27.333 0 47.834 -2.83105 61.501 -8.49805s25.834 -17.5 36.501 -35.5l166 -268l-179 -261c-14.667 -21.333 -30.334 -36.5 -47.001 -45.5s-37.334 -13.5 -62.001 -13.5v-28h245v28c-43.333 0 -71.666 2.16699 -84.999 6.5s-20 13.5 -20 27.5c0 8 6 21 18 39l2 3
l147 215c4 -8 10.667 -19.5 20 -34.5l37 -57.5l41 -64l25.5 -42c9 -15.333 16.167 -28.5 21.5 -39.5s8 -18.833 8 -23.5c0 -11.333 -6.33301 -19.166 -19 -23.499s-37.667 -6.5 -75 -6.5v-28h272v28c-21.333 0 -39.5 3.16699 -54.5 9.5s-28.167 18.833 -39.5 37.5l-190 307
l158 232c12 17.333 26.5 29.333 43.5 36s38.5 10 64.5 10v28h-234v-28c36 0 59.333 -2 70 -6s16 -11.667 16 -23c0 -8.66699 -3.83301 -19.334 -11.5 -32.001s-20.834 -32.334 -39.501 -59.001c-35.333 -48.667 -64.333 -91.334 -87 -128.001
c-14.667 26 -37.667 63.667 -69 113l-47 76.5c-9.33301 15.667 -14 26.5 -14 32.5c0 10 5.5 16.833 16.5 20.5s33.833 5.5 68.5 5.5v28h-265v-28z" />
    <glyph glyph-name="Y" unicode="Y" horiz-adv-x="556" 
d="M578 688l-194.005 0.000976562v-28c25.333 0 43.5 -2.66699 54.5 -8s16.5 -13.333 16.5 -24c0 -16 -5 -33 -15 -51l-133 -256l-132 262c-4.66699 9.33301 -8.33398 17.833 -11.001 25.5s-4 13.834 -4 18.501c0 14 5.5 23 16.5 27s35.833 6 74.5 6v28h-251v-28
c22.667 0 38.834 -1.83301 48.501 -5.5s16.834 -9.83398 21.501 -18.501l179 -346v-193c0 -16.667 -1.16699 -29.5 -3.5 -38.5s-7.16602 -15.667 -14.499 -20s-17.666 -7.16602 -30.999 -8.49902s-33.333 -2 -60 -2v-28h286v28c-24.667 0 -43.167 0.666992 -55.5 2
s-21.833 4.16602 -28.5 8.49902s-11.167 11 -13.5 20s-3.5 21.833 -3.5 38.5v193l177 340c4.66699 9.33301 13.334 16.666 26.001 21.999s29.334 8 50.001 8v28z" />
    <glyph glyph-name="Z" unicode="Z" horiz-adv-x="574" 
d="M519 248h-27c-5.33301 -41.333 -13.666 -76 -24.999 -104s-26.833 -50.5 -46.5 -67.5s-44.334 -29.333 -74.001 -37s-66.5 -11.5 -110.5 -11.5h-125l394 628v32h-434l-6 -235h27c4.66699 40 11.667 73.167 21 99.5s22.333 47.333 39 63s37.667 27 63 34
s56.333 10.5 93 10.5h122l-396 -630v-30h479z" />
    <glyph glyph-name="bracketleft" unicode="[" horiz-adv-x="296" 
d="M90 -170h158v28h-39c-22 0 -37 6.16699 -45 18.5s-12 31.833 -12 58.5v648c0 26.667 4 46.167 12 58.5s23 18.5 45 18.5h39v28h-158v-858z" />
    <glyph glyph-name="backslash" unicode="\" horiz-adv-x="278" 
d="M292 -12l-256 712h-50l256 -712h50z" />
    <glyph glyph-name="bracketright" unicode="]" horiz-adv-x="296" 
d="M206 688h-158v-28h39c22 0 37 -6.16699 45 -18.5s12 -31.833 12 -58.5v-648c0 -26.667 -4 -46.167 -12 -58.5s-23 -18.5 -45 -18.5h-39v-28h158v858z" />
    <glyph glyph-name="asciicircum" unicode="^" horiz-adv-x="600" 
d="M148 335l152 301l152 -301h56l-184 365h-48l-184 -365h56z" />
    <glyph glyph-name="underscore" unicode="_" horiz-adv-x="500" 
d="M500 -125v50h-500v-50h500z" />
    <glyph glyph-name="grave" unicode="`" horiz-adv-x="259" 
d="M172 526l28.999 -0.000976562l-150 141c-15.333 14 -28 21 -38 21c-7.33301 0 -13.666 -2.66699 -18.999 -8s-8 -11.666 -8 -18.999c0 -11.333 5 -20.333 15 -27z" />
    <glyph glyph-name="a" unicode="a" horiz-adv-x="481" 
d="M212 482c-44.667 0 -82.167 -10.001 -112.5 -30.001s-45.5 -44 -45.5 -72c0 -17.333 4 -31 12 -41s19 -15 33 -15c14.667 0 26.167 5 34.5 15s12.5 21.333 12.5 34s-4.33301 22.834 -13 30.501s-18.334 11.834 -29.001 12.501l-2 2c14 10.667 31 19.334 51 26.001
s40.333 10 61 10c34.667 0 60.334 -8 77.001 -24s25 -39 25 -69v-71c-8 -2 -18 -4.33301 -30 -7c-35.333 -8.66699 -66.166 -17.167 -92.499 -25.5s-52.333 -19 -78 -32s-46.667 -29.5 -63 -49.5s-24.5 -43.667 -24.5 -71c0 -36.667 13.5 -65.334 40.5 -86.001
s58.5 -31 94.5 -31c34.667 0 65.167 9.16699 91.5 27.5s46.833 41.833 61.5 70.5h2c2 -57.333 25.333 -86 70 -86c30 0 51.167 9.66699 63.5 29s18.5 47 18.5 83h-28c0 -28.667 -2.66699 -48.834 -8 -60.501s-13 -17.5 -23 -17.5c-8.66699 0 -15.334 2.5 -20.001 7.5
s-7 14.5 -7 28.5v266c0 52.667 -14.167 90.167 -42.5 112.5s-71.5 33.5 -129.5 33.5zM316 191.999c0 -22.667 -3.33203 -44.333 -9.99902 -65s-16 -38.834 -28 -54.501s-26 -28 -42 -37s-32.667 -13.5 -50 -13.5c-21.333 0 -40.333 7.16699 -57 21.5s-25 32.5 -25 54.5
c0 28 6.33301 51.667 19 71s29.167 35 49.5 47s41.666 21.333 63.999 28s48.833 13.334 79.5 20.001v-72z" />
    <glyph glyph-name="b" unicode="b" horiz-adv-x="537" 
d="M421 235c0 -74 -13.001 -129.001 -39.001 -165.001s-60 -54 -102 -54c-44 0 -76.667 15 -98 45s-32 81.333 -32 154c0 42.667 3.5 79.5 10.5 110.5s16.667 55.833 29 74.5s26.5 32.334 42.5 41.001s33 13 51 13c40.667 0 73.834 -18 99.501 -54s38.5 -91 38.5 -165z
M103.999 -0.000976562c2.66699 9.33301 6.66797 18 12.001 26s12 12 20 12c6 0 17 -5 33 -15c17.333 -10.667 34 -19.167 50 -25.5s35 -9.5 57 -9.5c33.333 0 63.333 6.83301 90 20.5s49.5 32.167 68.5 55.5s33.5 49.833 43.5 79.5s15 60.167 15 91.5
s-4.83301 61.833 -14.5 91.5s-23.5 56.167 -41.5 79.5s-39.333 41.833 -64 55.5s-51.667 20.5 -81 20.5c-32.667 0 -60.834 -8.66699 -84.501 -26s-42.167 -39 -55.5 -65h-2v297l-147 -4v-28c30.667 0 51.5 -2.83301 62.5 -8.5s16.5 -16.167 16.5 -31.5v-616h22z" />
    <glyph glyph-name="c" unicode="c" horiz-adv-x="481" 
d="M425 121c-16 -32.667 -36.9971 -58.332 -62.9971 -76.999s-56.667 -28 -92 -28c-46.667 0 -83.334 19 -110.001 57s-40 91.667 -40 161c0 70.667 13.667 125 41 163s62.333 57 105 57c27.333 0 50.166 -4.33301 68.499 -13s35.833 -24.334 52.5 -47.001
c-14.667 -0.666992 -26.5 -4.5 -35.5 -11.5s-13.5 -17.833 -13.5 -32.5c0 -12 4 -22.333 12 -31s17.667 -13 29 -13c16 0 28.5 4.33301 37.5 13s13.5 22.334 13.5 41.001c0 16 -4.5 31.5 -13.5 46.5s-21.333 28.167 -37 39.5s-33.834 20.166 -54.501 26.499s-42 9.5 -64 9.5
c-32.667 0 -62.5 -6.83301 -89.5 -20.5s-50 -32.167 -69 -55.5s-33.5 -49.833 -43.5 -79.5s-15 -60.167 -15 -91.5s5 -61.833 15 -91.5s24.5 -56.167 43.5 -79.5s42 -41.833 69 -55.5s56.833 -20.5 89.5 -20.5c45.333 0 83 9 113 27s54.333 46.333 73 85z" />
    <glyph glyph-name="d" unicode="d" horiz-adv-x="556" 
d="M462 688l-147 -3.99902v-28c30.667 0 51.5 -2.83301 62.5 -8.5s16.5 -16.167 16.5 -31.5v-220h-4c-7.33301 22 -25 41.833 -53 59.5s-60 26.5 -96 26.5c-29.333 0 -56.333 -6.83301 -81 -20.5s-46 -32.167 -64 -55.5s-31.833 -49.833 -41.5 -79.5
s-14.5 -60.167 -14.5 -91.5s4.83301 -61.833 14.5 -91.5s23.667 -56.167 42 -79.5s40.333 -41.833 66 -55.5s53.834 -20.5 84.501 -20.5c32.667 0 60.5 8.16699 83.5 24.5s43.167 39.166 60.5 68.499l2 -3v-84l144 6v28c-28.667 0 -48.334 2.83301 -59.001 8.5
s-16 16.167 -16 31.5v620zM112 235.001c0 74 13.001 129.001 39.001 165.001s59 54 99 54c47.333 0 83.166 -17.833 107.499 -53.5s36.5 -90.834 36.5 -165.501c0 -32 -2.33301 -61.167 -7 -87.5s-12.5 -49.333 -23.5 -69s-25.833 -35 -44.5 -46s-41.667 -16.5 -69 -16.5
c-40 0 -73 18 -99 54s-39 91 -39 165z" />
    <glyph glyph-name="e" unicode="e" horiz-adv-x="500" 
d="M456 246c0 30 -4.3291 58.998 -12.9961 86.998s-21.5 53.333 -38.5 76s-37.667 40.5 -62 53.5s-51.5 19.5 -81.5 19.5c-66.667 0 -119.5 -22.667 -158.5 -68s-58.5 -105 -58.5 -179c0 -31.333 5.16699 -61.833 15.5 -91.5s25.166 -56.167 44.499 -79.5
s42.666 -41.833 69.999 -55.5s57.666 -20.5 90.999 -20.5c44 0 79.667 7.33301 107 22s55.333 43.334 84 86.001l-24 16c-22.667 -33.333 -44.834 -57.666 -66.501 -72.999s-52.5 -23 -92.5 -23c-48 0 -85.5 19 -112.5 57s-40.5 86 -40.5 144v29h336zM120.004 273.998
c0 22.667 2.66699 44.6699 8 66.0029s13.5 40.666 24.5 57.999s25 31 42 41s36.5 15 58.5 15c24 0 44.5 -5.16699 61.5 -15.5s30.167 -24.333 39.5 -42s16 -36.834 20 -57.501s6 -42.334 6 -65.001h-260z" />
    <glyph glyph-name="f" unicode="f" horiz-adv-x="315" 
d="M178 470l-0.000976562 104c0 24.667 6.33301 45.167 19 61.5s32.334 24.5 59.001 24.5c14.667 0 27 -2 37 -6v-2c-8 -0.666992 -14.667 -4.5 -20 -11.5s-8 -15.167 -8 -24.5c0 -13.333 4.5 -24 13.5 -32s20.167 -12 33.5 -12c12.667 0 23.334 4.33301 32.001 13
s13 18.667 13 30c0 18.667 -7.66699 35.5 -23 50.5s-35.666 22.5 -60.999 22.5c-55.333 0 -96.333 -13.167 -123 -39.5s-40 -64.5 -40 -114.5v-64h-80v-28h80v-374c0 -15.333 -6.33301 -25.833 -19 -31.5s-38.334 -8.5 -77.001 -8.5v-28h260v28
c-38.667 0 -64.334 2.83301 -77.001 8.5s-19 16.167 -19 31.5v374h118v28h-118z" />
    <glyph glyph-name="g" unicode="g" horiz-adv-x="500" 
d="M420 323c0 25.333 -3.66992 45.8262 -11.0029 61.4932s-19.333 31.834 -36 48.501c-2 2 -4.33301 4 -7 6c-8 6.66699 -12 13.334 -12 20.001c0 12.667 3.16699 24.667 9.5 36s15.5 17 27.5 17c-3.33301 -6 -5 -13.667 -5 -23c0 -8.66699 3.66699 -17 11 -25
s16 -12 26 -12c10.667 0 19.834 3.66699 27.501 11s11.5 17 11.5 29c0 14.667 -5.83301 26.334 -17.5 35.001s-24.834 13 -39.501 13c-24.667 0 -43 -6.5 -55 -19.5s-20.667 -31.167 -26 -54.5c-14 6 -28 10.167 -42 12.5s-30.667 3.5 -50 3.5
c-47.333 0 -87.166 -14.667 -119.499 -44s-48.5 -65.666 -48.5 -108.999c0 -54.667 26 -101 78 -139c-20 -6.66699 -36.667 -15.5 -50 -26.5s-20 -24.833 -20 -41.5c0 -18 6.33301 -31.5 19 -40.5s29.334 -16.5 50.001 -22.5v-2v1c-14 -2 -28.667 -5.83301 -44 -11.5
s-29.666 -13 -42.999 -22s-24 -20 -32 -33s-12 -27.167 -12 -42.5c0 -26 7 -47.833 21 -65.5s32.167 -31.167 54.5 -40.5s46 -15.833 71 -19.5s49.833 -5.5 74.5 -5.5c25.333 0 52.166 2.83301 80.499 8.5s55 14.667 80 27s45.333 28.666 61 48.999s23.5 44.5 23.5 72.5
c0 26.667 -8 48.834 -24 66.501s-36.667 30.834 -62 39.501s-51 14.5 -77 17.5s-52.333 4.5 -79 4.5c-13.333 0 -25.833 0.5 -37.5 1.5s-22.667 2.66699 -33 5s-18.833 5.83301 -25.5 10.5s-10 10.667 -10 18c0 8.66699 4.5 16.334 13.5 23.001s18.833 12.334 29.5 17.001
c20.667 -8.66699 41.667 -13 63 -13c50.667 0 94.334 14 131.001 42s55 66.667 55 116zM71.9971 -52.0068c0 34 15.668 58.667 47.001 74s75.666 23 132.999 23c56 0 97 -8.16699 123 -24.5s39 -38.5 39 -66.5c0 -33.333 -16.5 -59.666 -49.5 -78.999
s-79.167 -29 -138.5 -29c-45.333 0 -82.333 9.16699 -111 27.5s-43 43.166 -43 74.499zM239.998 192.993c-38.667 0 -65.668 12.5 -81.001 37.5s-23 58.5 -23 100.5c0 34.667 8.5 63.834 25.5 87.501s42.833 35.5 77.5 35.5c35.333 0 62.333 -10.333 81 -31
s28 -53.334 28 -98.001c0 -42 -8.16699 -74.5 -24.5 -97.5s-44.166 -34.5 -83.499 -34.5z" />
    <glyph glyph-name="h" unicode="h" horiz-adv-x="556" 
d="M544 0l-0.000976562 28c-32 0 -53 2.83301 -63 8.5s-15 16.167 -15 31.5v266c0 50.667 -12.5 88 -37.5 112s-60.5 36 -106.5 36c-38 0 -69 -7.5 -93 -22.5s-45 -38.833 -63 -71.5h-2v300l-147 -4v-28c30.667 0 51.5 -2.83301 62.5 -8.5s16.5 -16.167 16.5 -31.5v-548
c0 -15.333 -5.66699 -25.833 -17 -31.5s-34 -8.5 -68 -8.5v-28h233v28c-31.333 0 -52.5 2.83301 -63.5 8.5s-16.5 16.167 -16.5 31.5v178c0 64 13.5 114.667 40.5 152s60.833 56 101.5 56c22 0 39.333 -4 52 -12s21.834 -18.5 27.501 -31.5s9.16699 -26 10.5 -39
s2 -28.833 2 -47.5v-324h146z" />
    <glyph glyph-name="i" unicode="i" horiz-adv-x="259" 
d="M247 28c-32 0 -53.667 2.83301 -65 8.5s-17 16.167 -17 31.5v408l-147 -6v-28c30.667 0 51.5 -2.83301 62.5 -8.5s16.5 -16.167 16.5 -31.5v-334c0 -15.333 -5.83301 -25.833 -17.5 -31.5s-34.5 -8.5 -68.5 -8.5v-28h236v28zM123 682
c-13.333 0 -24.666 -4.83301 -33.999 -14.5s-14 -21.167 -14 -34.5s4.66699 -24.5 14 -33.5s20.666 -13.5 33.999 -13.5s24.666 4.5 33.999 13.5s14 20.167 14 33.5c0 14 -4.66699 25.667 -14 35s-20.666 14 -33.999 14z" />
    <glyph glyph-name="j" unicode="j" horiz-adv-x="259" 
d="M110 -15c0 -50.667 -4.16895 -86.498 -12.502 -107.498s-27.5 -31.5 -57.5 -31.5c-10.667 0 -17.667 0.166992 -21 0.5s-5.33301 1.5 -6 3.5c8.66699 11.333 13 22.333 13 33c0 14 -3.66699 25.833 -11 35.5s-18 14.5 -32 14.5c-13.333 0 -24.833 -4.5 -34.5 -13.5
s-14.5 -19.833 -14.5 -32.5c0 -22.667 9.66699 -39.834 29 -51.501s41 -17.5 65 -17.5c16.667 0 33.834 2.66699 51.501 8s33.834 13.5 48.501 24.5s26.667 25.167 36 42.5s14 37.666 14 60.999v522l-147 -6v-28c30.667 0 51.5 -2.83301 62.5 -8.5s16.5 -16.167 16.5 -31.5
v-417zM135.998 682.002c-13.333 0 -24.666 -4.83301 -33.999 -14.5s-14 -21.167 -14 -34.5s4.66699 -24.5 14 -33.5s20.666 -13.5 33.999 -13.5s24.666 4.5 33.999 13.5s14 20.167 14 33.5c0 14 -4.66699 25.667 -14 35s-20.666 14 -33.999 14z" />
    <glyph glyph-name="k" unicode="k" 
d="M280 470l0.000976562 -28.002c29.333 0 49.333 -1.33301 60 -4s16 -8 16 -16c0 -7.33301 -2.5 -14.333 -7.5 -21s-12.833 -15 -23.5 -25l-154 -140v452l-147 -4v-28c30.667 0 51.5 -2.83301 62.5 -8.5s16.5 -16.167 16.5 -31.5v-548
c0 -15.333 -5.83301 -25.833 -17.5 -31.5s-34.5 -8.5 -68.5 -8.5v-28h236v28c-32 0 -53.667 2.83301 -65 8.5s-17 16.167 -17 31.5v135l46 42l161 -245h123v28c-16 0 -28.333 0.5 -37 1.5s-16.334 3.5 -23.001 7.5s-13.5 10 -20.5 18s-15.5 19.667 -25.5 35l-129 198l80 78
c20 18.667 37.833 33.334 53.5 44.001s30.667 18.334 45 23.001s30.833 7.66699 49.5 9v28h-214z" />
    <glyph glyph-name="l" unicode="l" horiz-adv-x="259" 
d="M165 688l-147 -4v-28c30.667 0 51.5 -2.83301 62.5 -8.5s16.5 -16.167 16.5 -31.5v-548c0 -15.333 -5.83301 -25.833 -17.5 -31.5s-34.5 -8.5 -68.5 -8.5v-28h236v28c-32 0 -53.667 2.83301 -65 8.5s-17 16.167 -17 31.5v620z" />
    <glyph glyph-name="m" unicode="m" horiz-adv-x="815" 
d="M657 0h150.001v28c-32 0 -53.667 2.83301 -65 8.5s-17 16.167 -17 31.5v268c0 44.667 -13 80.167 -39 106.5s-62.333 39.5 -109 39.5c-26.667 0 -52.5 -7.16699 -77.5 -21.5s-45.5 -37.5 -61.5 -69.5c-10.667 28 -28.334 50.167 -53.001 66.5s-55 24.5 -91 24.5
c-29.333 0 -53.833 -6 -73.5 -18s-39.167 -31 -58.5 -57h-2v69l-146 -6v-28c30.667 0 51.5 -2.83301 62.5 -8.5s16.5 -16.167 16.5 -31.5v-334c0 -15.333 -5.66699 -25.833 -17 -31.5s-34 -8.5 -68 -8.5v-28h233v28c-31.333 0 -52.5 2.83301 -63.5 8.5
s-16.5 16.167 -16.5 31.5v248c0 17.333 3.16699 34.333 9.5 51s15.333 31.5 27 44.5s25.167 23.333 40.5 31s31.333 11.5 48 11.5c29.333 0 51.5 -10.833 66.5 -32.5s22.5 -52.167 22.5 -91.5v-330h150v28c-32 0 -53.667 2.83301 -65 8.5s-17 16.167 -17 31.5v248
c0 17.333 3.16699 34.333 9.5 51s15.333 31.5 27 44.5s25.167 23.333 40.5 31s31.333 11.5 48 11.5c29.333 0 51.5 -10.833 66.5 -32.5s22.5 -52.167 22.5 -91.5v-330z" />
    <glyph glyph-name="n" unicode="n" horiz-adv-x="556" 
d="M544 0l-0.000976562 28.002c-32 0 -53 2.83301 -63 8.5s-15 16.167 -15 31.5v276c0 43.333 -13.333 77.166 -40 101.499s-62 36.5 -106 36.5c-36 0 -65.5 -7.5 -88.5 -22.5s-44.833 -38.833 -65.5 -71.5h-2v88l-147 -6v-28c30.667 0 51.5 -2.83301 62.5 -8.5
s16.5 -16.167 16.5 -31.5v-334c0 -15.333 -5.66699 -25.833 -17 -31.5s-34 -8.5 -68 -8.5v-28h233v28c-31.333 0 -52.5 2.83301 -63.5 8.5s-16.5 16.167 -16.5 31.5v209c0 18.667 3 38.167 9 58.5s14.833 39.666 26.5 57.999s25.834 33 42.501 44s35 16.5 55 16.5
c34.667 0 60.167 -9.5 76.5 -28.5s24.5 -46.167 24.5 -81.5v-344h146z" />
    <glyph glyph-name="o" unicode="o" 
d="M259 -12c33.333 0 63.333 6.83301 90 20.5s49.5 32.167 68.5 55.5s33.5 49.833 43.5 79.5s15 60.167 15 91.5s-5 61.833 -15 91.5s-24.5 56.167 -43.5 79.5s-41.833 41.833 -68.5 55.5s-56.667 20.5 -90 20.5c-32.667 0 -62.5 -6.83301 -89.5 -20.5
s-50 -32.167 -69 -55.5s-33.5 -49.833 -43.5 -79.5s-15 -60.167 -15 -91.5s5 -61.833 15 -91.5s24.5 -56.167 43.5 -79.5s42 -41.833 69 -55.5s56.833 -20.5 89.5 -20.5zM259 16c-48 0 -83.5 18.5 -106.5 55.5s-34.5 91.5 -34.5 163.5s11.5 126.5 34.5 163.5
s58.5 55.5 106.5 55.5s83.5 -18.5 106.5 -55.5s34.5 -91.5 34.5 -163.5s-11.5 -126.5 -34.5 -163.5s-58.5 -55.5 -106.5 -55.5z" />
    <glyph glyph-name="p" unicode="p" horiz-adv-x="556" 
d="M96 -102c0 -15.333 -5.83301 -25.833 -17.5 -31.5s-34.5 -8.5 -68.5 -8.5v-28h236v28c-32 0 -53.667 2.83301 -65 8.5s-17 16.167 -17 31.5v153h2c30 -42 73 -63 129 -63c33.333 0 63.333 6.83301 90 20.5s49.5 32.167 68.5 55.5s33.5 49.833 43.5 79.5
s15 60.167 15 91.5s-4.83301 61.833 -14.5 91.5s-23.5 56.167 -41.5 79.5s-39.333 41.833 -64 55.5s-51.667 20.5 -81 20.5c-36 0 -63 -6.66699 -81 -20s-36.667 -34 -56 -62c-5.33301 -8 -8.33301 -12.333 -9 -13h-2v89l-146 -6v-28c30.667 0 51.5 -2.83301 62.5 -8.5
s16.5 -16.167 16.5 -31.5v-504zM302 454c40.667 0 73.835 -18 99.502 -54s38.5 -91 38.5 -165s-12.833 -129 -38.5 -165s-58.834 -54 -99.501 -54c-26.667 0 -48.667 3.5 -66 10.5s-31.333 18.667 -42 35s-18.334 38.5 -23.001 66.5s-7 63.667 -7 107c0 74 13 129 39 165
s59 54 99 54z" />
    <glyph glyph-name="q" unicode="q" horiz-adv-x="537" 
d="M456 395c0 30.667 2.00098 55.6631 6.00098 74.9961h-29c-1.33301 -2.66699 -3 -7 -5 -13c-4 -10 -7.66699 -17.667 -11 -23s-8 -8 -14 -8c-3.33301 0 -12 4.33301 -26 13c-19.333 12.667 -38.5 23 -57.5 31s-40.5 12 -64.5 12c-31.333 0 -60 -6.66699 -86 -20
s-48.333 -31.666 -67 -54.999s-33 -49.666 -43 -78.999s-15 -59.333 -15 -90c0 -32.667 4.66699 -64.167 14 -94.5s22.666 -57.166 39.999 -80.499s37.333 -41.666 60 -54.999s47 -20 73 -20c37.333 0 67.833 6.33301 91.5 19s44.5 34 62.5 64h3v-1v-172
c0 -15.333 -5.83301 -25.833 -17.5 -31.5s-34.5 -8.5 -68.5 -8.5v-28h236v28c-32 0 -53.667 2.83301 -65 8.5s-17 16.167 -17 31.5v497zM255.001 453.996c28.667 0 52.1689 -5.66699 70.502 -17s32.166 -26.666 41.499 -45.999s15.666 -40.333 18.999 -63s5 -48 5 -76
c0 -60 -4.33301 -104.667 -13 -134c-8.66699 -30.667 -25.167 -55.334 -49.5 -74.001s-51.833 -28 -82.5 -28c-14 0 -28.5 3.66699 -43.5 11s-29 19.333 -42 36s-23.667 39 -32 67s-12.5 61.333 -12.5 100c0 30 2.83301 58.5 8.5 85.5s14.167 50.5 25.5 70.5
c25.333 45.333 60.333 68 105 68z" />
    <glyph glyph-name="r" unicode="r" horiz-adv-x="389" 
d="M100 68c0 -15.333 -5.50098 -25.833 -16.501 -31.5s-32.167 -8.5 -63.5 -8.5v-28h238v28c-37.333 0 -61.666 3.83301 -72.999 11.5s-17 23.834 -17 48.501c0 48 0.833008 90 2.5 126s5.5 67.667 11.5 95s14 50.5 24 69.5s20.5 34 31.5 45s21.5 18.833 31.5 23.5
s18.667 7 26 7s12.333 -1.66699 15 -5c-16 -8 -24 -21.333 -24 -40c0 -30 15.333 -45 46 -45c14 0 25.167 4.5 33.5 13.5s12.5 20.833 12.5 35.5c0 21.333 -7.5 38.166 -22.5 50.499s-33.167 18.5 -54.5 18.5c-32 0 -60 -13.667 -84 -41c-10 -11.333 -18.667 -24 -26 -38
s-14.333 -29.667 -21 -47h-2v120l-147 -6v-28c30.667 0 51.5 -2.83301 62.5 -8.5s16.5 -16.167 16.5 -31.5v-334z" />
    <glyph glyph-name="s" unicode="s" horiz-adv-x="426" 
d="M69 0c0 0.666992 0.336914 1.33008 1.00391 1.99707c3.33301 8 6.5 14.333 9.5 19s7.16699 7 12.5 7c3.33301 0 10.666 -3.33301 21.999 -10c14.667 -9.33301 28.667 -16.666 42 -21.999s29.333 -8 48 -8c54 0 97 13 129 39s48 59 48 99c0 24 -4.33301 44.333 -13 61
s-20.167 30.167 -34.5 40.5s-29.333 18.5 -45 24.5s-35.834 12.667 -60.501 20c-40 12 -69.5 24.167 -88.5 36.5s-28.5 31.5 -28.5 57.5c0 28 8.66699 49.667 26 65s39.666 23 66.999 23c36 0 64 -12.5 84 -37.5s33.333 -56.5 40 -94.5h25v148h-28
c-1.33301 -5.33301 -3.33301 -9.66602 -6 -12.999s-6.66699 -5 -12 -5c-3.33301 0 -9.66602 2.33301 -18.999 7c-13.333 7.33301 -27 13 -41 17s-31.667 6 -53 6c-18.667 0 -36.834 -3.5 -54.501 -10.5s-33.334 -16.5 -47.001 -28.5s-24.334 -25.833 -32.001 -41.5
s-11.5 -32.167 -11.5 -49.5c0 -20.667 4.16699 -38.5 12.5 -53.5s19.333 -27.167 33 -36.5s28.334 -17 44.001 -23s35.5 -12.667 59.5 -20c40.667 -12.667 71 -25.167 91 -37.5s30 -31.5 30 -57.5c0 -38 -9.66699 -65.5 -29 -82.5s-47.333 -25.5 -84 -25.5
c-34 0 -63.667 14.833 -89 44.5s-40 64.834 -44 105.501h-28v-166h24z" />
    <glyph glyph-name="t" unicode="t" horiz-adv-x="352" 
d="M156 482l0.000976562 150.001h-28c-1.33301 -18.667 -4.33301 -36.667 -9 -54s-11.334 -33.333 -20.001 -48s-20 -26.334 -34 -35.001s-31 -13 -51 -13v-28h74v-350c0 -38 10 -66.833 30 -86.5s48.333 -29.5 85 -29.5c39.333 0 69 12.167 89 36.5s30 57.5 30 99.5v36h-28
v-43c0 -35.333 -7.5 -61 -22.5 -77s-31.833 -24 -50.5 -24c-19.333 0 -35 6.5 -47 19.5s-18 34.167 -18 63.5v355h150v28h-150z" />
    <glyph glyph-name="u" unicode="u" horiz-adv-x="556" 
d="M465 476l-147 -6.00195v-28c30.667 0 51.5 -2.83301 62.5 -8.5s16.5 -16.167 16.5 -31.5v-206c0 -55.333 -12.667 -99.166 -38 -131.499s-59.333 -48.5 -102 -48.5c-30 0 -53.167 8.33301 -69.5 25s-24.5 40.667 -24.5 72v363l-147 -6v-28
c30.667 0 51.5 -2.83301 62.5 -8.5s16.5 -16.167 16.5 -31.5v-282c0 -47.333 13.333 -81.166 40 -101.499s63.334 -30.5 110.001 -30.5c36.667 0 66 6.5 88 19.5s42.667 33.167 62 60.5h2v-74l143 6v28c-28.667 0 -48.334 2.83301 -59.001 8.5s-16 16.167 -16 31.5v408z" />
    <glyph glyph-name="v" unicode="v" horiz-adv-x="481" 
d="M300 470l-0.000976562 -28.001c30 0 49.833 -2.16699 59.5 -6.5s14.5 -12.833 14.5 -25.5c0 -8 -3.66699 -22.167 -11 -42.5s-20.666 -55.5 -39.999 -105.5l-65 -168h-2c-21.333 62 -49.666 136 -84.999 222c-23.333 56 -35 88.333 -35 97c0 12 4.66699 19.833 14 23.5
s30 5.5 62 5.5v28h-218v-28c25.333 0 42.5 -3.16699 51.5 -9.5s18.5 -22.166 28.5 -47.499l152 -385h29l148 380c10.667 27.333 20.667 44.5 30 51.5s27.666 10.5 54.999 10.5v28h-188z" />
    <glyph glyph-name="w" unicode="w" horiz-adv-x="722" 
d="M0 470l-0.00390625 -28c22.667 0 38.834 -2 48.501 -6s16.834 -12.333 21.501 -25l139 -411h26l130 346h2l111 -346h25l152 402c6.66699 17.333 14.834 28.333 24.501 33s29.167 7 58.5 7v28h-188v-28c28.667 0 48.334 -1.83301 59.001 -5.5s16 -10.5 16 -20.5
c0 -4 -2 -12.5 -6 -25.5s-9 -27.833 -15 -44.5s-13 -35.167 -21 -55.5l-25 -64.5l-30 -77.5c-7.33301 -19 -12.333 -33.167 -15 -42.5h-2c-3.33301 12.667 -9.16602 31.334 -17.499 56.001l-29.5 86l-41.5 123c-8.33301 25.333 -12.5 41.666 -12.5 48.999
c0 9.33301 4.83301 15.333 14.5 18s29.5 4 59.5 4v28h-220v-28c30.667 0 51 -3 61 -9s19 -20.333 27 -43l-108 -285h-2c-2.66699 9.33301 -16 50.333 -40 123l-42.5 131l-12.5 41c-3.33301 11.333 -5 18 -5 20c0 8.66699 4.66699 14.5 14 17.5s26.666 4.5 51.999 4.5v28
h-208z" />
    <glyph glyph-name="x" unicode="x" horiz-adv-x="537" 
d="M525 0l0.000976562 28c-21.333 0 -37.166 2.66699 -47.499 8s-21.833 16.333 -34.5 33l-141 191l117 150c11.333 14 23 22.833 35 26.5s32 5.5 60 5.5v28h-202v-28c25.333 0 43 -1.33301 53 -4s15 -8.66699 15 -18c0 -7.33301 -5.83301 -18.833 -17.5 -34.5
s-27.834 -36.167 -48.501 -61.5c-17.333 -21.333 -27.666 -34.666 -30.999 -39.999c-2.66699 4.66699 -12.334 17 -29.001 37c-21.333 26 -38.333 47.5 -51 64.5s-19 29.167 -19 36.5c0 8.66699 5 14.167 15 16.5s27 3.5 51 3.5v28h-218v-28c20 0 35 -2.5 45 -7.5
s19 -12.833 27 -23.5l135 -176l-139 -176c-8.66699 -10.667 -20.5 -18.5 -35.5 -23.5s-32.5 -7.5 -52.5 -7.5v-28h208v28c-32.667 0 -54.334 1.5 -65.001 4.5s-16 7.83301 -16 14.5c0 4 2.5 10.167 7.5 18.5s11.167 17.333 18.5 27l21.5 28l35.5 45.5
c20.667 25.333 32.667 40.666 36 45.999l40 -53l57.5 -79c12.333 -17.333 18.5 -28.333 18.5 -33c0 -6.66699 -4.83301 -11.5 -14.5 -14.5s-29.167 -4.5 -58.5 -4.5v-28h224z" />
    <glyph glyph-name="y" unicode="y" horiz-adv-x="500" 
d="M-2 442c21.333 0 38.0029 -2.66699 50.0029 -8s21 -15.333 27 -30l156 -392c-12.667 -48.667 -29.334 -86.5 -50.001 -113.5s-45 -40.5 -73 -40.5c-26.667 0 -44 6 -52 18c31.333 2 47 18.333 47 49c0 10.667 -4.33301 19.834 -13 27.501s-19 11.5 -31 11.5
c-14 0 -26 -5.16699 -36 -15.5s-15 -23.166 -15 -38.499c0 -22 9.33301 -40.833 28 -56.5s41 -23.5 67 -23.5c19.333 0 36 3 50 9s27 15.833 39 29.5s23.667 31.5 35 53.5s24.333 51.333 39 88l150 375c9.33301 23.333 19.666 38.666 30.999 45.999s29.666 11 54.999 11v28
h-190v-28c28.667 0 48.167 -2.33301 58.5 -7s15.5 -13 15.5 -25c0 -10.667 -4.66699 -28.334 -14 -53.001s-24.333 -62.334 -45 -113.001l-59 -147h-2l-46 112l-60.5 150.5c-11.667 30.333 -17.5 49.833 -17.5 58.5s5 14.834 15 18.501s32 5.5 66 5.5v28h-225v-28z" />
    <glyph glyph-name="z" unicode="z" horiz-adv-x="444" 
d="M66 322c2.66699 42 14.833 72.5 36.5 91.5s53.5 28.5 95.5 28.5h128l-304 -408v-34h384v173h-28c-0.666992 -46 -16.667 -81.667 -48 -107s-76 -38 -134 -38h-102l304 408v34h-360v-148h28z" />
    <glyph glyph-name="braceleft" unicode="{" horiz-adv-x="296" 
d="M252 -154l-18 0.000976562c-17.333 0 -31.5 9.66699 -42.5 29s-16.5 49.666 -16.5 90.999v161c0 39.333 -5.66699 68.833 -17 88.5s-34.666 33.834 -69.999 42.501v2c35.333 8.66699 58.666 22.834 69.999 42.501s17 49.167 17 88.5v161c0 41.333 5.5 71.666 16.5 90.999
s25.167 29 42.5 29h18v28h-22c-16.667 0 -32.167 -4.16699 -46.5 -12.5s-26.833 -19.5 -37.5 -33.5s-18.834 -29.333 -24.501 -46s-8.5 -33.334 -8.5 -50.001v-183c0 -34 -4.83301 -59.667 -14.5 -77s-28.167 -30.333 -55.5 -39c27.333 -8.66699 45.833 -21.667 55.5 -39
s14.5 -43 14.5 -77v-183c0 -16.667 2.83301 -33.5 8.5 -50.5s13.667 -32.333 24 -46s22.833 -24.667 37.5 -33s30.334 -12.5 47.001 -12.5h22v28z" />
    <glyph glyph-name="bar" unicode="|" horiz-adv-x="222" 
d="M86 0h50v688h-50v-688z" />
    <glyph glyph-name="braceright" unicode="}" horiz-adv-x="296" 
d="M44 -182l22 -0.000976562c16.667 0 32.167 4.16699 46.5 12.5s26.833 19.5 37.5 33.5s18.834 29.333 24.501 46s8.5 33.334 8.5 50.001v183c0 34 4.83301 59.667 14.5 77s28.167 30.333 55.5 39c-27.333 8.66699 -45.833 21.667 -55.5 39s-14.5 43 -14.5 77v183
c0 16.667 -2.83301 33.5 -8.5 50.5s-13.667 32.333 -24 46s-22.833 24.667 -37.5 33s-30.334 12.5 -47.001 12.5h-22v-28h18c17.333 0 31.5 -9.66699 42.5 -29s16.5 -49.666 16.5 -90.999v-161c0 -39.333 5.66699 -68.833 17 -88.5s34.666 -33.834 69.999 -42.501v-2
c-35.333 -8.66699 -58.666 -22.834 -69.999 -42.501s-17 -49.167 -17 -88.5v-161c0 -41.333 -5.5 -71.666 -16.5 -90.999s-25.167 -29 -42.5 -29h-18v-28z" />
    <glyph glyph-name="asciitilde" unicode="~" horiz-adv-x="600" 
d="M495 296c-15.333 -23.333 -29.334 -41.165 -42.001 -53.498s-28 -18.5 -46 -18.5c-10.667 0 -23 2.66699 -37 8s-33 13.333 -57 24l-8 4c-24 11.333 -44.667 20.166 -62 26.499s-33.666 9.5 -48.999 9.5c-30 0 -54.833 -8.16699 -74.5 -24.5s-36.5 -36.833 -50.5 -61.5
l36 -36c11.333 21.333 23.333 38.666 36 51.999s28.667 20 48 20c18.667 0 36 -3 52 -9s35.333 -15 58 -27c21.333 -12 40 -21 56 -27s33 -9 51 -9c27.333 0 50 7.33301 68 22s37 36 57 64z" />
    <glyph glyph-name="exclamdown" unicode="&#xa1;" horiz-adv-x="241" 
d="M108 316l-8 -98c-6 -78.667 -10.667 -144.667 -14 -198s-5 -103.333 -5 -150c0 -20 3 -33.667 9 -41s16.333 -11 31 -11s25 3.66699 31 11s9 21 9 41c0 46.667 -1.66699 96.667 -5 150s-8 119.333 -14 198l-8 98h-26zM171 464c0 14.667 -4.66699 26.667 -14 36
s-21.333 14 -36 14c-14 0 -25.833 -5 -35.5 -15s-14.5 -21.667 -14.5 -35s5 -25 15 -35s21.667 -15 35 -15s25 5 35 15s15 21.667 15 35z" />
    <glyph glyph-name="cent" unicode="&#xa2;" 
d="M288 548c23.333 0 45.501 -5.00098 66.501 -15.001s35.833 -24.333 44.5 -43c-16.667 0 -28.667 -3.5 -36 -10.5s-11 -16.5 -11 -28.5c0 -11.333 3 -21 9 -29s15 -12 27 -12c14 0 24.833 5 32.5 15s11.5 23 11.5 39s-4.5 31 -13.5 45s-20.833 26 -35.5 36
s-30.334 17.667 -47.001 23s-32.667 8 -48 8v124h-30v-126c-26 -2 -50.333 -9.5 -73 -22.5s-42.334 -30 -59.001 -51s-29.5 -44.667 -38.5 -71s-13.5 -53.166 -13.5 -80.499c0 -26 4.5 -52.167 13.5 -78.5s21.833 -50 38.5 -71s36.334 -38 59.001 -51s47 -20.167 73 -21.5
v-139h30v138c70.667 0 122.667 32.667 156 98l-28 13c-12 -25.333 -29.333 -45.5 -52 -60.5s-48 -22.5 -76 -22.5v394zM258.001 156.999c-20 4 -37.3311 12.165 -51.998 24.498s-26.334 27.333 -35.001 45s-15 36.334 -19 56.001s-6 39.5 -6 59.5c0 22 1.66699 43.667 5 65
s9.16602 41.333 17.499 60s19.833 34.834 34.5 48.501s33 23.167 55 28.5v-387z" />
    <glyph glyph-name="sterling" unicode="&#xa3;" 
d="M267 296c19.333 -16.667 34.1641 -34.498 44.4971 -53.498s15.5 -40.5 15.5 -64.5c0 -20 -5 -38.667 -15 -56s-23.333 -34 -40 -50c-33.333 31.333 -62.333 53.833 -87 67.5s-52 20.5 -82 20.5c-24.667 0 -45.167 -6.83301 -61.5 -20.5s-24.5 -32.834 -24.5 -57.501
c0 -28.667 10.333 -51.5 31 -68.5s49.334 -25.5 86.001 -25.5c27.333 0 51.833 3.33301 73.5 10s44.167 16.667 67.5 30c16 -10 30.333 -17.167 43 -21.5s27.667 -6.5 45 -6.5c32 0 58.667 8.16699 80 24.5s41 39.833 59 70.5l-23 15c-18 -24.667 -34.833 -43.5 -50.5 -56.5
s-35.167 -19.5 -58.5 -19.5c-11.333 0 -22.833 1.66699 -34.5 5s-21.167 8 -28.5 14c22.667 17.333 42 39 58 65s24 52 24 78c0 17.333 -3.5 34.333 -10.5 51s-16.833 33 -29.5 49h133v34h-153c-42.667 34 -74.167 59.833 -94.5 77.5s-36.333 33.5 -48 47.5
s-19.5 27.833 -23.5 41.5s-6 30.167 -6 49.5c0 31.333 9.83301 58.166 29.5 80.499s47.167 33.5 82.5 33.5c18.667 0 35.834 -3.5 51.501 -10.5s26.167 -17.833 31.5 -32.5c-10 -0.666992 -18.5 -5.16699 -25.5 -13.5s-10.5 -17.833 -10.5 -28.5
c0 -11.333 4 -20.833 12 -28.5s17.667 -11.5 29 -11.5c13.333 0 23.833 4 31.5 12s11.5 20.333 11.5 37c0 28 -12.333 52.333 -37 73s-55 31 -91 31c-52 0 -93.833 -16.167 -125.5 -48.5s-47.5 -71.5 -47.5 -117.5c0 -36 12.333 -69.833 37 -101.5
s55.334 -61.167 92.001 -88.5v-2h-169v-34h208zM70.998 71.002c0 13.333 5 23.5 15 30.5s22 10.5 36 10.5c20 0 40.333 -5.66699 61 -17s41 -26.333 61 -45c-13.333 -9.33301 -29.333 -16.333 -48 -21s-35 -7 -49 -7c-23.333 0 -41.833 5.33301 -55.5 16
s-20.5 21.667 -20.5 33z" />
    <glyph glyph-name="currency" unicode="&#xa4;" 
d="M24 144l36 -33.999l50 53c21.333 -18.667 44.666 -32.167 69.999 -40.5s52.333 -12.5 81 -12.5c56 0 105 17.667 147 53l50 -53l36 34l-50 53c33.333 42 50 91 50 147c0 27.333 -4.16699 53.666 -12.5 78.999s-21.166 48 -38.499 68l51 51l-36 36l-53 -52
c-41.333 34.667 -89 52 -143 52c-26.667 0 -53 -4.33301 -79 -13s-49.333 -21.667 -70 -39l-53 52l-36 -36l53 -54c-18.667 -19.333 -32.167 -41.5 -40.5 -66.5s-12.5 -51.5 -12.5 -79.5c0 -53.333 17 -101.333 51 -144zM76 342.001
c0 25.333 4.66406 49.5029 13.9971 72.5029s22.5 43.167 39.5 60.5s37 30.833 60 40.5s47.167 14.5 72.5 14.5c24.667 0 47.834 -4.83301 69.501 -14.5s40.834 -23.167 57.501 -40.5s29.667 -37.333 39 -60s14 -46.334 14 -71.001s-4.5 -48.334 -13.5 -71.001
s-21.833 -42.667 -38.5 -60s-36.167 -30.833 -58.5 -40.5s-45.833 -14.5 -70.5 -14.5c-25.333 0 -49.166 4.66699 -71.499 14s-42 22.5 -59 39.5s-30.333 36.667 -40 59s-14.5 46.166 -14.5 71.499z" />
    <glyph glyph-name="yen" unicode="&#xa5;" 
d="M249 224l-0.00488281 -126.999c0 -16.667 -1.16699 -29.5 -3.5 -38.5s-7.16602 -15.667 -14.499 -20s-17.666 -7.16602 -30.999 -8.49902s-33.333 -2 -60 -2v-28h286v28c-24.667 0 -43.167 0.666992 -55.5 2s-21.833 4.16602 -28.5 8.49902s-11.167 11 -13.5 20
s-3.5 21.833 -3.5 38.5v127h175v34h-175v32l30 58h145v34h-127l129 248c4.66699 9.33301 13.334 16.666 26.001 21.999s29.334 8 50.001 8v28h-194v-28c25.333 0 43.5 -2.66699 54.5 -8s16.5 -13.333 16.5 -24c0 -16 -5 -33 -15 -51l-133 -256l-132 262
c-4.66699 9.33301 -8.33398 17.833 -11.001 25.5s-4 13.834 -4 18.501c0 14 5.5 23 16.5 27s35.833 6 74.5 6v28h-251v-28c22.667 0 38.834 -1.83301 48.501 -5.5s16.834 -9.83398 21.501 -18.501l131 -254h-129v-34h147l30 -58v-32h-177v-34h177z" />
    <glyph glyph-name="brokenbar" unicode="&#xa6;" horiz-adv-x="222" 
d="M86 0h50v256h-50v-256zM86 418h50v256h-50v-256z" />
    <glyph glyph-name="section" unicode="&#xa7;" horiz-adv-x="500" 
d="M431 254c0 21.333 -4.66602 41.8301 -13.999 61.4971s-21.5 38.167 -36.5 55.5s-30.833 33.166 -47.5 47.499s-38 31.5 -64 51.5c-38 30 -66 54.333 -84 73s-27 37.334 -27 56.001c0 26.667 8.33301 47.167 25 61.5s40 21.5 70 21.5c20 0 36.333 -3.66699 49 -11
s19 -15 19 -23c0 -5.33301 -4 -11 -12 -17c-6.66699 -5.33301 -11.834 -10.666 -15.501 -15.999s-5.5 -13 -5.5 -23c0 -11.333 4.33301 -21.166 13 -29.499s19 -12.5 31 -12.5c14 0 25.5 4.83301 34.5 14.5s13.5 21.5 13.5 35.5c0 26.667 -12.333 50 -37 70
s-54.667 30 -90 30c-38.667 0 -72.167 -11.5 -100.5 -34.5s-42.5 -53.167 -42.5 -90.5c0 -23.333 10 -49.666 30 -78.999s44 -52 72 -68l-2 -2h-8c-4 0.666992 -6.66699 1 -8 1c-36.667 0 -66.667 -11.833 -90 -35.5s-35 -55.167 -35 -94.5
c0 -30.667 12.167 -59.334 36.5 -86.001s59.833 -58 106.5 -94c43.333 -32.667 75.833 -60.5 97.5 -83.5s32.5 -47.167 32.5 -72.5c0 -24 -10.167 -42.5 -30.5 -55.5s-42.833 -19.5 -67.5 -19.5c-16.667 0 -32.5 3.16699 -47.5 9.5s-23.5 14.166 -25.5 23.499
c0 2.66699 3.33301 7 10 13s12 12 16 18s6 14.333 6 25c0 12.667 -4.5 22.834 -13.5 30.501s-19.5 11.5 -31.5 11.5c-12.667 0 -23.667 -5 -33 -15s-14 -21.333 -14 -34c0 -30.667 13.167 -55 39.5 -73s59.833 -27 100.5 -27c42 0 75.667 11.333 101 34s38 52.334 38 89.001
c0 28 -7.33301 52 -22 72s-36 42.667 -64 68c-2.66699 2 -6.66699 5.33301 -12 10l2 2c4.66699 -0.666992 13 -1 25 -1c32 0 58.667 10.167 80 30.5s32 47.5 32 81.5zM383.001 238.997c0 -23.333 -7.33203 -42.3311 -21.999 -56.998s-35.334 -22 -62.001 -22
c-13.333 0 -30.333 5.66699 -51 17s-41.167 25.833 -61.5 43.5s-37 36.334 -50 56.001s-19.5 37.5 -19.5 53.5c0 24 7 43 21 57s31.667 21 53 21c14 0 31.833 -5.33301 53.5 -16s43.167 -24.834 64.5 -42.501s39 -36.334 53 -56.001s21 -37.834 21 -54.501z" />
    <glyph glyph-name="dieresis" unicode="&#xa8;" horiz-adv-x="259" 
d="M34 548c11.333 0 20.833 3.83301 28.5 11.5s11.5 16.834 11.5 27.501c0 11.333 -3.83301 21 -11.5 29s-17.167 12 -28.5 12c-10.667 0 -20 -4 -28 -12s-12 -17.667 -12 -29c0 -10.667 3.83301 -19.834 11.5 -27.501s17.167 -11.5 28.5 -11.5zM226 548
c11.333 0 20.833 3.83301 28.5 11.5s11.5 16.834 11.5 27.501c0 11.333 -3.83301 21 -11.5 29s-17.167 12 -28.5 12c-10.667 0 -20 -4 -28 -12s-12 -17.667 -12 -29c0 -10.667 3.83301 -19.834 11.5 -27.501s17.167 -11.5 28.5 -11.5z" />
    <glyph glyph-name="copyright" unicode="&#xa9;" horiz-adv-x="800" 
d="M400 -12c48 0 93.498 9.16699 136.498 27.5s80.833 43.833 113.5 76.5s58.167 70.667 76.5 114s27.5 89 27.5 137c0 48.667 -9.16699 94.667 -27.5 138s-43.666 81.5 -75.999 114.5s-70.166 58.667 -113.499 77s-89 27.5 -137 27.5s-93.5 -9.16699 -136.5 -27.5
s-80.833 -44 -113.5 -77s-58.167 -71.333 -76.5 -115s-27.5 -89.5 -27.5 -137.5s9.16699 -93.667 27.5 -137s43.833 -81.333 76.5 -114s70.5 -58.167 113.5 -76.5s88.5 -27.5 136.5 -27.5zM399.998 26c-40 0 -78.666 8.50098 -115.999 25.501s-70.333 40.5 -99 70.5
s-51 64.167 -67 102.5s-24 77.833 -24 118.5c0 41.333 8 81.166 24 119.499s38.333 72.5 67 102.5s61.5 53.667 98.5 71s75.833 26 116.5 26s79.667 -8.5 117 -25.5s70.166 -40.5 98.499 -70.5s50.5 -64.333 66.5 -103s24 -78.667 24 -120c0 -40.667 -8 -80.167 -24 -118.5
s-38.333 -72.5 -67 -102.5s-61.5 -53.5 -98.5 -70.5s-75.833 -25.5 -116.5 -25.5zM560.999 255.001c-10 -26 -25.165 -46.668 -45.498 -62.001s-48.166 -23 -83.499 -23c-55.333 0 -96.833 16.833 -124.5 50.5s-41.5 79.167 -41.5 136.5c0 52 13.333 93.5 40 124.5
s65.667 46.5 117 46.5c41.333 0 71.166 -8.33301 89.499 -25s28.166 -38 29.499 -64h20v76c0 4 -3.83301 8.16699 -11.5 12.5s-18.5 8.5 -32.5 12.5s-28.833 7 -44.5 9s-30.834 3 -45.501 3c-36 0 -68.5 -6 -97.5 -18s-53.333 -28 -73 -48s-34.5 -41.667 -44.5 -65
s-15 -46 -15 -68c0 -36 6 -67.167 18 -93.5s28.5 -47.833 49.5 -64.5s44.833 -29 71.5 -37s55 -12 85 -12c31.333 0 61.333 3.83301 90 11.5s43.667 13.834 45 18.501l19 79h-15z" />
    <glyph glyph-name="ordfeminine" unicode="&#xaa;" horiz-adv-x="289" 
d="M251 619c0 28 -9.66504 48.502 -28.998 61.502s-47.333 19.5 -84 19.5c-29.333 0 -53.833 -5.83301 -73.5 -17.5s-29.5 -26.167 -29.5 -43.5c0 -22.667 9.66699 -34 29 -34c9.33301 0 16.833 3 22.5 9s8.5 13 8.5 21c0 7.33301 -2.66699 13.333 -8 18
s-11 7.33398 -17 8.00098v2c9.33301 4.66699 19.666 8 30.999 10s24 3 38 3c20 0 36 -3.83301 48 -11.5s18 -19.834 18 -36.501v-39l-11 -3c-22 -4.66699 -42.167 -9.66699 -60.5 -15s-36.333 -12.333 -54 -21s-32.334 -19.334 -44.001 -32.001s-17.5 -27.334 -17.5 -44.001
c0 -22 9 -39.167 27 -51.5s38.667 -18.5 62 -18.5c22 0 41.667 4.83301 59 14.5s30.333 21.5 39 35.5h2c1.33301 -15.333 6.5 -27.5 15.5 -36.5s20.833 -13.5 35.5 -13.5c15.333 0 27.333 5.66699 36 17c8.66699 13.333 13 32.333 13 57h-22c0 -30.667 -5.66699 -46 -17 -46
s-17 7 -17 21v166zM205.002 532.002c0 -28.667 -8.00098 -53.166 -24.001 -73.499s-35.333 -30.5 -58 -30.5c-14.667 0 -27.167 3.66699 -37.5 11s-15.5 17.666 -15.5 30.999c0 16 4 29.667 12 41s18.5 20.5 31.5 27.5s26.333 12.5 40 16.5s30.834 8 51.501 12v-35z" />
    <glyph glyph-name="guillemotleft" unicode="&#xab;" horiz-adv-x="500" 
d="M58 232l30.001 -24.999l39.5 -35l34.5 -32c8 -7.33301 21 -20 39 -38c14.667 -15.333 26.167 -26.833 34.5 -34.5s13.833 -11.5 16.5 -11.5c5.33301 0 8 3.66699 8 11c0 4.66699 -4.5 14 -13.5 28s-20 29.833 -33 47.5s-26.667 35.167 -41 52.5
s-25.833 30.666 -34.5 39.999c6 6 16.167 17.333 30.5 34l43 52.5c14.333 18.333 26.666 35.333 36.999 51s15.5 26.167 15.5 31.5c0 6.66699 -2.66699 10 -8 10c-3.33301 0 -12.333 -7.33301 -27 -22c-21.333 -22 -41.333 -41.333 -60 -58
c-48 -42.667 -85 -74.667 -111 -96v-6zM236.001 232.001l30.001 -24.999l39.5 -35l34.5 -32c8 -7.33301 21 -20 39 -38c14.667 -15.333 26.167 -26.833 34.5 -34.5s13.833 -11.5 16.5 -11.5c5.33301 0 8 3.66699 8 11c0 4.66699 -4.5 14 -13.5 28s-20 29.833 -33 47.5
s-26.667 35.167 -41 52.5s-25.833 30.666 -34.5 39.999c6 6 16.167 17.333 30.5 34l43 52.5c14.333 18.333 26.666 35.333 36.999 51s15.5 26.167 15.5 31.5c0 6.66699 -2.66699 10 -8 10c-3.33301 0 -12.333 -7.33301 -27 -22c-21.333 -22 -41.333 -41.333 -60 -58
c-48 -42.667 -85 -74.667 -111 -96v-6z" />
    <glyph glyph-name="logicalnot" unicode="&#xac;" horiz-adv-x="600" 
d="M485 116h50v244h-470v-50h420v-194z" />
    <glyph glyph-name="minus" unicode="&#xad;" horiz-adv-x="600" 
d="M535 210v50h-470v-50h470z" />
    <glyph glyph-name="minus" unicode="&#x2212;" horiz-adv-x="600" 
d="M535 210v50h-470v-50h470z" />
    <glyph glyph-name="registered" unicode="&#xae;" horiz-adv-x="800" 
d="M232 551l0.00292969 -18.0049c21.333 -3.33301 35 -7 41 -11s9 -12.333 9 -25v-273c0 -12.667 -3 -21 -9 -25s-19.667 -7.66699 -41 -11v-18h165v18c-22.667 3.33301 -37.167 7 -43.5 11s-9.5 12.333 -9.5 25v114h58c15.333 -21.333 34.666 -49.666 57.999 -84.999
c20.667 -32 36 -53.833 46 -65.5s20.667 -17.5 32 -17.5h57v12c-9.33301 4.66699 -20.333 13.334 -33 26.001s-25.334 26.334 -38.001 41.001s-23.334 27.834 -32.001 39.501l-35 47.5c-1.33301 1.33301 -4.33301 5.33301 -9 12c26 8.66699 46.833 21.5 62.5 38.5
s23.5 38.833 23.5 65.5c0 32.667 -12 57.334 -36 74.001s-53.333 25 -88 25h-178zM344.003 526.995h47.001c25.333 0 45.166 -5.5 59.499 -16.5s21.5 -30.167 21.5 -57.5c0 -60.667 -25.667 -91 -77 -91h-51v165zM400.004 -12.0049c48 0 93.498 9.16699 136.498 27.5
s80.833 43.833 113.5 76.5s58.167 70.667 76.5 114s27.5 89 27.5 137c0 48.667 -9.16699 94.667 -27.5 138s-43.666 81.5 -75.999 114.5s-70.166 58.667 -113.499 77s-89 27.5 -137 27.5s-93.5 -9.16699 -136.5 -27.5s-80.833 -44 -113.5 -77s-58.167 -71.333 -76.5 -115
s-27.5 -89.5 -27.5 -137.5s9.16699 -93.667 27.5 -137s43.833 -81.333 76.5 -114s70.5 -58.167 113.5 -76.5s88.5 -27.5 136.5 -27.5zM400.002 25.9951c-40 0 -78.666 8.50098 -115.999 25.501s-70.333 40.5 -99 70.5s-51 64.167 -67 102.5s-24 77.833 -24 118.5
c0 41.333 8 81.166 24 119.499s38.333 72.5 67 102.5s61.5 53.667 98.5 71s75.833 26 116.5 26s79.667 -8.5 117 -25.5s70.166 -40.5 98.499 -70.5s50.5 -64.333 66.5 -103s24 -78.667 24 -120c0 -40.667 -8 -80.167 -24 -118.5s-38.333 -72.5 -67 -102.5
s-61.5 -53.5 -98.5 -70.5s-75.833 -25.5 -116.5 -25.5z" />
    <glyph glyph-name="macron" unicode="&#xaf;" horiz-adv-x="259" 
d="M276 570v42h-293v-42h293z" />
    <glyph glyph-name="degree" unicode="&#xb0;" horiz-adv-x="400" 
d="M200 452c-29.333 0 -54 10.167 -74 30.5s-30 45.166 -30 74.499s10 54.166 30 74.499s44.667 30.5 74 30.5c30 0 54.833 -10.167 74.5 -30.5s29.5 -45.166 29.5 -74.499s-9.83301 -54.166 -29.5 -74.499s-44.5 -30.5 -74.5 -30.5zM200 414c40 0 74.333 13.833 103 41.5
s43 61.5 43 101.5s-14.333 73.833 -43 101.5s-63 41.5 -103 41.5s-74.333 -13.833 -103 -41.5s-43 -61.5 -43 -101.5s14.333 -73.833 43 -101.5s63 -41.5 103 -41.5z" />
    <glyph glyph-name="plusminus" unicode="&#xb1;" horiz-adv-x="600" 
d="M275 323h-210v-50h210v-147h50v147h210v50h-210v147h-50v-147zM65 0h470v50h-470v-50z" />
    <glyph glyph-name="twosuperior" unicode="&#xb2;" horiz-adv-x="311" 
d="M299 280l10.0029 133.001h-25c0 -31.333 -9 -55 -27 -71s-45.333 -24 -82 -24h-113c8.66699 24.667 22.834 45.834 42.501 63.501s46.5 38.5 80.5 62.5c39.333 26.667 68.5 50.167 87.5 70.5s28.5 45.166 28.5 74.499c0 31.333 -13 57.666 -39 78.999s-59.333 32 -100 32
c-36 0 -66 -10.167 -90 -30.5s-36 -45.833 -36 -76.5c0 -15.333 4.16699 -27.333 12.5 -36s18.166 -13 29.499 -13c9.33301 0 17.166 2.66699 23.499 8s9.5 11.333 9.5 18c0 21.333 -11.667 32 -35 32c-4.66699 0 -8.33398 -0.666992 -11.001 -2c-1.33301 4 -2 7 -2 9
c0 20 9.66699 36.833 29 50.5s41.333 20.5 66 20.5c29.333 0 51.833 -7.66699 67.5 -23s23.5 -37 23.5 -65s-7 -50.833 -21 -68.5s-36.667 -38.5 -68 -62.5c-30.667 -24.667 -56.334 -47.5 -77.001 -68.5s-39 -48.167 -55 -81.5v-31h271z" />
    <glyph glyph-name="threesuperior" unicode="&#xb3;" horiz-adv-x="311" 
d="M289 594c0 30 -12.5059 55.167 -37.5059 75.5s-56.167 30.5 -93.5 30.5c-42.667 0 -74.667 -10.167 -96 -30.5s-32 -42.833 -32 -67.5c0 -10.667 3.5 -19.834 10.5 -27.501s15.5 -11.5 25.5 -11.5c8.66699 0 16.334 2.5 23.001 7.5s10 11.833 10 20.5
c0 20 -10.667 30 -32 30c-6.66699 0 -11.667 -0.333008 -15 -1c4.66699 20 16.834 35 36.501 45s38.834 15 57.501 15c31.333 0 54.333 -8.66699 69 -26s22 -40.333 22 -69c0 -14 -2.66699 -26.333 -8 -37s-12 -19.167 -20 -25.5s-16 -11 -24 -14s-14.333 -4.5 -19 -4.5
c-3.33301 0 -9.33301 0.666992 -18 2c-9.33301 1.33301 -15.666 2 -18.999 2c-6.66699 0 -10 -4.33301 -10 -13c0 -6 3.66699 -9 11 -9c3.33301 0 8.66602 0.333008 15.999 1c10.667 0.666992 17.334 1 20.001 1c18.667 0 36.667 -8.16699 54 -24.5s26 -36.833 26 -61.5
c0 -36 -10.333 -63.167 -31 -81.5s-50 -27.5 -88 -27.5c-21.333 0 -41.666 5.5 -60.999 16.5s-29 25.833 -29 44.5c0 6 0.333008 10.667 1 14c6.66699 -5.33301 13.667 -8 21 -8c10.667 0 18.667 2.83301 24 8.5s8 12.5 8 20.5c0 9.33301 -3.5 16.5 -10.5 21.5
s-14.833 7.5 -23.5 7.5c-12 0 -22 -4.5 -30 -13.5s-12 -20.167 -12 -33.5c0 -29.333 11.667 -53 35 -71s53 -27 89 -27c44.667 0 82.334 11.833 113.001 35.5s46 54.167 46 91.5c0 26 -9.5 47.333 -28.5 64s-43.167 27.667 -72.5 33v2v-1
c26.667 8.66699 48.667 20.834 66 36.501s26 35.5 26 59.5z" />
    <glyph glyph-name="acute" unicode="&#xb4;" horiz-adv-x="259" 
d="M58 526l28.999 0.000976562l171 108c10 6.66699 15 15.667 15 27c0 7.33301 -2.66699 13.666 -8 18.999s-11.666 8 -18.999 8c-10 0 -22.667 -7 -38 -21z" />
    <glyph glyph-name="mu" unicode="&#xb5;" horiz-adv-x="556" 
d="M163 476l-146.999 -6.00098v-28c30.667 0 51.5 -2.83301 62.5 -8.5s16.5 -16.167 16.5 -31.5v-504c0 -15.333 -5.5 -25.833 -16.5 -31.5s-31.833 -8.5 -62.5 -8.5v-28h147v172c22.667 -9.33301 50 -14 82 -14c36.667 0 66 6.5 88 19.5s42.667 33.167 62 60.5h2v-74l143 6
v28c-28.667 0 -48.334 2.83301 -59.001 8.5s-16 16.167 -16 31.5v408l-147 -6v-28c30.667 0 51.5 -2.83301 62.5 -8.5s16.5 -16.167 16.5 -31.5v-206c0 -55.333 -12.667 -99.166 -38 -131.499s-59.333 -48.5 -102 -48.5c-30 0 -53.167 8.33301 -69.5 25
s-24.5 40.667 -24.5 72v363z" />
    <glyph glyph-name="paragraph" unicode="&#xb6;" horiz-adv-x="600" 
d="M244 -134l61.999 0.00195312v794h58v-794h62v702c0 37.333 4.83301 62 14.5 74s25.834 18 48.501 18h25v28h-255c-71.333 0 -124 -17.833 -158 -53.5s-51 -83.834 -51 -144.501c0 -66.667 15.333 -118.834 46 -156.501s80 -56.5 148 -56.5v-411z" />
    <glyph glyph-name="periodcentered" unicode="&#xb7;" horiz-adv-x="259" 
d="M79 235c0 -14.667 4.66699 -26.667 14 -36s21.333 -14 36 -14c14 0 25.833 5 35.5 15s14.5 21.667 14.5 35s-5 25 -15 35s-21.667 15 -35 15s-25 -5 -35 -15s-15 -21.667 -15 -35z" />
    <glyph glyph-name="periodcentered" unicode="&#x2219;" horiz-adv-x="259" 
d="M79 235c0 -14.667 4.66699 -26.667 14 -36s21.333 -14 36 -14c14 0 25.833 5 35.5 15s14.5 21.667 14.5 35s-5 25 -15 35s-21.667 15 -35 15s-25 -5 -35 -15s-15 -21.667 -15 -35z" />
    <glyph glyph-name="cedilla" unicode="&#xb8;" horiz-adv-x="259" 
d="M71 -89l10 -5c10 4 20 6 30 6c14.667 0 27.334 -3.16699 38.001 -9.5s16 -16.5 16 -30.5c0 -14.667 -6 -25.667 -18 -33s-26 -11 -42 -11c-22.667 0 -44 4 -64 12l-10 -30c11.333 -4.66699 23.833 -8.5 37.5 -11.5s27.167 -4.5 40.5 -4.5
c32 0.666992 59.667 7.83398 83 21.501s35 34.167 35 61.5c0 21.333 -7.66699 38.166 -23 50.499s-34 18.5 -56 18.5c-4.66699 0 -11.334 -0.666992 -20.001 -2l-10 -1l29 65h-34z" />
    <glyph glyph-name="onesuperior" unicode="&#xb9;" horiz-adv-x="311" 
d="M203 694h-20c-7.33301 -12 -19 -20.333 -35 -25s-38.667 -7 -68 -7v-24c26 0 44.333 -1.83301 55 -5.5s16 -9.5 16 -17.5v-272c0 -13.333 -6 -23.166 -18 -29.499s-33.333 -9.5 -64 -9.5v-24h208v24c-27.333 0 -46.5 3.16699 -57.5 9.5s-16.5 16.166 -16.5 29.499v351z
" />
    <glyph glyph-name="ordmasculine" unicode="&#xba;" horiz-adv-x="311" 
d="M156 404c42.667 0 76.834 14.667 102.501 44s38.5 64 38.5 104s-12.833 74.667 -38.5 104s-59.834 44 -102.501 44c-42 0 -76 -14.667 -102 -44s-39 -64 -39 -104c0 -39.333 13 -73.833 39 -103.5s60 -44.5 102 -44.5zM156 676c59.333 0 89 -41.333 89 -124
s-29.667 -124 -89 -124s-89 41.333 -89 124s29.667 124 89 124z" />
    <glyph glyph-name="guillemotright" unicode="&#xbb;" horiz-adv-x="500" 
d="M442 238l-29 25.001l-40.5 35l-34.5 32c-8 7.33301 -21 20.333 -39 39c-14.667 15.333 -26 26.666 -34 33.999s-13.667 11 -17 11c-5.33301 0 -8 -3.66699 -8 -11c0 -4.66699 4.5 -14 13.5 -28s20 -29.667 33 -47l41 -52.5c14.333 -17.667 25.833 -31.167 34.5 -40.5
c-6 -6 -16 -17.333 -30 -34l-43 -52.5c-14.667 -18.333 -27.167 -35.333 -37.5 -51s-15.5 -26.167 -15.5 -31.5c0 -6.66699 2.66699 -10 8 -10c3.33301 0 12.333 7.33301 27 22c21.333 22 41.333 41.333 60 58c48 42.667 85 74.667 111 96v6zM264 238.001l-29 25.001
l-40.5 35l-34.5 32c-8 7.33301 -21 20.333 -39 39c-14.667 15.333 -26 26.666 -34 33.999s-13.667 11 -17 11c-5.33301 0 -8 -3.66699 -8 -11c0 -4.66699 4.5 -14 13.5 -28s20 -29.667 33 -47l41 -52.5c14.333 -17.667 25.833 -31.167 34.5 -40.5c-6 -6 -16 -17.333 -30 -34
l-43 -52.5c-14.667 -18.333 -27.167 -35.333 -37.5 -51s-15.5 -26.167 -15.5 -31.5c0 -6.66699 2.66699 -10 8 -10c3.33301 0 12.333 7.33301 27 22c21.333 22 41.333 41.333 60 58c48 42.667 85 74.667 111 96v6z" />
    <glyph glyph-name="onequarter" unicode="&#xbc;" horiz-adv-x="778" 
d="M682 0l-0.000976562 23.998c-12 0 -21.833 3.33301 -29.5 10s-11.5 16.334 -11.5 29.001v41h56v38h-56v271h-34l-209 -279v-30h191v-41c0 -13.333 -5.66699 -23.166 -17 -29.499s-30.666 -9.5 -57.999 -9.5v-24h168zM430.999 141.998l156 207h2v-207h-158z
M171.999 -12.002h50l451 712h-47zM214.999 693.998h-20c-7.33301 -12 -19 -20.333 -35 -25s-38.667 -7 -68 -7v-24c26 0 44.333 -1.83301 55 -5.5s16 -9.5 16 -17.5v-272c0 -13.333 -6 -23.166 -18 -29.499s-33.333 -9.5 -64 -9.5v-24h208v24
c-27.333 0 -46.5 3.16699 -57.5 9.5s-16.5 16.166 -16.5 29.499v351z" />
    <glyph glyph-name="onehalf" unicode="&#xbd;" horiz-adv-x="778" 
d="M128 -12h50l451 712h-47zM180 694h-20c-7.33301 -12 -19 -20.333 -35 -25s-38.667 -7 -68 -7v-24c26 0 44.333 -1.83301 55 -5.5s16 -9.5 16 -17.5v-272c0 -13.333 -6 -23.166 -18 -29.499s-33.333 -9.5 -64 -9.5v-24h208v24c-27.333 0 -46.5 3.16699 -57.5 9.5
s-16.5 16.166 -16.5 29.499v351zM721 0l10.002 133.001h-25c0 -31.333 -9 -55 -27 -71s-45.333 -24 -82 -24h-113c8.66699 24.667 22.834 45.834 42.501 63.501s46.5 38.5 80.5 62.5c39.333 26.667 68.5 50.167 87.5 70.5s28.5 45.166 28.5 74.499
c0 31.333 -13 57.666 -39 78.999s-59.333 32 -100 32c-36 0 -66.167 -10.167 -90.5 -30.5s-36.5 -45.833 -36.5 -76.5c0 -15.333 4.16699 -27.333 12.5 -36s18.5 -13 30.5 -13c9.33301 0 17.166 2.66699 23.499 8s9.5 11.333 9.5 18c0 21.333 -11.667 32 -35 32
c-4.66699 0 -8.33398 -0.666992 -11.001 -2c-1.33301 4 -2 7 -2 9c0 20 9.66699 36.833 29 50.5s41.333 20.5 66 20.5c29.333 0 51.833 -7.66699 67.5 -23s23.5 -37 23.5 -65s-7 -50.833 -21 -68.5s-36.667 -38.5 -68 -62.5c-30.667 -24.667 -56.334 -47.5 -77.001 -68.5
s-39 -48.167 -55 -81.5v-31h271z" />
    <glyph glyph-name="threequarters" unicode="&#xbe;" horiz-adv-x="778" 
d="M683 0l-0.000976562 23.998c-12 0 -21.833 3.33301 -29.5 10s-11.5 16.334 -11.5 29.001v41h56v38h-56v271h-34l-209 -279v-30h191v-41c0 -13.333 -5.66699 -23.166 -17 -29.499s-30.666 -9.5 -57.999 -9.5v-24h168zM430.999 141.998l157 207h2v-207h-159z
M172.999 -12.002h50l451 712h-47zM314.999 593.998c0 30 -12.5059 55.167 -37.5059 75.5s-56.167 30.5 -93.5 30.5c-42.667 0 -74.667 -10.167 -96 -30.5s-32 -42.833 -32 -67.5c0 -10.667 3.5 -19.834 10.5 -27.501s15.5 -11.5 25.5 -11.5c8.66699 0 16.334 2.5 23.001 7.5
s10 11.833 10 20.5c0 20 -10.667 30 -32 30c-6.66699 0 -11.667 -0.333008 -15 -1c4.66699 20 16.834 35 36.501 45s38.834 15 57.501 15c31.333 0 54.333 -8.66699 69 -26s22 -40.333 22 -69c0 -14 -2.66699 -26.333 -8 -37s-12 -19.167 -20 -25.5s-16 -11 -24 -14
s-14.333 -4.5 -19 -4.5c-3.33301 0 -9.33301 0.666992 -18 2c-9.33301 1.33301 -15.666 2 -18.999 2c-6.66699 0 -10 -4.33301 -10 -13c0 -6 3.66699 -9 11 -9c3.33301 0 8.66602 0.333008 15.999 1c10.667 0.666992 17.334 1 20.001 1c18.667 0 36.667 -8.16699 54 -24.5
s26 -36.833 26 -61.5c0 -36 -10.333 -63.167 -31 -81.5s-50 -27.5 -88 -27.5c-21.333 0 -41.666 5.5 -60.999 16.5s-29 25.833 -29 44.5c0 6 0.333008 10.667 1 14c6.66699 -5.33301 13.667 -8 21 -8c10.667 0 18.667 2.83301 24 8.5s8 12.5 8 20.5
c0 9.33301 -3.5 16.5 -10.5 21.5s-14.833 7.5 -23.5 7.5c-12 0 -22 -4.5 -30 -13.5s-12 -20.167 -12 -33.5c0 -29.333 11.667 -53 35 -71s53 -27 89 -27c44.667 0 82.334 11.833 113.001 35.5s46 54.167 46 91.5c0 26 -9.5 47.333 -28.5 64s-43.167 27.667 -72.5 33v2v-1
c26.667 8.66699 48.667 20.834 66 36.501s26 35.5 26 59.5z" />
    <glyph glyph-name="questiondown" unicode="&#xbf;" horiz-adv-x="444" 
d="M236 310v-41.998c0 -34.667 -7.5 -61.834 -22.5 -81.501s-37.833 -40.834 -68.5 -63.501c-30 -22.667 -52.667 -44 -68 -64s-23 -47.667 -23 -83c0 -48.667 17.5 -87.167 52.5 -115.5s77.167 -42.5 126.5 -42.5c21.333 0 41.833 3.5 61.5 10.5s37.334 17 53.001 30
s28 28.5 37 46.5s13.5 37.667 13.5 59c0 22 -5.33301 39.833 -16 53.5s-24.334 20.5 -41.001 20.5c-10.667 0 -20.5 -4.16699 -29.5 -12.5s-13.5 -18.5 -13.5 -30.5c0 -13.333 4.33301 -24.5 13 -33.5s19.667 -13.5 33 -13.5c6.66699 0 14.667 1.33301 24 4
c-1.33301 -32 -13.666 -57.667 -36.999 -77s-51.333 -29 -84 -29c-36.667 0 -66.667 13.5 -90 40.5s-35 59.833 -35 98.5c0 26 6.66699 49 20 69s32.666 43 57.999 69c22 21.333 38.167 39.5 48.5 54.5s15.5 31.167 15.5 48.5v84h-28zM296 464.002
c0 14.667 -4.66699 26.667 -14 36s-21.333 14 -36 14c-14 0 -25.833 -5 -35.5 -15s-14.5 -21.667 -14.5 -35s5 -25 15 -35s21.667 -15 35 -15s25 5 35 15s15 21.667 15 35z" />
    <glyph glyph-name="Agrave" unicode="&#xc0;" horiz-adv-x="667" 
d="M382 723l28.999 -0.000976562l-150 141c-15.333 14 -28 21 -38 21c-7.33301 0 -13.666 -2.66699 -18.999 -8s-8 -11.666 -8 -18.999c0 -11.333 5 -20.333 15 -27zM226.999 -0.000976562v28.0029c-35.333 0 -59.166 1.66699 -71.499 5s-18.5 10.666 -18.5 21.999
c0 5.33301 1.5 13.5 4.5 24.5s7 24.167 12 39.5s9 27.166 12 35.499l17.5 48.5c6 17.333 9.66699 27.666 11 30.999h249c1.33301 -4.66699 3.33301 -10.667 6 -18l16 -44c12 -31.333 21.333 -56.5 28 -75.5s10 -32.5 10 -40.5c0 -10.667 -6 -18 -18 -22s-35.667 -6 -71 -6
v-28h255v28c-27.333 0 -47.166 2.5 -59.499 7.5s-21.5 15.167 -27.5 30.5l-229 622h-24l-230 -616c-6.66699 -17.333 -16.834 -29 -30.501 -35s-36.834 -9 -69.501 -9v-28h228zM318.999 576.002l112 -308h-225z" />
    <glyph glyph-name="Aacute" unicode="&#xc1;" horiz-adv-x="667" 
d="M268 723l28.999 0.000976562l171 108c10 6.66699 15 15.667 15 27c0 7.33301 -2.66699 13.666 -8 18.999s-11.666 8 -18.999 8c-10 0 -22.667 -7 -38 -21zM226.999 0.000976562v28.0029c-35.333 0 -59.166 1.66699 -71.499 5s-18.5 10.666 -18.5 21.999
c0 5.33301 1.5 13.5 4.5 24.5s7 24.167 12 39.5s9 27.166 12 35.499l17.5 48.5c6 17.333 9.66699 27.666 11 30.999h249c1.33301 -4.66699 3.33301 -10.667 6 -18l16 -44c12 -31.333 21.333 -56.5 28 -75.5s10 -32.5 10 -40.5c0 -10.667 -6 -18 -18 -22s-35.667 -6 -71 -6
v-28h255v28c-27.333 0 -47.166 2.5 -59.499 7.5s-21.5 15.167 -27.5 30.5l-229 622h-24l-230 -616c-6.66699 -17.333 -16.834 -29 -30.501 -35s-36.834 -9 -69.501 -9v-28h228zM318.999 576.004l112 -308h-225z" />
    <glyph glyph-name="Acircumflex" unicode="&#xc2;" horiz-adv-x="667" 
d="M360 887h-41l-124 -164h21l124 106l122 -106h23zM227 0v28.0029c-35.333 0 -59.166 1.66699 -71.499 5s-18.5 10.666 -18.5 21.999c0 5.33301 1.5 13.5 4.5 24.5s7 24.167 12 39.5s9 27.166 12 35.499l17.5 48.5c6 17.333 9.66699 27.666 11 30.999h249
c1.33301 -4.66699 3.33301 -10.667 6 -18l16 -44c12 -31.333 21.333 -56.5 28 -75.5s10 -32.5 10 -40.5c0 -10.667 -6 -18 -18 -22s-35.667 -6 -71 -6v-28h255v28c-27.333 0 -47.166 2.5 -59.499 7.5s-21.5 15.167 -27.5 30.5l-229 622h-24l-230 -616
c-6.66699 -17.333 -16.834 -29 -30.501 -35s-36.834 -9 -69.501 -9v-28h228zM319 576.003l112 -308h-225z" />
    <glyph glyph-name="Atilde" unicode="&#xc3;" horiz-adv-x="667" 
d="M206 751c4 13.333 11.001 24.333 21.001 33s23.333 13 40 13c10 0 19.667 -1.83301 29 -5.5s20.333 -9.5 33 -17.5l4 -2c24 -14 42.333 -21 55 -21c24 0 45.5 8 64.5 24s33.167 37.333 42.5 64h-24c0 -0.666992 -0.666992 -1.66699 -2 -3
c-8.66699 -13.333 -17.167 -23.5 -25.5 -30.5s-18.833 -10.5 -31.5 -10.5c-10.667 0 -28 6.33301 -52 19l-6 3c-28 14.667 -51 22 -69 22c-26 0 -47.333 -8 -64 -24s-29.334 -37.333 -38.001 -64h23zM227.001 0v28.0029c-35.333 0 -59.166 1.66699 -71.499 5
s-18.5 10.666 -18.5 21.999c0 5.33301 1.5 13.5 4.5 24.5s7 24.167 12 39.5s9 27.166 12 35.499l17.5 48.5c6 17.333 9.66699 27.666 11 30.999h249c1.33301 -4.66699 3.33301 -10.667 6 -18l16 -44c12 -31.333 21.333 -56.5 28 -75.5s10 -32.5 10 -40.5
c0 -10.667 -6 -18 -18 -22s-35.667 -6 -71 -6v-28h255v28c-27.333 0 -47.166 2.5 -59.499 7.5s-21.5 15.167 -27.5 30.5l-229 622h-24l-230 -616c-6.66699 -17.333 -16.834 -29 -30.501 -35s-36.834 -9 -69.501 -9v-28h228zM319.001 576.003l112 -308h-225z" />
    <glyph glyph-name="Adieresis" unicode="&#xc4;" horiz-adv-x="667" 
d="M244 745c11.333 0 20.833 3.83301 28.5 11.5s11.5 16.834 11.5 27.501c0 11.333 -3.83301 21 -11.5 29s-17.167 12 -28.5 12c-10.667 0 -20 -4 -28 -12s-12 -17.667 -12 -29c0 -10.667 3.83301 -19.834 11.5 -27.501s17.167 -11.5 28.5 -11.5zM436 745
c11.333 0 20.833 3.83301 28.5 11.5s11.5 16.834 11.5 27.501c0 11.333 -3.83301 21 -11.5 29s-17.167 12 -28.5 12c-10.667 0 -20 -4 -28 -12s-12 -17.667 -12 -29c0 -10.667 3.83301 -19.834 11.5 -27.501s17.167 -11.5 28.5 -11.5zM227 0v28.0029
c-35.333 0 -59.166 1.66699 -71.499 5s-18.5 10.666 -18.5 21.999c0 5.33301 1.5 13.5 4.5 24.5s7 24.167 12 39.5s9 27.166 12 35.499l17.5 48.5c6 17.333 9.66699 27.666 11 30.999h249c1.33301 -4.66699 3.33301 -10.667 6 -18l16 -44c12 -31.333 21.333 -56.5 28 -75.5
s10 -32.5 10 -40.5c0 -10.667 -6 -18 -18 -22s-35.667 -6 -71 -6v-28h255v28c-27.333 0 -47.166 2.5 -59.499 7.5s-21.5 15.167 -27.5 30.5l-229 622h-24l-230 -616c-6.66699 -17.333 -16.834 -29 -30.501 -35s-36.834 -9 -69.501 -9v-28h228zM319 576.003l112 -308h-225z
" />
    <glyph glyph-name="Aring" unicode="&#xc5;" horiz-adv-x="667" 
d="M339 723c26.667 0 49.5 9.5 68.5 28.5s28.5 41.833 28.5 68.5s-9.5 49.5 -28.5 68.5s-41.833 28.5 -68.5 28.5s-49.5 -9.5 -68.5 -28.5s-28.5 -41.833 -28.5 -68.5c0 -27.333 9.33301 -50.333 28 -69s41.667 -28 69 -28zM339 757
c-19.333 0 -34.668 5.66895 -46.001 17.002s-17 26.666 -17 45.999c0 18.667 5.83301 33.834 17.5 45.501s26.834 17.5 45.501 17.5s33.834 -5.83301 45.501 -17.5s17.5 -26.834 17.5 -45.501s-5.83301 -33.834 -17.5 -45.501s-26.834 -17.5 -45.501 -17.5z
M226.998 0.00195312v28.0029c-35.333 0 -59.166 1.66699 -71.499 5s-18.5 10.666 -18.5 21.999c0 5.33301 1.5 13.5 4.5 24.5s7 24.167 12 39.5s9 27.166 12 35.499l17.5 48.5c6 17.333 9.66699 27.666 11 30.999h249c1.33301 -4.66699 3.33301 -10.667 6 -18l16 -44
c12 -31.333 21.333 -56.5 28 -75.5s10 -32.5 10 -40.5c0 -10.667 -6 -18 -18 -22s-35.667 -6 -71 -6v-28h255v28c-27.333 0 -47.166 2.5 -59.499 7.5s-21.5 15.167 -27.5 30.5l-229 622h-24l-230 -616c-6.66699 -17.333 -16.834 -29 -30.501 -35s-36.834 -9 -69.501 -9v-28
h228zM318.998 576.005l112 -308h-225z" />
    <glyph glyph-name="AE" unicode="&#xc6;" horiz-adv-x="889" 
d="M394 642h2v-268h-153zM816 260l-27.001 0.000976562c-11.333 -85.333 -35 -145.333 -71 -180c-18.667 -18 -42.167 -31.167 -70.5 -39.5s-63.166 -12.5 -104.499 -12.5c-22.667 0 -40.167 3.16699 -52.5 9.5s-18.5 17.166 -18.5 32.499v276h42
c38 0 64.833 -10.167 80.5 -30.5s24.167 -50.166 25.5 -89.499h28v268h-28c-1.33301 -39.333 -9.83301 -69.166 -25.5 -89.499s-42.5 -30.5 -80.5 -30.5h-42v245c0 17.333 6.16699 28.5 18.5 33.5s34.833 7.5 67.5 7.5c33.333 0 62 -3.16699 86 -9.5
s44.833 -17.333 62.5 -33s32.334 -37.834 44.001 -66.501s19.834 -65.334 24.501 -110.001h27l-6 247h-521v-28c28.667 -0.666992 48 -3 58 -7s15 -10 15 -18c0 -6 -4 -16 -12 -30l-300 -525c-8 -14.667 -19 -27 -33 -37s-32.333 -15 -55 -15v-28h222v28
c-28.667 0 -50.834 2.33301 -66.501 7s-23.5 12 -23.5 22c0 9.33301 6.66699 25.666 20 48.999l11 19l113 215h172v-243c0 -16.667 -1.16699 -29.5 -3.5 -38.5s-6.5 -15.667 -12.5 -20s-14.333 -7.16602 -25 -8.49902s-26.334 -2 -47.001 -2v-28h502z" />
    <glyph glyph-name="Ccedilla" unicode="&#xc7;" horiz-adv-x="648" 
d="M295 -89l10 -5c10 4 20 6 30 6c14.667 0 27.334 -3.16699 38.001 -9.5s16 -16.5 16 -30.5c0 -14.667 -6 -25.667 -18 -33s-26 -11 -42 -11c-22.667 0 -44 4 -64 12l-10 -30c11.333 -4.66699 23.833 -8.5 37.5 -11.5s27.167 -4.5 40.5 -4.5
c32 0.666992 59.667 7.83398 83 21.501s35 34.167 35 61.5c0 21.333 -7.66699 38.166 -23 50.499s-34 18.5 -56 18.5c-4.66699 0 -11.334 -0.666992 -20.001 -2l-10 -1l29 65h-34zM582 678h-27.9971c-0.666992 -1.33301 -2 -4.33301 -4 -9
c-4 -9.33301 -8 -17.166 -12 -23.499s-9.33301 -9.5 -16 -9.5c-4.66699 0 -14.334 5 -29.001 15c-21.333 14.667 -42.333 26.5 -63 35.5s-45.334 13.5 -74.001 13.5c-41.333 0 -80.5 -8.83301 -117.5 -26.5s-69.667 -42.834 -98 -75.501s-50.5 -70.834 -66.5 -114.501
s-24 -90.167 -24 -139.5c0 -44 6.5 -87.333 19.5 -130s32.5 -81 58.5 -115s58.333 -61 97 -81s82.334 -30 131.001 -30c75.333 0 134.5 24.833 177.5 74.5s64.5 117.167 64.5 202.5h-34c-3.33301 -75.333 -23 -135.666 -59 -180.999s-85.667 -68 -149 -68
c-31.333 0 -59.666 5.33301 -84.999 16s-47.833 28.5 -67.5 53.5s-34.834 58.833 -45.501 101.5s-16 95 -16 157c0 61.333 6 113.333 18 156s28.167 76.667 48.5 102s42.666 43.333 66.999 54s49.833 16 76.5 16c30 0 56.667 -6.5 80 -19.5s43.166 -30.5 59.499 -52.5
s29.5 -46.167 39.5 -72.5s17.667 -53.5 23 -81.5h28v232z" />
    <glyph glyph-name="Egrave" unicode="&#xc8;" horiz-adv-x="667" 
d="M376 723l28.999 -0.000976562l-150 141c-15.333 14 -28 21 -38 21c-7.33301 0 -13.666 -2.66699 -18.999 -8s-8 -11.666 -8 -18.999c0 -11.333 5 -20.333 15 -27zM585.999 259.999l-27.0029 -0.00195312c-5.33301 -44 -13.833 -80.5 -25.5 -109.5
s-27.167 -52.5 -46.5 -70.5s-44 -31.167 -74 -39.5s-66.667 -12.5 -110 -12.5c-40.667 0 -69 3 -85 9s-24 17 -24 33v276h60c38 0 64.833 -10.167 80.5 -30.5s24.167 -50.166 25.5 -89.499h28v268h-28c-1.33301 -39.333 -9.83301 -69.166 -25.5 -89.499
s-42.5 -30.5 -80.5 -30.5h-60v228c0 21.333 9.83301 36.333 29.5 45s52.834 13 99.501 13c34.667 0 64.334 -3.16699 89.001 -9.5s46 -17.333 64 -33s32.833 -37.834 44.5 -66.501s19.834 -65.334 24.501 -110.001h27l-6 247h-538v-28c21.333 0 37.5 -0.666992 48.5 -2
s19.5 -4.16602 25.5 -8.49902s10.167 -11 12.5 -20s3.5 -21.833 3.5 -38.5v-494c0 -16.667 -1.16699 -29.5 -3.5 -38.5s-6.66602 -15.667 -12.999 -20s-15.333 -7.16602 -27 -8.49902s-28.834 -2 -51.501 -2v-28h557z" />
    <glyph glyph-name="Eacute" unicode="&#xc9;" horiz-adv-x="667" 
d="M262 723l28.999 0.000976562l171 108c10 6.66699 15 15.667 15 27c0 7.33301 -2.66699 13.666 -8 18.999s-11.666 8 -18.999 8c-10 0 -22.667 -7 -38 -21zM585.999 260.001l-27.0029 -0.00195312c-5.33301 -44 -13.833 -80.5 -25.5 -109.5s-27.167 -52.5 -46.5 -70.5
s-44 -31.167 -74 -39.5s-66.667 -12.5 -110 -12.5c-40.667 0 -69 3 -85 9s-24 17 -24 33v276h60c38 0 64.833 -10.167 80.5 -30.5s24.167 -50.166 25.5 -89.499h28v268h-28c-1.33301 -39.333 -9.83301 -69.166 -25.5 -89.499s-42.5 -30.5 -80.5 -30.5h-60v228
c0 21.333 9.83301 36.333 29.5 45s52.834 13 99.501 13c34.667 0 64.334 -3.16699 89.001 -9.5s46 -17.333 64 -33s32.833 -37.834 44.5 -66.501s19.834 -65.334 24.501 -110.001h27l-6 247h-538v-28c21.333 0 37.5 -0.666992 48.5 -2s19.5 -4.16602 25.5 -8.49902
s10.167 -11 12.5 -20s3.5 -21.833 3.5 -38.5v-494c0 -16.667 -1.16699 -29.5 -3.5 -38.5s-6.66602 -15.667 -12.999 -20s-15.333 -7.16602 -27 -8.49902s-28.834 -2 -51.501 -2v-28h557z" />
    <glyph glyph-name="Ecircumflex" unicode="&#xca;" horiz-adv-x="667" 
d="M354 887h-41l-124 -164h21l124 106l122 -106h23zM586 260l-27.0029 -0.00195312c-5.33301 -44 -13.833 -80.5 -25.5 -109.5s-27.167 -52.5 -46.5 -70.5s-44 -31.167 -74 -39.5s-66.667 -12.5 -110 -12.5c-40.667 0 -69 3 -85 9s-24 17 -24 33v276h60
c38 0 64.833 -10.167 80.5 -30.5s24.167 -50.166 25.5 -89.499h28v268h-28c-1.33301 -39.333 -9.83301 -69.166 -25.5 -89.499s-42.5 -30.5 -80.5 -30.5h-60v228c0 21.333 9.83301 36.333 29.5 45s52.834 13 99.501 13c34.667 0 64.334 -3.16699 89.001 -9.5
s46 -17.333 64 -33s32.833 -37.834 44.5 -66.501s19.834 -65.334 24.501 -110.001h27l-6 247h-538v-28c21.333 0 37.5 -0.666992 48.5 -2s19.5 -4.16602 25.5 -8.49902s10.167 -11 12.5 -20s3.5 -21.833 3.5 -38.5v-494c0 -16.667 -1.16699 -29.5 -3.5 -38.5
s-6.66602 -15.667 -12.999 -20s-15.333 -7.16602 -27 -8.49902s-28.834 -2 -51.501 -2v-28h557z" />
    <glyph glyph-name="Edieresis" unicode="&#xcb;" horiz-adv-x="667" 
d="M238 745c11.333 0 20.833 3.83301 28.5 11.5s11.5 16.834 11.5 27.501c0 11.333 -3.83301 21 -11.5 29s-17.167 12 -28.5 12c-10.667 0 -20 -4 -28 -12s-12 -17.667 -12 -29c0 -10.667 3.83301 -19.834 11.5 -27.501s17.167 -11.5 28.5 -11.5zM430 745
c11.333 0 20.833 3.83301 28.5 11.5s11.5 16.834 11.5 27.501c0 11.333 -3.83301 21 -11.5 29s-17.167 12 -28.5 12c-10.667 0 -20 -4 -28 -12s-12 -17.667 -12 -29c0 -10.667 3.83301 -19.834 11.5 -27.501s17.167 -11.5 28.5 -11.5zM586 260l-27.0029 -0.00195312
c-5.33301 -44 -13.833 -80.5 -25.5 -109.5s-27.167 -52.5 -46.5 -70.5s-44 -31.167 -74 -39.5s-66.667 -12.5 -110 -12.5c-40.667 0 -69 3 -85 9s-24 17 -24 33v276h60c38 0 64.833 -10.167 80.5 -30.5s24.167 -50.166 25.5 -89.499h28v268h-28
c-1.33301 -39.333 -9.83301 -69.166 -25.5 -89.499s-42.5 -30.5 -80.5 -30.5h-60v228c0 21.333 9.83301 36.333 29.5 45s52.834 13 99.501 13c34.667 0 64.334 -3.16699 89.001 -9.5s46 -17.333 64 -33s32.833 -37.834 44.5 -66.501s19.834 -65.334 24.501 -110.001h27
l-6 247h-538v-28c21.333 0 37.5 -0.666992 48.5 -2s19.5 -4.16602 25.5 -8.49902s10.167 -11 12.5 -20s3.5 -21.833 3.5 -38.5v-494c0 -16.667 -1.16699 -29.5 -3.5 -38.5s-6.66602 -15.667 -12.999 -20s-15.333 -7.16602 -27 -8.49902s-28.834 -2 -51.501 -2v-28h557z" />
    <glyph glyph-name="Igrave" unicode="&#xcc;" horiz-adv-x="315" 
d="M200 723l28.999 -0.000976562l-150 141c-15.333 14 -28 21 -38 21c-7.33301 0 -13.666 -2.66699 -18.999 -8s-8 -11.666 -8 -18.999c0 -11.333 5 -20.333 15 -27zM30.999 687.999l0.00195312 -28c21.333 0 37.5 -0.666992 48.5 -2s19.5 -4.16602 25.5 -8.49902
s10.167 -11 12.5 -20s3.5 -21.833 3.5 -38.5v-494c0 -16.667 -1.16699 -29.5 -3.5 -38.5s-6.66602 -15.667 -12.999 -20s-15.333 -7.16602 -27 -8.49902s-28.834 -2 -51.501 -2v-28h258v28c-20.667 0 -36.334 0.666992 -47.001 2s-18.834 4.16602 -24.501 8.49902
s-9.66699 11 -12 20s-3.5 21.833 -3.5 38.5v494c0 16.667 1.16699 29.5 3.5 38.5s6.5 15.667 12.5 20s14.667 7.16602 26 8.49902s28 2 50 2v28h-258z" />
    <glyph glyph-name="Iacute" unicode="&#xcd;" horiz-adv-x="315" 
d="M86 723l28.999 0.000976562l171 108c10 6.66699 15 15.667 15 27c0 7.33301 -2.66699 13.666 -8 18.999s-11.666 8 -18.999 8c-10 0 -22.667 -7 -38 -21zM30.999 688.001l0.00195312 -28c21.333 0 37.5 -0.666992 48.5 -2s19.5 -4.16602 25.5 -8.49902
s10.167 -11 12.5 -20s3.5 -21.833 3.5 -38.5v-494c0 -16.667 -1.16699 -29.5 -3.5 -38.5s-6.66602 -15.667 -12.999 -20s-15.333 -7.16602 -27 -8.49902s-28.834 -2 -51.501 -2v-28h258v28c-20.667 0 -36.334 0.666992 -47.001 2s-18.834 4.16602 -24.501 8.49902
s-9.66699 11 -12 20s-3.5 21.833 -3.5 38.5v494c0 16.667 1.16699 29.5 3.5 38.5s6.5 15.667 12.5 20s14.667 7.16602 26 8.49902s28 2 50 2v28h-258z" />
    <glyph glyph-name="Icircumflex" unicode="&#xce;" horiz-adv-x="315" 
d="M178 887h-41l-124 -164h21l124 106l122 -106h23zM31 688l0.00195312 -28c21.333 0 37.5 -0.666992 48.5 -2s19.5 -4.16602 25.5 -8.49902s10.167 -11 12.5 -20s3.5 -21.833 3.5 -38.5v-494c0 -16.667 -1.16699 -29.5 -3.5 -38.5s-6.66602 -15.667 -12.999 -20
s-15.333 -7.16602 -27 -8.49902s-28.834 -2 -51.501 -2v-28h258v28c-20.667 0 -36.334 0.666992 -47.001 2s-18.834 4.16602 -24.501 8.49902s-9.66699 11 -12 20s-3.5 21.833 -3.5 38.5v494c0 16.667 1.16699 29.5 3.5 38.5s6.5 15.667 12.5 20s14.667 7.16602 26 8.49902
s28 2 50 2v28h-258z" />
    <glyph glyph-name="Idieresis" unicode="&#xcf;" horiz-adv-x="315" 
d="M62 745c11.333 0 20.833 3.83301 28.5 11.5s11.5 16.834 11.5 27.501c0 11.333 -3.83301 21 -11.5 29s-17.167 12 -28.5 12c-10.667 0 -20 -4 -28 -12s-12 -17.667 -12 -29c0 -10.667 3.83301 -19.834 11.5 -27.501s17.167 -11.5 28.5 -11.5zM254 745
c11.333 0 20.833 3.83301 28.5 11.5s11.5 16.834 11.5 27.501c0 11.333 -3.83301 21 -11.5 29s-17.167 12 -28.5 12c-10.667 0 -20 -4 -28 -12s-12 -17.667 -12 -29c0 -10.667 3.83301 -19.834 11.5 -27.501s17.167 -11.5 28.5 -11.5zM31 688l0.00195312 -28
c21.333 0 37.5 -0.666992 48.5 -2s19.5 -4.16602 25.5 -8.49902s10.167 -11 12.5 -20s3.5 -21.833 3.5 -38.5v-494c0 -16.667 -1.16699 -29.5 -3.5 -38.5s-6.66602 -15.667 -12.999 -20s-15.333 -7.16602 -27 -8.49902s-28.834 -2 -51.501 -2v-28h258v28
c-20.667 0 -36.334 0.666992 -47.001 2s-18.834 4.16602 -24.501 8.49902s-9.66699 11 -12 20s-3.5 21.833 -3.5 38.5v494c0 16.667 1.16699 29.5 3.5 38.5s6.5 15.667 12.5 20s14.667 7.16602 26 8.49902s28 2 50 2v28h-258z" />
    <glyph glyph-name="Eth" unicode="&#xd0;" horiz-adv-x="704" 
d="M116 362l-0.00195312 -265.002c0 -16.667 -1.16699 -29.5 -3.5 -38.5s-6.66602 -15.667 -12.999 -20s-15.166 -7.16602 -26.499 -8.49902s-28 -2 -50 -2v-28h313c52 0 98.333 9.16699 139 27.5s75 43.833 103 76.5s49 69.5 63 110.5s21 84.167 21 129.5
s-7 88.5 -21 129.5s-35 77.833 -63 110.5s-62.333 58.167 -103 76.5s-87 27.5 -139 27.5h-308v-28c20.667 0 36.5 -0.666992 47.5 -2s19.333 -4.16602 25 -8.49902s9.66699 -11 12 -20s3.5 -21.833 3.5 -38.5v-195h-80v-34h80zM411.998 361.998l0.000976562 33.999h-220v194
c0 28.667 5.33301 47.5 16 56.5s31 13.5 61 13.5h44c94 0 160.333 -24.5 199 -73.5s58 -129.833 58 -242.5c0 -58.667 -4.83301 -108 -14.5 -148s-24.834 -72.333 -45.501 -97s-47.5 -42.667 -80.5 -54s-73.833 -17 -122.5 -17h-51c-26 0 -43.167 3.83301 -51.5 11.5
s-12.5 20.834 -12.5 39.501v283h220z" />
    <glyph glyph-name="Ntilde" unicode="&#xd1;" horiz-adv-x="704" 
d="M219 751c4 13.333 11.001 24.333 21.001 33s23.333 13 40 13c10 0 19.667 -1.83301 29 -5.5s20.333 -9.5 33 -17.5l4 -2c24 -14 42.333 -21 55 -21c24 0 45.5 8 64.5 24s33.167 37.333 42.5 64h-24c0 -0.666992 -0.666992 -1.66699 -2 -3
c-8.66699 -13.333 -17.167 -23.5 -25.5 -30.5s-18.833 -10.5 -31.5 -10.5c-10.667 0 -28 6.33301 -52 19l-6 3c-28 14.667 -51 22 -69 22c-26 0 -47.333 -8 -64 -24s-29.334 -37.333 -38.001 -64h23zM458.001 660c24 0 42.165 -0.666992 54.498 -2
s21.833 -4.16602 28.5 -8.49902s11.167 -11 13.5 -20s3.5 -21.833 3.5 -38.5v-455h-2l-390 552h-145v-28c25.333 0 47.333 -4.83301 66 -14.5s28 -21.5 28 -35.5v-513c0 -16.667 -1.16699 -29.5 -3.5 -38.5s-6.66602 -15.667 -12.999 -20s-15.166 -7.16602 -26.499 -8.49902
s-28.333 -2 -51 -2v-28h234v28c-24 0 -42.167 0.666992 -54.5 2s-21.833 4.16602 -28.5 8.49902s-11.167 11 -13.5 20s-3.5 21.833 -3.5 38.5v475h2l404 -572h37v591c0 16.667 1.16699 29.5 3.5 38.5s6.5 15.667 12.5 20s14.667 7.16602 26 8.49902s28 2 50 2v28h-232v-28z
" />
    <glyph glyph-name="Ograve" unicode="&#xd2;" horiz-adv-x="704" 
d="M395 723l28.999 -0.000976562l-150 141c-15.333 14 -28 21 -38 21c-7.33301 0 -13.666 -2.66699 -18.999 -8s-8 -11.666 -8 -18.999c0 -11.333 5 -20.333 15 -27zM351.999 671.999c31.333 0 59.833 -5.33301 85.5 -16s48.167 -28.5 67.5 -53.5s34.333 -58.833 45 -101.5
s16 -95 16 -157s-5.33301 -114.333 -16 -157s-25.834 -76.5 -45.501 -101.5s-42.167 -42.833 -67.5 -53.5s-53.666 -16 -84.999 -16s-59.666 5.33301 -84.999 16s-47.833 28.5 -67.5 53.5s-34.834 58.833 -45.501 101.5s-16 95 -16 157s5.33301 114.333 16 157
s25.834 76.5 45.501 101.5s42.167 42.833 67.5 53.5s53.666 16 84.999 16zM351.999 -12.001c48.667 0 92.334 10.001 131.001 30.001s71 47.167 97 81.5s45.5 72.666 58.5 114.999s19.5 85.5 19.5 129.5s-6.5 87.333 -19.5 130s-32.5 81 -58.5 115s-58.333 61 -97 81
s-82.334 30 -131.001 30s-92.334 -10 -131.001 -30s-71 -47 -97 -81s-45.5 -72.333 -58.5 -115s-19.5 -86 -19.5 -130s6.5 -87.333 19.5 -130s32.5 -81 58.5 -115s58.333 -61 97 -81s82.334 -30 131.001 -30z" />
    <glyph glyph-name="Oacute" unicode="&#xd3;" horiz-adv-x="704" 
d="M281 723l28.999 0.000976562l171 108c10 6.66699 15 15.667 15 27c0 7.33301 -2.66699 13.666 -8 18.999s-11.666 8 -18.999 8c-10 0 -22.667 -7 -38 -21zM351.999 672.001c31.333 0 59.833 -5.33301 85.5 -16s48.167 -28.5 67.5 -53.5s34.333 -58.833 45 -101.5
s16 -95 16 -157s-5.33301 -114.333 -16 -157s-25.834 -76.5 -45.501 -101.5s-42.167 -42.833 -67.5 -53.5s-53.666 -16 -84.999 -16s-59.666 5.33301 -84.999 16s-47.833 28.5 -67.5 53.5s-34.834 58.833 -45.501 101.5s-16 95 -16 157s5.33301 114.333 16 157
s25.834 76.5 45.501 101.5s42.167 42.833 67.5 53.5s53.666 16 84.999 16zM351.999 -11.999c48.667 0 92.334 10.001 131.001 30.001s71 47.167 97 81.5s45.5 72.666 58.5 114.999s19.5 85.5 19.5 129.5s-6.5 87.333 -19.5 130s-32.5 81 -58.5 115s-58.333 61 -97 81
s-82.334 30 -131.001 30s-92.334 -10 -131.001 -30s-71 -47 -97 -81s-45.5 -72.333 -58.5 -115s-19.5 -86 -19.5 -130s6.5 -87.333 19.5 -130s32.5 -81 58.5 -115s58.333 -61 97 -81s82.334 -30 131.001 -30z" />
    <glyph glyph-name="Ocircumflex" unicode="&#xd4;" horiz-adv-x="704" 
d="M373 887h-41l-124 -164h21l124 106l122 -106h23zM352 672c31.333 0 59.833 -5.33301 85.5 -16s48.167 -28.5 67.5 -53.5s34.333 -58.833 45 -101.5s16 -95 16 -157s-5.33301 -114.333 -16 -157s-25.834 -76.5 -45.501 -101.5s-42.167 -42.833 -67.5 -53.5
s-53.666 -16 -84.999 -16s-59.666 5.33301 -84.999 16s-47.833 28.5 -67.5 53.5s-34.834 58.833 -45.501 101.5s-16 95 -16 157s5.33301 114.333 16 157s25.834 76.5 45.501 101.5s42.167 42.833 67.5 53.5s53.666 16 84.999 16zM352 -12
c48.667 0 92.334 10.001 131.001 30.001s71 47.167 97 81.5s45.5 72.666 58.5 114.999s19.5 85.5 19.5 129.5s-6.5 87.333 -19.5 130s-32.5 81 -58.5 115s-58.333 61 -97 81s-82.334 30 -131.001 30s-92.334 -10 -131.001 -30s-71 -47 -97 -81s-45.5 -72.333 -58.5 -115
s-19.5 -86 -19.5 -130s6.5 -87.333 19.5 -130s32.5 -81 58.5 -115s58.333 -61 97 -81s82.334 -30 131.001 -30z" />
    <glyph glyph-name="Otilde" unicode="&#xd5;" horiz-adv-x="704" 
d="M219 751c4 13.333 11.001 24.333 21.001 33s23.333 13 40 13c10 0 19.667 -1.83301 29 -5.5s20.333 -9.5 33 -17.5l4 -2c24 -14 42.333 -21 55 -21c24 0 45.5 8 64.5 24s33.167 37.333 42.5 64h-24c0 -0.666992 -0.666992 -1.66699 -2 -3
c-8.66699 -13.333 -17.167 -23.5 -25.5 -30.5s-18.833 -10.5 -31.5 -10.5c-10.667 0 -28 6.33301 -52 19l-6 3c-28 14.667 -51 22 -69 22c-26 0 -47.333 -8 -64 -24s-29.334 -37.333 -38.001 -64h23zM352.001 672c31.333 0 59.833 -5.33301 85.5 -16
s48.167 -28.5 67.5 -53.5s34.333 -58.833 45 -101.5s16 -95 16 -157s-5.33301 -114.333 -16 -157s-25.834 -76.5 -45.501 -101.5s-42.167 -42.833 -67.5 -53.5s-53.666 -16 -84.999 -16s-59.666 5.33301 -84.999 16s-47.833 28.5 -67.5 53.5s-34.834 58.833 -45.501 101.5
s-16 95 -16 157s5.33301 114.333 16 157s25.834 76.5 45.501 101.5s42.167 42.833 67.5 53.5s53.666 16 84.999 16zM352.001 -12c48.667 0 92.334 10.001 131.001 30.001s71 47.167 97 81.5s45.5 72.666 58.5 114.999s19.5 85.5 19.5 129.5s-6.5 87.333 -19.5 130
s-32.5 81 -58.5 115s-58.333 61 -97 81s-82.334 30 -131.001 30s-92.334 -10 -131.001 -30s-71 -47 -97 -81s-45.5 -72.333 -58.5 -115s-19.5 -86 -19.5 -130s6.5 -87.333 19.5 -130s32.5 -81 58.5 -115s58.333 -61 97 -81s82.334 -30 131.001 -30z" />
    <glyph glyph-name="Odieresis" unicode="&#xd6;" horiz-adv-x="704" 
d="M257 745c11.333 0 20.833 3.83301 28.5 11.5s11.5 16.834 11.5 27.501c0 11.333 -3.83301 21 -11.5 29s-17.167 12 -28.5 12c-10.667 0 -20 -4 -28 -12s-12 -17.667 -12 -29c0 -10.667 3.83301 -19.834 11.5 -27.501s17.167 -11.5 28.5 -11.5zM449 745
c11.333 0 20.833 3.83301 28.5 11.5s11.5 16.834 11.5 27.501c0 11.333 -3.83301 21 -11.5 29s-17.167 12 -28.5 12c-10.667 0 -20 -4 -28 -12s-12 -17.667 -12 -29c0 -10.667 3.83301 -19.834 11.5 -27.501s17.167 -11.5 28.5 -11.5zM352 672
c31.333 0 59.833 -5.33301 85.5 -16s48.167 -28.5 67.5 -53.5s34.333 -58.833 45 -101.5s16 -95 16 -157s-5.33301 -114.333 -16 -157s-25.834 -76.5 -45.501 -101.5s-42.167 -42.833 -67.5 -53.5s-53.666 -16 -84.999 -16s-59.666 5.33301 -84.999 16
s-47.833 28.5 -67.5 53.5s-34.834 58.833 -45.501 101.5s-16 95 -16 157s5.33301 114.333 16 157s25.834 76.5 45.501 101.5s42.167 42.833 67.5 53.5s53.666 16 84.999 16zM352 -12c48.667 0 92.334 10.001 131.001 30.001s71 47.167 97 81.5s45.5 72.666 58.5 114.999
s19.5 85.5 19.5 129.5s-6.5 87.333 -19.5 130s-32.5 81 -58.5 115s-58.333 61 -97 81s-82.334 30 -131.001 30s-92.334 -10 -131.001 -30s-71 -47 -97 -81s-45.5 -72.333 -58.5 -115s-19.5 -86 -19.5 -130s6.5 -87.333 19.5 -130s32.5 -81 58.5 -115s58.333 -61 97 -81
s82.334 -30 131.001 -30z" />
    <glyph glyph-name="multiply" unicode="&#xd7;" horiz-adv-x="600" 
d="M265 235l-200 -199l35 -36l200 200l199 -200l36 36l-200 199l200 200l-36 35l-199 -199l-200 199l-35 -35z" />
    <glyph glyph-name="Oslash" unicode="&#xd8;" horiz-adv-x="704" 
d="M176 125c-25.333 52.667 -38 125.667 -38 219c0 62 5.33301 114.333 16 157s25.834 76.5 45.501 101.5s42.167 42.833 67.5 53.5s53.666 16 84.999 16c32 0 60.833 -5.5 86.5 -16.5s48.167 -29.167 67.5 -54.5zM169 52c50.667 -42.667 111.667 -63.999 183 -63.999
c48.667 0 92.334 10 131.001 30s71 47.167 97 81.5s45.5 72.666 58.5 114.999s19.5 85.5 19.5 129.5c0 50.667 -8.5 99.834 -25.5 147.501s-41.833 88.5 -74.5 122.5l75 110h-42l-59 -86c-50 41.333 -110 62 -180 62c-48.667 0 -92.334 -10 -131.001 -30s-71 -47 -97 -81
s-45.5 -72.333 -58.5 -115s-19.5 -86 -19.5 -130c0 -50 8.16699 -98.333 24.5 -145s40.5 -87.334 72.5 -122.001l-92 -133h44zM526 568.001c12.667 -26.667 22.5 -58.334 29.5 -95.001s10.5 -79.667 10.5 -129c0 -62 -5.33301 -114.333 -16 -157
s-25.834 -76.5 -45.501 -101.5s-42.167 -42.833 -67.5 -53.5s-53.666 -16 -84.999 -16c-32.667 0 -62.167 5.83301 -88.5 17.5s-48.833 30.834 -67.5 57.501z" />
    <glyph glyph-name="Ugrave" unicode="&#xd9;" horiz-adv-x="685" 
d="M385 723l28.999 -0.000976562l-150 141c-15.333 14 -28 21 -38 21c-7.33301 0 -13.666 -2.66699 -18.999 -8s-8 -11.666 -8 -18.999c0 -11.333 5 -20.333 15 -27zM21.999 687.999l-0.00195312 -28.002c20.667 0 36.5 -0.666992 47.5 -2s19.333 -4.16602 25 -8.49902
s9.66699 -11 12 -20s3.5 -21.833 3.5 -38.5v-403c0 -28 3.66699 -54 11 -78s19.5 -45 36.5 -63s39.833 -32.333 68.5 -43s63.667 -16 105 -16c75.333 0 135 18.167 179 54.5s66 91.5 66 165.5v374c0 30 6 50.5 18 61.5s37.333 16.5 76 16.5v28h-220v-28
c38 0 62.833 -5.66699 74.5 -17s17.5 -31.666 17.5 -60.999v-370c0 -65.333 -17 -114.333 -51 -147s-80.333 -49 -139 -49c-36 0 -65.167 4 -87.5 12s-39.166 18.833 -50.499 32.5s-18.833 28.834 -22.5 45.501s-5.5 36 -5.5 58v427c0 16.667 1.16699 29.5 3.5 38.5
s6.5 15.667 12.5 20s14.333 7.16602 25 8.49902s26.334 2 47.001 2v28h-252z" />
    <glyph glyph-name="Uacute" unicode="&#xda;" horiz-adv-x="685" 
d="M277 723l28.999 0.000976562l171 108c10 6.66699 15 15.667 15 27c0 7.33301 -2.66699 13.666 -8 18.999s-11.666 8 -18.999 8c-10 0 -22.667 -7 -38 -21zM21.999 688.001l-0.00195312 -28.002c20.667 0 36.5 -0.666992 47.5 -2s19.333 -4.16602 25 -8.49902
s9.66699 -11 12 -20s3.5 -21.833 3.5 -38.5v-403c0 -28 3.66699 -54 11 -78s19.5 -45 36.5 -63s39.833 -32.333 68.5 -43s63.667 -16 105 -16c75.333 0 135 18.167 179 54.5s66 91.5 66 165.5v374c0 30 6 50.5 18 61.5s37.333 16.5 76 16.5v28h-220v-28
c38 0 62.833 -5.66699 74.5 -17s17.5 -31.666 17.5 -60.999v-370c0 -65.333 -17 -114.333 -51 -147s-80.333 -49 -139 -49c-36 0 -65.167 4 -87.5 12s-39.166 18.833 -50.499 32.5s-18.833 28.834 -22.5 45.501s-5.5 36 -5.5 58v427c0 16.667 1.16699 29.5 3.5 38.5
s6.5 15.667 12.5 20s14.333 7.16602 25 8.49902s26.334 2 47.001 2v28h-252z" />
    <glyph glyph-name="Ucircumflex" unicode="&#xdb;" horiz-adv-x="685" 
d="M363 887h-41l-124 -164h21l124 106l122 -106h23zM22 688l-0.00195312 -28.002c20.667 0 36.5 -0.666992 47.5 -2s19.333 -4.16602 25 -8.49902s9.66699 -11 12 -20s3.5 -21.833 3.5 -38.5v-403c0 -28 3.66699 -54 11 -78s19.5 -45 36.5 -63s39.833 -32.333 68.5 -43
s63.667 -16 105 -16c75.333 0 135 18.167 179 54.5s66 91.5 66 165.5v374c0 30 6 50.5 18 61.5s37.333 16.5 76 16.5v28h-220v-28c38 0 62.833 -5.66699 74.5 -17s17.5 -31.666 17.5 -60.999v-370c0 -65.333 -17 -114.333 -51 -147s-80.333 -49 -139 -49
c-36 0 -65.167 4 -87.5 12s-39.166 18.833 -50.499 32.5s-18.833 28.834 -22.5 45.501s-5.5 36 -5.5 58v427c0 16.667 1.16699 29.5 3.5 38.5s6.5 15.667 12.5 20s14.333 7.16602 25 8.49902s26.334 2 47.001 2v28h-252z" />
    <glyph glyph-name="Udieresis" unicode="&#xdc;" horiz-adv-x="685" 
d="M247 745c11.333 0 20.833 3.83301 28.5 11.5s11.5 16.834 11.5 27.501c0 11.333 -3.83301 21 -11.5 29s-17.167 12 -28.5 12c-10.667 0 -20 -4 -28 -12s-12 -17.667 -12 -29c0 -10.667 3.83301 -19.834 11.5 -27.501s17.167 -11.5 28.5 -11.5zM439 745
c11.333 0 20.833 3.83301 28.5 11.5s11.5 16.834 11.5 27.501c0 11.333 -3.83301 21 -11.5 29s-17.167 12 -28.5 12c-10.667 0 -20 -4 -28 -12s-12 -17.667 -12 -29c0 -10.667 3.83301 -19.834 11.5 -27.501s17.167 -11.5 28.5 -11.5zM22 688l-0.00195312 -28.002
c20.667 0 36.5 -0.666992 47.5 -2s19.333 -4.16602 25 -8.49902s9.66699 -11 12 -20s3.5 -21.833 3.5 -38.5v-403c0 -28 3.66699 -54 11 -78s19.5 -45 36.5 -63s39.833 -32.333 68.5 -43s63.667 -16 105 -16c75.333 0 135 18.167 179 54.5s66 91.5 66 165.5v374
c0 30 6 50.5 18 61.5s37.333 16.5 76 16.5v28h-220v-28c38 0 62.833 -5.66699 74.5 -17s17.5 -31.666 17.5 -60.999v-370c0 -65.333 -17 -114.333 -51 -147s-80.333 -49 -139 -49c-36 0 -65.167 4 -87.5 12s-39.166 18.833 -50.499 32.5s-18.833 28.834 -22.5 45.501
s-5.5 36 -5.5 58v427c0 16.667 1.16699 29.5 3.5 38.5s6.5 15.667 12.5 20s14.333 7.16602 25 8.49902s26.334 2 47.001 2v28h-252z" />
    <glyph glyph-name="Yacute" unicode="&#xdd;" horiz-adv-x="556" 
d="M224 723l28.999 0.000976562l171 108c10 6.66699 15 15.667 15 27c0 7.33301 -2.66699 13.666 -8 18.999s-11.666 8 -18.999 8c-10 0 -22.667 -7 -38 -21zM577.999 688.001l-194.005 0.000976562v-28c25.333 0 43.5 -2.66699 54.5 -8s16.5 -13.333 16.5 -24
c0 -16 -5 -33 -15 -51l-133 -256l-132 262c-4.66699 9.33301 -8.33398 17.833 -11.001 25.5s-4 13.834 -4 18.501c0 14 5.5 23 16.5 27s35.833 6 74.5 6v28h-251v-28c22.667 0 38.834 -1.83301 48.501 -5.5s16.834 -9.83398 21.501 -18.501l179 -346v-193
c0 -16.667 -1.16699 -29.5 -3.5 -38.5s-7.16602 -15.667 -14.499 -20s-17.666 -7.16602 -30.999 -8.49902s-33.333 -2 -60 -2v-28h286v28c-24.667 0 -43.167 0.666992 -55.5 2s-21.833 4.16602 -28.5 8.49902s-11.167 11 -13.5 20s-3.5 21.833 -3.5 38.5v193l177 340
c4.66699 9.33301 13.334 16.666 26.001 21.999s29.334 8 50.001 8v28z" />
    <glyph glyph-name="Thorn" unicode="&#xde;" horiz-adv-x="611" 
d="M125 97c0 -16.667 -1.16406 -29.501 -3.49707 -38.501s-6.66602 -15.667 -12.999 -20s-15.333 -7.16602 -27 -8.49902s-28.834 -2 -51.501 -2v-28h258v28c-20.667 0 -36.334 0.666992 -47.001 2s-18.834 4.16602 -24.501 8.49902s-9.66699 11 -12 20
s-3.5 21.833 -3.5 38.5v91c10.667 0 28 -0.333008 52 -1s41.667 -1 53 -1c88 0 154.167 16 198.5 48s66.5 76.333 66.5 133c0 66.667 -23.833 115.834 -71.5 147.501s-114.834 47.5 -201.501 47.5c-26 0 -58.333 -0.666992 -97 -2v31c0 16.667 1.16699 29.5 3.5 38.5
s6.5 15.667 12.5 20s14.667 7.16602 26 8.49902s28 2 50 2v28h-258v-28c21.333 0 37.5 -0.666992 48.5 -2s19.5 -4.16602 25.5 -8.49902s10.167 -11 12.5 -20s3.5 -21.833 3.5 -38.5v-494zM201.003 516.999c6 5.33301 18 9.5 36 12.5s38.333 4.5 61 4.5
c66 0 113.667 -13.333 143 -40s44 -66.667 44 -120c0 -56 -14.167 -96.667 -42.5 -122s-73.166 -38 -134.499 -38c-11.333 0 -30.333 0.333008 -57 1c-20.667 0.666992 -37.334 1 -50.001 1v301z" />
    <glyph glyph-name="germandbls" unicode="&#xdf;" horiz-adv-x="593" 
d="M172 542c0 39.333 11.3301 68.835 33.9971 88.502s54.667 29.5 96 29.5c35.333 0 66.5 -12.5 93.5 -37.5s40.5 -58.167 40.5 -99.5c0 -17.333 -3 -32.333 -9 -45s-14 -23.167 -24 -31.5s-20.5 -15.166 -31.5 -20.499s-25.167 -11.333 -42.5 -18
c-27.333 -10.667 -47.333 -20.834 -60 -30.501s-19 -23.5 -19 -41.5c0 -21.333 9 -37.833 27 -49.5s46 -23.834 84 -36.501c22.667 -7.33301 41.167 -14.166 55.5 -20.499s28 -13.833 41 -22.5s23.333 -19.5 31 -32.5s11.5 -28.5 11.5 -46.5c0 -31.333 -9 -57.833 -27 -79.5
s-44 -32.5 -78 -32.5c-22 0 -41.167 4.5 -57.5 13.5s-30 21.333 -41 37s-20 33.334 -27 53.001s-12.833 41.5 -17.5 65.5h-28v-185h26c3.33301 7.33301 6.33301 12.666 9 15.999s6.33398 5 11.001 5c2.66699 0 8.33398 -2.33301 17.001 -7
c16 -7.33301 32.167 -13.5 48.5 -18.5s35.833 -7.5 58.5 -7.5c24 0 46.167 4.5 66.5 13.5s37.833 21 52.5 36s25.834 31.333 33.501 49s11.5 34.5 11.5 50.5c0 25.333 -5.16699 47.5 -15.5 66.5s-23.833 34.667 -40.5 47s-33.667 22.166 -51 29.499s-39 15.333 -65 24
c-27.333 9.33301 -47.166 17.333 -59.499 24s-18.5 15 -18.5 25c0 10.667 5.16699 19 15.5 25s27.5 13 51.5 21c19.333 6 35.833 11.833 49.5 17.5s26.5 13.167 38.5 22.5s21.833 21.166 29.5 35.499s11.5 31.833 11.5 52.5c0 24 -5.83301 46 -17.5 66
s-27.334 37 -47.001 51s-41.167 24.833 -64.5 32.5s-46.333 11.5 -69 11.5c-64.667 0 -114.5 -16.333 -149.5 -49s-52.5 -80.667 -52.5 -144v-33h-83v-28h83v-366c0 -15.333 -5.66699 -25.833 -17 -31.5s-33.333 -8.5 -66 -8.5v-28h151v542z" />
    <glyph glyph-name="agrave" unicode="&#xe0;" horiz-adv-x="481" 
d="M266 526l28.999 -0.000976562l-150 141c-15.333 14 -28 21 -38 21c-7.33301 0 -13.666 -2.66699 -18.999 -8s-8 -11.666 -8 -18.999c0 -11.333 5 -20.333 15 -27zM211.999 481.999c-44.667 0 -82.167 -10.001 -112.5 -30.001s-45.5 -44 -45.5 -72c0 -17.333 4 -31 12 -41
s19 -15 33 -15c14.667 0 26.167 5 34.5 15s12.5 21.333 12.5 34s-4.33301 22.834 -13 30.501s-18.334 11.834 -29.001 12.501l-2 2c14 10.667 31 19.334 51 26.001s40.333 10 61 10c34.667 0 60.334 -8 77.001 -24s25 -39 25 -69v-71c-8 -2 -18 -4.33301 -30 -7
c-35.333 -8.66699 -66.166 -17.167 -92.499 -25.5s-52.333 -19 -78 -32s-46.667 -29.5 -63 -49.5s-24.5 -43.667 -24.5 -71c0 -36.667 13.5 -65.334 40.5 -86.001s58.5 -31 94.5 -31c34.667 0 65.167 9.16699 91.5 27.5s46.833 41.833 61.5 70.5h2
c2 -57.333 25.333 -86 70 -86c30 0 51.167 9.66699 63.5 29s18.5 47 18.5 83h-28c0 -28.667 -2.66699 -48.834 -8 -60.501s-13 -17.5 -23 -17.5c-8.66699 0 -15.334 2.5 -20.001 7.5s-7 14.5 -7 28.5v266c0 52.667 -14.167 90.167 -42.5 112.5s-71.5 33.5 -129.5 33.5z
M315.999 191.998c0 -22.667 -3.33203 -44.333 -9.99902 -65s-16 -38.834 -28 -54.501s-26 -28 -42 -37s-32.667 -13.5 -50 -13.5c-21.333 0 -40.333 7.16699 -57 21.5s-25 32.5 -25 54.5c0 28 6.33301 51.667 19 71s29.167 35 49.5 47s41.666 21.333 63.999 28
s48.833 13.334 79.5 20.001v-72z" />
    <glyph glyph-name="aacute" unicode="&#xe1;" horiz-adv-x="481" 
d="M152 526l28.999 0.000976562l171 108c10 6.66699 15 15.667 15 27c0 7.33301 -2.66699 13.666 -8 18.999s-11.666 8 -18.999 8c-10 0 -22.667 -7 -38 -21zM211.999 482.001c-44.667 0 -82.167 -10.001 -112.5 -30.001s-45.5 -44 -45.5 -72c0 -17.333 4 -31 12 -41
s19 -15 33 -15c14.667 0 26.167 5 34.5 15s12.5 21.333 12.5 34s-4.33301 22.834 -13 30.501s-18.334 11.834 -29.001 12.501l-2 2c14 10.667 31 19.334 51 26.001s40.333 10 61 10c34.667 0 60.334 -8 77.001 -24s25 -39 25 -69v-71c-8 -2 -18 -4.33301 -30 -7
c-35.333 -8.66699 -66.166 -17.167 -92.499 -25.5s-52.333 -19 -78 -32s-46.667 -29.5 -63 -49.5s-24.5 -43.667 -24.5 -71c0 -36.667 13.5 -65.334 40.5 -86.001s58.5 -31 94.5 -31c34.667 0 65.167 9.16699 91.5 27.5s46.833 41.833 61.5 70.5h2
c2 -57.333 25.333 -86 70 -86c30 0 51.167 9.66699 63.5 29s18.5 47 18.5 83h-28c0 -28.667 -2.66699 -48.834 -8 -60.501s-13 -17.5 -23 -17.5c-8.66699 0 -15.334 2.5 -20.001 7.5s-7 14.5 -7 28.5v266c0 52.667 -14.167 90.167 -42.5 112.5s-71.5 33.5 -129.5 33.5z
M315.999 192c0 -22.667 -3.33203 -44.333 -9.99902 -65s-16 -38.834 -28 -54.501s-26 -28 -42 -37s-32.667 -13.5 -50 -13.5c-21.333 0 -40.333 7.16699 -57 21.5s-25 32.5 -25 54.5c0 28 6.33301 51.667 19 71s29.167 35 49.5 47s41.666 21.333 63.999 28
s48.833 13.334 79.5 20.001v-72z" />
    <glyph glyph-name="acircumflex" unicode="&#xe2;" horiz-adv-x="481" 
d="M244 690h-41l-124 -164h21l124 106l122 -106h23zM212 482c-44.667 0 -82.167 -10.001 -112.5 -30.001s-45.5 -44 -45.5 -72c0 -17.333 4 -31 12 -41s19 -15 33 -15c14.667 0 26.167 5 34.5 15s12.5 21.333 12.5 34s-4.33301 22.834 -13 30.501
s-18.334 11.834 -29.001 12.501l-2 2c14 10.667 31 19.334 51 26.001s40.333 10 61 10c34.667 0 60.334 -8 77.001 -24s25 -39 25 -69v-71c-8 -2 -18 -4.33301 -30 -7c-35.333 -8.66699 -66.166 -17.167 -92.499 -25.5s-52.333 -19 -78 -32s-46.667 -29.5 -63 -49.5
s-24.5 -43.667 -24.5 -71c0 -36.667 13.5 -65.334 40.5 -86.001s58.5 -31 94.5 -31c34.667 0 65.167 9.16699 91.5 27.5s46.833 41.833 61.5 70.5h2c2 -57.333 25.333 -86 70 -86c30 0 51.167 9.66699 63.5 29s18.5 47 18.5 83h-28c0 -28.667 -2.66699 -48.834 -8 -60.501
s-13 -17.5 -23 -17.5c-8.66699 0 -15.334 2.5 -20.001 7.5s-7 14.5 -7 28.5v266c0 52.667 -14.167 90.167 -42.5 112.5s-71.5 33.5 -129.5 33.5zM316 191.999c0 -22.667 -3.33203 -44.333 -9.99902 -65s-16 -38.834 -28 -54.501s-26 -28 -42 -37s-32.667 -13.5 -50 -13.5
c-21.333 0 -40.333 7.16699 -57 21.5s-25 32.5 -25 54.5c0 28 6.33301 51.667 19 71s29.167 35 49.5 47s41.666 21.333 63.999 28s48.833 13.334 79.5 20.001v-72z" />
    <glyph glyph-name="atilde" unicode="&#xe3;" horiz-adv-x="481" 
d="M90 554c4 13.333 11.001 24.333 21.001 33s23.333 13 40 13c10 0 19.667 -1.83301 29 -5.5s20.333 -9.5 33 -17.5l4 -2c24 -14 42.333 -21 55 -21c24 0 45.5 8 64.5 24s33.167 37.333 42.5 64h-24c0 -0.666992 -0.666992 -1.66699 -2 -3
c-8.66699 -13.333 -17.167 -23.5 -25.5 -30.5s-18.833 -10.5 -31.5 -10.5c-10.667 0 -28 6.33301 -52 19l-6 3c-28 14.667 -51 22 -69 22c-26 0 -47.333 -8 -64 -24s-29.334 -37.333 -38.001 -64h23zM212.001 482c-44.667 0 -82.167 -10.001 -112.5 -30.001
s-45.5 -44 -45.5 -72c0 -17.333 4 -31 12 -41s19 -15 33 -15c14.667 0 26.167 5 34.5 15s12.5 21.333 12.5 34s-4.33301 22.834 -13 30.501s-18.334 11.834 -29.001 12.501l-2 2c14 10.667 31 19.334 51 26.001s40.333 10 61 10c34.667 0 60.334 -8 77.001 -24
s25 -39 25 -69v-71c-8 -2 -18 -4.33301 -30 -7c-35.333 -8.66699 -66.166 -17.167 -92.499 -25.5s-52.333 -19 -78 -32s-46.667 -29.5 -63 -49.5s-24.5 -43.667 -24.5 -71c0 -36.667 13.5 -65.334 40.5 -86.001s58.5 -31 94.5 -31c34.667 0 65.167 9.16699 91.5 27.5
s46.833 41.833 61.5 70.5h2c2 -57.333 25.333 -86 70 -86c30 0 51.167 9.66699 63.5 29s18.5 47 18.5 83h-28c0 -28.667 -2.66699 -48.834 -8 -60.501s-13 -17.5 -23 -17.5c-8.66699 0 -15.334 2.5 -20.001 7.5s-7 14.5 -7 28.5v266c0 52.667 -14.167 90.167 -42.5 112.5
s-71.5 33.5 -129.5 33.5zM316.001 191.999c0 -22.667 -3.33203 -44.333 -9.99902 -65s-16 -38.834 -28 -54.501s-26 -28 -42 -37s-32.667 -13.5 -50 -13.5c-21.333 0 -40.333 7.16699 -57 21.5s-25 32.5 -25 54.5c0 28 6.33301 51.667 19 71s29.167 35 49.5 47
s41.666 21.333 63.999 28s48.833 13.334 79.5 20.001v-72z" />
    <glyph glyph-name="adieresis" unicode="&#xe4;" horiz-adv-x="481" 
d="M128 548c11.333 0 20.833 3.83301 28.5 11.5s11.5 16.834 11.5 27.501c0 11.333 -3.83301 21 -11.5 29s-17.167 12 -28.5 12c-10.667 0 -20 -4 -28 -12s-12 -17.667 -12 -29c0 -10.667 3.83301 -19.834 11.5 -27.501s17.167 -11.5 28.5 -11.5zM320 548
c11.333 0 20.833 3.83301 28.5 11.5s11.5 16.834 11.5 27.501c0 11.333 -3.83301 21 -11.5 29s-17.167 12 -28.5 12c-10.667 0 -20 -4 -28 -12s-12 -17.667 -12 -29c0 -10.667 3.83301 -19.834 11.5 -27.501s17.167 -11.5 28.5 -11.5zM212 482
c-44.667 0 -82.167 -10.001 -112.5 -30.001s-45.5 -44 -45.5 -72c0 -17.333 4 -31 12 -41s19 -15 33 -15c14.667 0 26.167 5 34.5 15s12.5 21.333 12.5 34s-4.33301 22.834 -13 30.501s-18.334 11.834 -29.001 12.501l-2 2c14 10.667 31 19.334 51 26.001s40.333 10 61 10
c34.667 0 60.334 -8 77.001 -24s25 -39 25 -69v-71c-8 -2 -18 -4.33301 -30 -7c-35.333 -8.66699 -66.166 -17.167 -92.499 -25.5s-52.333 -19 -78 -32s-46.667 -29.5 -63 -49.5s-24.5 -43.667 -24.5 -71c0 -36.667 13.5 -65.334 40.5 -86.001s58.5 -31 94.5 -31
c34.667 0 65.167 9.16699 91.5 27.5s46.833 41.833 61.5 70.5h2c2 -57.333 25.333 -86 70 -86c30 0 51.167 9.66699 63.5 29s18.5 47 18.5 83h-28c0 -28.667 -2.66699 -48.834 -8 -60.501s-13 -17.5 -23 -17.5c-8.66699 0 -15.334 2.5 -20.001 7.5s-7 14.5 -7 28.5v266
c0 52.667 -14.167 90.167 -42.5 112.5s-71.5 33.5 -129.5 33.5zM316 191.999c0 -22.667 -3.33203 -44.333 -9.99902 -65s-16 -38.834 -28 -54.501s-26 -28 -42 -37s-32.667 -13.5 -50 -13.5c-21.333 0 -40.333 7.16699 -57 21.5s-25 32.5 -25 54.5
c0 28 6.33301 51.667 19 71s29.167 35 49.5 47s41.666 21.333 63.999 28s48.833 13.334 79.5 20.001v-72z" />
    <glyph glyph-name="aring" unicode="&#xe5;" horiz-adv-x="481" 
d="M223 526c26.667 0 49.5 9.5 68.5 28.5s28.5 41.833 28.5 68.5s-9.5 49.5 -28.5 68.5s-41.833 28.5 -68.5 28.5s-49.5 -9.5 -68.5 -28.5s-28.5 -41.833 -28.5 -68.5c0 -27.333 9.33301 -50.333 28 -69s41.667 -28 69 -28zM223 560
c-19.333 0 -34.668 5.66895 -46.001 17.002s-17 26.666 -17 45.999c0 18.667 5.83301 33.834 17.5 45.501s26.834 17.5 45.501 17.5s33.834 -5.83301 45.501 -17.5s17.5 -26.834 17.5 -45.501s-5.83301 -33.834 -17.5 -45.501s-26.834 -17.5 -45.501 -17.5zM211.998 482.002
c-44.667 0 -82.167 -10.001 -112.5 -30.001s-45.5 -44 -45.5 -72c0 -17.333 4 -31 12 -41s19 -15 33 -15c14.667 0 26.167 5 34.5 15s12.5 21.333 12.5 34s-4.33301 22.834 -13 30.501s-18.334 11.834 -29.001 12.501l-2 2c14 10.667 31 19.334 51 26.001s40.333 10 61 10
c34.667 0 60.334 -8 77.001 -24s25 -39 25 -69v-71c-8 -2 -18 -4.33301 -30 -7c-35.333 -8.66699 -66.166 -17.167 -92.499 -25.5s-52.333 -19 -78 -32s-46.667 -29.5 -63 -49.5s-24.5 -43.667 -24.5 -71c0 -36.667 13.5 -65.334 40.5 -86.001s58.5 -31 94.5 -31
c34.667 0 65.167 9.16699 91.5 27.5s46.833 41.833 61.5 70.5h2c2 -57.333 25.333 -86 70 -86c30 0 51.167 9.66699 63.5 29s18.5 47 18.5 83h-28c0 -28.667 -2.66699 -48.834 -8 -60.501s-13 -17.5 -23 -17.5c-8.66699 0 -15.334 2.5 -20.001 7.5s-7 14.5 -7 28.5v266
c0 52.667 -14.167 90.167 -42.5 112.5s-71.5 33.5 -129.5 33.5zM315.998 192.001c0 -22.667 -3.33203 -44.333 -9.99902 -65s-16 -38.834 -28 -54.501s-26 -28 -42 -37s-32.667 -13.5 -50 -13.5c-21.333 0 -40.333 7.16699 -57 21.5s-25 32.5 -25 54.5
c0 28 6.33301 51.667 19 71s29.167 35 49.5 47s41.666 21.333 63.999 28s48.833 13.334 79.5 20.001v-72z" />
    <glyph glyph-name="ae" unicode="&#xe6;" horiz-adv-x="741" 
d="M304 158c0 -15.333 -2.83301 -30.8311 -8.5 -46.498s-14 -30.334 -25 -44.001s-24 -24.667 -39 -33s-31.5 -12.5 -49.5 -12.5c-21.333 0 -40 7.16699 -56 21.5s-24 32.5 -24 54.5c0 28 6.33301 51.667 19 71s29 34.666 49 45.999s41.5 19.333 64.5 24s46.167 7 69.5 7
v-88zM704 246.002c0 30 -4.50195 59.1641 -13.502 87.4971s-22 53.666 -39 75.999s-37.5 40 -61.5 53s-51 19.5 -81 19.5c-31.333 0 -59.166 -7.16699 -83.499 -21.5s-48.166 -33.166 -71.499 -56.499c-23.333 24 -47 43 -71 57s-52.667 21 -86 21
c-38.667 0 -72.5 -10 -101.5 -30s-43.5 -44 -43.5 -72c0 -17.333 4 -31 12 -41s19 -15 33 -15c14.667 0 26.167 5 34.5 15s12.5 21.333 12.5 34s-4.33301 22.834 -13 30.501s-18.334 11.834 -29.001 12.501l-2 2c10 10.667 23.167 19.334 39.5 26.001s34.833 10 55.5 10
c35.333 0 62.333 -11.667 81 -35s28 -53 28 -89v-56c-24 -0.666992 -51.5 -4.16699 -82.5 -10.5s-61.5 -16 -91.5 -29s-54.833 -30.333 -74.5 -52s-29.5 -47.5 -29.5 -77.5c0 -36.667 13.667 -65.334 41 -86.001s59 -31 95 -31c34 0 67.167 7.5 99.5 22.5
s59.833 38.833 82.5 71.5c25.333 -33.333 50.833 -57.333 76.5 -72s60.167 -22 103.5 -22c38.667 0 72.334 9.66699 101.001 29s52.667 46.333 72 81l-22 14c-18.667 -29.333 -40.334 -52.666 -65.001 -69.999s-52.667 -26 -84 -26c-20 0 -39 4.66699 -57 14
s-33.667 22 -47 38s-23.666 34.5 -30.999 55.5s-11 43.167 -11 66.5v56h324zM379.998 273.999c0 22.667 2.66992 44.6699 8.00293 66.0029s13.333 40.666 24 57.999s24.167 31 40.5 41s35.166 15 56.499 15c23.333 0 43.166 -5.16699 59.499 -15.5
s29.166 -24.333 38.499 -42s15.833 -36.834 19.5 -57.501s5.5 -42.334 5.5 -65.001h-252z" />
    <glyph glyph-name="ccedilla" unicode="&#xe7;" horiz-adv-x="481" 
d="M205 -89l10 -5c10 4 20 6 30 6c14.667 0 27.334 -3.16699 38.001 -9.5s16 -16.5 16 -30.5c0 -14.667 -6 -25.667 -18 -33s-26 -11 -42 -11c-22.667 0 -44 4 -64 12l-10 -30c11.333 -4.66699 23.833 -8.5 37.5 -11.5s27.167 -4.5 40.5 -4.5
c32 0.666992 59.667 7.83398 83 21.501s35 34.167 35 61.5c0 21.333 -7.66699 38.166 -23 50.499s-34 18.5 -56 18.5c-4.66699 0 -11.334 -0.666992 -20.001 -2l-10 -1l29 65h-34zM425 121c-16 -32.667 -36.9971 -58.332 -62.9971 -76.999s-56.667 -28 -92 -28
c-46.667 0 -83.334 19 -110.001 57s-40 91.667 -40 161c0 70.667 13.667 125 41 163s62.333 57 105 57c27.333 0 50.166 -4.33301 68.499 -13s35.833 -24.334 52.5 -47.001c-14.667 -0.666992 -26.5 -4.5 -35.5 -11.5s-13.5 -17.833 -13.5 -32.5c0 -12 4 -22.333 12 -31
s17.667 -13 29 -13c16 0 28.5 4.33301 37.5 13s13.5 22.334 13.5 41.001c0 16 -4.5 31.5 -13.5 46.5s-21.333 28.167 -37 39.5s-33.834 20.166 -54.501 26.499s-42 9.5 -64 9.5c-32.667 0 -62.5 -6.83301 -89.5 -20.5s-50 -32.167 -69 -55.5s-33.5 -49.833 -43.5 -79.5
s-15 -60.167 -15 -91.5s5 -61.833 15 -91.5s24.5 -56.167 43.5 -79.5s42 -41.833 69 -55.5s56.833 -20.5 89.5 -20.5c45.333 0 83 9 113 27s54.333 46.333 73 85z" />
    <glyph glyph-name="egrave" unicode="&#xe8;" horiz-adv-x="500" 
d="M310 526l28.999 -0.000976562l-150 141c-15.333 14 -28 21 -38 21c-7.33301 0 -13.666 -2.66699 -18.999 -8s-8 -11.666 -8 -18.999c0 -11.333 5 -20.333 15 -27zM455.999 245.999c0 30 -4.3291 58.998 -12.9961 86.998s-21.5 53.333 -38.5 76s-37.667 40.5 -62 53.5
s-51.5 19.5 -81.5 19.5c-66.667 0 -119.5 -22.667 -158.5 -68s-58.5 -105 -58.5 -179c0 -31.333 5.16699 -61.833 15.5 -91.5s25.166 -56.167 44.499 -79.5s42.666 -41.833 69.999 -55.5s57.666 -20.5 90.999 -20.5c44 0 79.667 7.33301 107 22s55.333 43.334 84 86.001
l-24 16c-22.667 -33.333 -44.834 -57.666 -66.501 -72.999s-52.5 -23 -92.5 -23c-48 0 -85.5 19 -112.5 57s-40.5 86 -40.5 144v29h336zM120.003 273.997c0 22.667 2.66699 44.6699 8 66.0029s13.5 40.666 24.5 57.999s25 31 42 41s36.5 15 58.5 15
c24 0 44.5 -5.16699 61.5 -15.5s30.167 -24.333 39.5 -42s16 -36.834 20 -57.501s6 -42.334 6 -65.001h-260z" />
    <glyph glyph-name="eacute" unicode="&#xe9;" horiz-adv-x="500" 
d="M191 526l28.999 0.000976562l171 108c10 6.66699 15 15.667 15 27c0 7.33301 -2.66699 13.666 -8 18.999s-11.666 8 -18.999 8c-10 0 -22.667 -7 -38 -21zM455.999 246.001c0 30 -4.3291 58.998 -12.9961 86.998s-21.5 53.333 -38.5 76s-37.667 40.5 -62 53.5
s-51.5 19.5 -81.5 19.5c-66.667 0 -119.5 -22.667 -158.5 -68s-58.5 -105 -58.5 -179c0 -31.333 5.16699 -61.833 15.5 -91.5s25.166 -56.167 44.499 -79.5s42.666 -41.833 69.999 -55.5s57.666 -20.5 90.999 -20.5c44 0 79.667 7.33301 107 22s55.333 43.334 84 86.001
l-24 16c-22.667 -33.333 -44.834 -57.666 -66.501 -72.999s-52.5 -23 -92.5 -23c-48 0 -85.5 19 -112.5 57s-40.5 86 -40.5 144v29h336zM120.003 273.999c0 22.667 2.66699 44.6699 8 66.0029s13.5 40.666 24.5 57.999s25 31 42 41s36.5 15 58.5 15
c24 0 44.5 -5.16699 61.5 -15.5s30.167 -24.333 39.5 -42s16 -36.834 20 -57.501s6 -42.334 6 -65.001h-260z" />
    <glyph glyph-name="ecircumflex" unicode="&#xea;" horiz-adv-x="500" 
d="M283 690h-41l-124 -164h21l124 106l122 -106h23zM456 246c0 30 -4.3291 58.998 -12.9961 86.998s-21.5 53.333 -38.5 76s-37.667 40.5 -62 53.5s-51.5 19.5 -81.5 19.5c-66.667 0 -119.5 -22.667 -158.5 -68s-58.5 -105 -58.5 -179c0 -31.333 5.16699 -61.833 15.5 -91.5
s25.166 -56.167 44.499 -79.5s42.666 -41.833 69.999 -55.5s57.666 -20.5 90.999 -20.5c44 0 79.667 7.33301 107 22s55.333 43.334 84 86.001l-24 16c-22.667 -33.333 -44.834 -57.666 -66.501 -72.999s-52.5 -23 -92.5 -23c-48 0 -85.5 19 -112.5 57s-40.5 86 -40.5 144
v29h336zM120.004 273.998c0 22.667 2.66699 44.6699 8 66.0029s13.5 40.666 24.5 57.999s25 31 42 41s36.5 15 58.5 15c24 0 44.5 -5.16699 61.5 -15.5s30.167 -24.333 39.5 -42s16 -36.834 20 -57.501s6 -42.334 6 -65.001h-260z" />
    <glyph glyph-name="edieresis" unicode="&#xeb;" horiz-adv-x="500" 
d="M167 548c11.333 0 20.833 3.83301 28.5 11.5s11.5 16.834 11.5 27.501c0 11.333 -3.83301 21 -11.5 29s-17.167 12 -28.5 12c-10.667 0 -20 -4 -28 -12s-12 -17.667 -12 -29c0 -10.667 3.83301 -19.834 11.5 -27.501s17.167 -11.5 28.5 -11.5zM359 548
c11.333 0 20.833 3.83301 28.5 11.5s11.5 16.834 11.5 27.501c0 11.333 -3.83301 21 -11.5 29s-17.167 12 -28.5 12c-10.667 0 -20 -4 -28 -12s-12 -17.667 -12 -29c0 -10.667 3.83301 -19.834 11.5 -27.501s17.167 -11.5 28.5 -11.5zM456 246
c0 30 -4.3291 58.998 -12.9961 86.998s-21.5 53.333 -38.5 76s-37.667 40.5 -62 53.5s-51.5 19.5 -81.5 19.5c-66.667 0 -119.5 -22.667 -158.5 -68s-58.5 -105 -58.5 -179c0 -31.333 5.16699 -61.833 15.5 -91.5s25.166 -56.167 44.499 -79.5s42.666 -41.833 69.999 -55.5
s57.666 -20.5 90.999 -20.5c44 0 79.667 7.33301 107 22s55.333 43.334 84 86.001l-24 16c-22.667 -33.333 -44.834 -57.666 -66.501 -72.999s-52.5 -23 -92.5 -23c-48 0 -85.5 19 -112.5 57s-40.5 86 -40.5 144v29h336zM120.004 273.998
c0 22.667 2.66699 44.6699 8 66.0029s13.5 40.666 24.5 57.999s25 31 42 41s36.5 15 58.5 15c24 0 44.5 -5.16699 61.5 -15.5s30.167 -24.333 39.5 -42s16 -36.834 20 -57.501s6 -42.334 6 -65.001h-260z" />
    <glyph glyph-name="igrave" unicode="&#xec;" horiz-adv-x="259" 
d="M155 526l28.999 -0.000976562l-150 141c-15.333 14 -28 21 -38 21c-7.33301 0 -13.666 -2.66699 -18.999 -8s-8 -11.666 -8 -18.999c0 -11.333 5 -20.333 15 -27zM246.999 27.999c-32 0 -53.667 2.83301 -65 8.5s-17 16.167 -17 31.5v408l-147 -6v-28
c30.667 0 51.5 -2.83301 62.5 -8.5s16.5 -16.167 16.5 -31.5v-334c0 -15.333 -5.83301 -25.833 -17.5 -31.5s-34.5 -8.5 -68.5 -8.5v-28h236v28z" />
    <glyph glyph-name="iacute" unicode="&#xed;" horiz-adv-x="259" 
d="M41 526l28.999 0.000976562l171 108c10 6.66699 15 15.667 15 27c0 7.33301 -2.66699 13.666 -8 18.999s-11.666 8 -18.999 8c-10 0 -22.667 -7 -38 -21zM246.999 28.001c-32 0 -53.667 2.83301 -65 8.5s-17 16.167 -17 31.5v408l-147 -6v-28
c30.667 0 51.5 -2.83301 62.5 -8.5s16.5 -16.167 16.5 -31.5v-334c0 -15.333 -5.83301 -25.833 -17.5 -31.5s-34.5 -8.5 -68.5 -8.5v-28h236v28z" />
    <glyph glyph-name="icircumflex" unicode="&#xee;" horiz-adv-x="259" 
d="M133 690h-41l-124 -164h21l124 106l122 -106h23zM247 28c-32 0 -53.667 2.83301 -65 8.5s-17 16.167 -17 31.5v408l-147 -6v-28c30.667 0 51.5 -2.83301 62.5 -8.5s16.5 -16.167 16.5 -31.5v-334c0 -15.333 -5.83301 -25.833 -17.5 -31.5s-34.5 -8.5 -68.5 -8.5v-28h236
v28z" />
    <glyph glyph-name="idieresis" unicode="&#xef;" horiz-adv-x="259" 
d="M17 548c11.333 0 20.833 3.83301 28.5 11.5s11.5 16.834 11.5 27.501c0 11.333 -3.83301 21 -11.5 29s-17.167 12 -28.5 12s-20.833 -4 -28.5 -12s-11.5 -17.667 -11.5 -29c0 -10.667 3.83301 -19.834 11.5 -27.501s17.167 -11.5 28.5 -11.5zM209 548
c11.333 0 20.833 3.83301 28.5 11.5s11.5 16.834 11.5 27.501c0 11.333 -3.83301 21 -11.5 29s-17.167 12 -28.5 12c-10.667 0 -20 -4 -28 -12s-12 -17.667 -12 -29c0 -10.667 3.83301 -19.834 11.5 -27.501s17.167 -11.5 28.5 -11.5zM247 28c-32 0 -53.667 2.83301 -65 8.5
s-17 16.167 -17 31.5v408l-147 -6v-28c30.667 0 51.5 -2.83301 62.5 -8.5s16.5 -16.167 16.5 -31.5v-334c0 -15.333 -5.83301 -25.833 -17.5 -31.5s-34.5 -8.5 -68.5 -8.5v-28h236v28z" />
    <glyph glyph-name="eth" unicode="&#xf0;" 
d="M260 438c46.667 0 81.666 -17.833 104.999 -53.5s35 -86.834 35 -153.501c0 -70 -11.5 -123.333 -34.5 -160s-58.5 -55 -106.5 -55c-47.333 0 -82.666 18.333 -105.999 55s-35 90 -35 160c0 66.667 11.833 117.834 35.5 153.501s59.167 53.5 106.5 53.5zM277.999 619
c50.667 -39.333 85.333 -103.002 104 -191.002l-2 -2c-32.667 26.667 -73 40 -121 40c-32.667 0 -62.5 -6.5 -89.5 -19.5s-50 -30.667 -69 -53s-33.5 -47.666 -43.5 -75.999s-15 -57.166 -15 -86.499c0 -30 5 -59.667 15 -89s24.5 -55.5 43.5 -78.5s42 -41.333 69 -55
s56.833 -20.5 89.5 -20.5c67.333 0 120.333 24.333 159 73s58 113 58 193c0 88.667 -12.167 166.5 -36.5 233.5s-63.5 119.167 -117.5 156.5l90 51l-25 23l-98 -55c-45.333 22.667 -99.333 35 -162 37l-6 -28c50 -2.66699 92 -13.667 126 -33l-96 -55l24 -23z" />
    <glyph glyph-name="ntilde" unicode="&#xf1;" horiz-adv-x="556" 
d="M145 554c4 13.333 11.001 24.333 21.001 33s23.333 13 40 13c10 0 19.667 -1.83301 29 -5.5s20.333 -9.5 33 -17.5l4 -2c24 -14 42.333 -21 55 -21c24 0 45.5 8 64.5 24s33.167 37.333 42.5 64h-24c0 -0.666992 -0.666992 -1.66699 -2 -3
c-8.66699 -13.333 -17.167 -23.5 -25.5 -30.5s-18.833 -10.5 -31.5 -10.5c-10.667 0 -28 6.33301 -52 19l-6 3c-28 14.667 -51 22 -69 22c-26 0 -47.333 -8 -64 -24s-29.334 -37.333 -38.001 -64h23zM544.001 0l-0.000976562 28.002c-32 0 -53 2.83301 -63 8.5
s-15 16.167 -15 31.5v276c0 43.333 -13.333 77.166 -40 101.499s-62 36.5 -106 36.5c-36 0 -65.5 -7.5 -88.5 -22.5s-44.833 -38.833 -65.5 -71.5h-2v88l-147 -6v-28c30.667 0 51.5 -2.83301 62.5 -8.5s16.5 -16.167 16.5 -31.5v-334c0 -15.333 -5.66699 -25.833 -17 -31.5
s-34 -8.5 -68 -8.5v-28h233v28c-31.333 0 -52.5 2.83301 -63.5 8.5s-16.5 16.167 -16.5 31.5v209c0 18.667 3 38.167 9 58.5s14.833 39.666 26.5 57.999s25.834 33 42.501 44s35 16.5 55 16.5c34.667 0 60.167 -9.5 76.5 -28.5s24.5 -46.167 24.5 -81.5v-344h146z" />
    <glyph glyph-name="ograve" unicode="&#xf2;" 
d="M302 526l28.999 -0.000976562l-150 141c-15.333 14 -28 21 -38 21c-7.33301 0 -13.666 -2.66699 -18.999 -8s-8 -11.666 -8 -18.999c0 -11.333 5 -20.333 15 -27zM258.999 -12.001c33.333 0 63.333 6.83301 90 20.5s49.5 32.167 68.5 55.5s33.5 49.833 43.5 79.5
s15 60.167 15 91.5s-5 61.833 -15 91.5s-24.5 56.167 -43.5 79.5s-41.833 41.833 -68.5 55.5s-56.667 20.5 -90 20.5c-32.667 0 -62.5 -6.83301 -89.5 -20.5s-50 -32.167 -69 -55.5s-33.5 -49.833 -43.5 -79.5s-15 -60.167 -15 -91.5s5 -61.833 15 -91.5
s24.5 -56.167 43.5 -79.5s42 -41.833 69 -55.5s56.833 -20.5 89.5 -20.5zM258.999 15.999c-48 0 -83.5 18.5 -106.5 55.5s-34.5 91.5 -34.5 163.5s11.5 126.5 34.5 163.5s58.5 55.5 106.5 55.5s83.5 -18.5 106.5 -55.5s34.5 -91.5 34.5 -163.5s-11.5 -126.5 -34.5 -163.5
s-58.5 -55.5 -106.5 -55.5z" />
    <glyph glyph-name="oacute" unicode="&#xf3;" 
d="M188 526l28.999 0.000976562l171 108c10 6.66699 15 15.667 15 27c0 7.33301 -2.66699 13.666 -8 18.999s-11.666 8 -18.999 8c-10 0 -22.667 -7 -38 -21zM258.999 -11.999c33.333 0 63.333 6.83301 90 20.5s49.5 32.167 68.5 55.5s33.5 49.833 43.5 79.5
s15 60.167 15 91.5s-5 61.833 -15 91.5s-24.5 56.167 -43.5 79.5s-41.833 41.833 -68.5 55.5s-56.667 20.5 -90 20.5c-32.667 0 -62.5 -6.83301 -89.5 -20.5s-50 -32.167 -69 -55.5s-33.5 -49.833 -43.5 -79.5s-15 -60.167 -15 -91.5s5 -61.833 15 -91.5
s24.5 -56.167 43.5 -79.5s42 -41.833 69 -55.5s56.833 -20.5 89.5 -20.5zM258.999 16.001c-48 0 -83.5 18.5 -106.5 55.5s-34.5 91.5 -34.5 163.5s11.5 126.5 34.5 163.5s58.5 55.5 106.5 55.5s83.5 -18.5 106.5 -55.5s34.5 -91.5 34.5 -163.5s-11.5 -126.5 -34.5 -163.5
s-58.5 -55.5 -106.5 -55.5z" />
    <glyph glyph-name="ocircumflex" unicode="&#xf4;" 
d="M280 690h-41l-124 -164h21l124 106l122 -106h23zM259 -12c33.333 0 63.333 6.83301 90 20.5s49.5 32.167 68.5 55.5s33.5 49.833 43.5 79.5s15 60.167 15 91.5s-5 61.833 -15 91.5s-24.5 56.167 -43.5 79.5s-41.833 41.833 -68.5 55.5s-56.667 20.5 -90 20.5
c-32.667 0 -62.5 -6.83301 -89.5 -20.5s-50 -32.167 -69 -55.5s-33.5 -49.833 -43.5 -79.5s-15 -60.167 -15 -91.5s5 -61.833 15 -91.5s24.5 -56.167 43.5 -79.5s42 -41.833 69 -55.5s56.833 -20.5 89.5 -20.5zM259 16c-48 0 -83.5 18.5 -106.5 55.5s-34.5 91.5 -34.5 163.5
s11.5 126.5 34.5 163.5s58.5 55.5 106.5 55.5s83.5 -18.5 106.5 -55.5s34.5 -91.5 34.5 -163.5s-11.5 -126.5 -34.5 -163.5s-58.5 -55.5 -106.5 -55.5z" />
    <glyph glyph-name="otilde" unicode="&#xf5;" 
d="M126 554c4 13.333 11.001 24.333 21.001 33s23.333 13 40 13c10 0 19.667 -1.83301 29 -5.5s20.333 -9.5 33 -17.5l4 -2c24 -14 42.333 -21 55 -21c24 0 45.5 8 64.5 24s33.167 37.333 42.5 64h-24c0 -0.666992 -0.666992 -1.66699 -2 -3
c-8.66699 -13.333 -17.167 -23.5 -25.5 -30.5s-18.833 -10.5 -31.5 -10.5c-10.667 0 -28 6.33301 -52 19l-6 3c-28 14.667 -51 22 -69 22c-26 0 -47.333 -8 -64 -24s-29.334 -37.333 -38.001 -64h23zM259.001 -12c33.333 0 63.333 6.83301 90 20.5s49.5 32.167 68.5 55.5
s33.5 49.833 43.5 79.5s15 60.167 15 91.5s-5 61.833 -15 91.5s-24.5 56.167 -43.5 79.5s-41.833 41.833 -68.5 55.5s-56.667 20.5 -90 20.5c-32.667 0 -62.5 -6.83301 -89.5 -20.5s-50 -32.167 -69 -55.5s-33.5 -49.833 -43.5 -79.5s-15 -60.167 -15 -91.5
s5 -61.833 15 -91.5s24.5 -56.167 43.5 -79.5s42 -41.833 69 -55.5s56.833 -20.5 89.5 -20.5zM259.001 16c-48 0 -83.5 18.5 -106.5 55.5s-34.5 91.5 -34.5 163.5s11.5 126.5 34.5 163.5s58.5 55.5 106.5 55.5s83.5 -18.5 106.5 -55.5s34.5 -91.5 34.5 -163.5
s-11.5 -126.5 -34.5 -163.5s-58.5 -55.5 -106.5 -55.5z" />
    <glyph glyph-name="odieresis" unicode="&#xf6;" 
d="M164 548c11.333 0 20.833 3.83301 28.5 11.5s11.5 16.834 11.5 27.501c0 11.333 -3.83301 21 -11.5 29s-17.167 12 -28.5 12c-10.667 0 -20 -4 -28 -12s-12 -17.667 -12 -29c0 -10.667 3.83301 -19.834 11.5 -27.501s17.167 -11.5 28.5 -11.5zM356 548
c11.333 0 20.833 3.83301 28.5 11.5s11.5 16.834 11.5 27.501c0 11.333 -3.83301 21 -11.5 29s-17.167 12 -28.5 12c-10.667 0 -20 -4 -28 -12s-12 -17.667 -12 -29c0 -10.667 3.83301 -19.834 11.5 -27.501s17.167 -11.5 28.5 -11.5zM259 -12
c33.333 0 63.333 6.83301 90 20.5s49.5 32.167 68.5 55.5s33.5 49.833 43.5 79.5s15 60.167 15 91.5s-5 61.833 -15 91.5s-24.5 56.167 -43.5 79.5s-41.833 41.833 -68.5 55.5s-56.667 20.5 -90 20.5c-32.667 0 -62.5 -6.83301 -89.5 -20.5s-50 -32.167 -69 -55.5
s-33.5 -49.833 -43.5 -79.5s-15 -60.167 -15 -91.5s5 -61.833 15 -91.5s24.5 -56.167 43.5 -79.5s42 -41.833 69 -55.5s56.833 -20.5 89.5 -20.5zM259 16c-48 0 -83.5 18.5 -106.5 55.5s-34.5 91.5 -34.5 163.5s11.5 126.5 34.5 163.5s58.5 55.5 106.5 55.5
s83.5 -18.5 106.5 -55.5s34.5 -91.5 34.5 -163.5s-11.5 -126.5 -34.5 -163.5s-58.5 -55.5 -106.5 -55.5z" />
    <glyph glyph-name="divide" unicode="&#xf7;" horiz-adv-x="600" 
d="M245 422c0 -15.333 5.66797 -28.5 17.001 -39.5s24.666 -16.5 39.999 -16.5c14.667 0 27.5 5.83301 38.5 17.5s16.5 24.5 16.5 38.5c0 14.667 -5.66699 27.667 -17 39s-24.333 17 -39 17c-15.333 0 -28.5 -5.5 -39.5 -16.5s-16.5 -24.167 -16.5 -39.5zM246.001 48
c0 -15.333 5.66797 -28.5 17.001 -39.5s24.666 -16.5 39.999 -16.5c14.667 0 27.5 5.83301 38.5 17.5s16.5 24.5 16.5 38.5c0 14.667 -5.66699 27.667 -17 39s-24.333 17 -39 17c-15.333 0 -28.5 -5.5 -39.5 -16.5s-16.5 -24.167 -16.5 -39.5zM535.002 210v50h-470v-50h470z
" />
    <glyph glyph-name="oslash" unicode="&#xf8;" 
d="M368 393c21.333 -34.667 31.999 -87.333 31.999 -158c0 -72 -11.5 -126.5 -34.5 -163.5s-58.5 -55.5 -106.5 -55.5c-39.333 0 -69.666 12.333 -90.999 37zM147.999 82.001c-20 34 -30.001 85 -30.001 153c0 72 11.5 126.5 34.5 163.5s58.5 55.5 106.5 55.5
c36.667 0 66.334 -11.333 89.001 -34zM46.998 -87.999l37.002 -0.000976562l65 108c33.333 -21.333 70 -32 110 -32c33.333 0 63.333 6.83301 90 20.5s49.5 32.167 68.5 55.5s33.5 49.833 43.5 79.5s15 60.167 15 91.5c0 38.667 -7.33301 75.667 -22 111
s-35.334 64.333 -62.001 87l71 121h-35l-61 -103c-33.333 20.667 -69.333 31 -108 31c-32.667 0 -62.5 -6.83301 -89.5 -20.5s-50 -32.167 -69 -55.5s-33.5 -49.833 -43.5 -79.5s-15 -60.167 -15 -91.5c0 -37.333 7.16699 -73.166 21.5 -107.499s34.166 -63.5 59.499 -87.5z
" />
    <glyph glyph-name="ugrave" unicode="&#xf9;" horiz-adv-x="556" 
d="M321 526l28.999 -0.000976562l-150 141c-15.333 14 -28 21 -38 21c-7.33301 0 -13.666 -2.66699 -18.999 -8s-8 -11.666 -8 -18.999c0 -11.333 5 -20.333 15 -27zM464.999 475.999l-147 -6.00195v-28c30.667 0 51.5 -2.83301 62.5 -8.5s16.5 -16.167 16.5 -31.5v-206
c0 -55.333 -12.667 -99.166 -38 -131.499s-59.333 -48.5 -102 -48.5c-30 0 -53.167 8.33301 -69.5 25s-24.5 40.667 -24.5 72v363l-147 -6v-28c30.667 0 51.5 -2.83301 62.5 -8.5s16.5 -16.167 16.5 -31.5v-282c0 -47.333 13.333 -81.166 40 -101.499
s63.334 -30.5 110.001 -30.5c36.667 0 66 6.5 88 19.5s42.667 33.167 62 60.5h2v-74l143 6v28c-28.667 0 -48.334 2.83301 -59.001 8.5s-16 16.167 -16 31.5v408z" />
    <glyph glyph-name="uacute" unicode="&#xfa;" horiz-adv-x="556" 
d="M207 526l28.999 0.000976562l171 108c10 6.66699 15 15.667 15 27c0 7.33301 -2.66699 13.666 -8 18.999s-11.666 8 -18.999 8c-10 0 -22.667 -7 -38 -21zM464.999 476.001l-147 -6.00195v-28c30.667 0 51.5 -2.83301 62.5 -8.5s16.5 -16.167 16.5 -31.5v-206
c0 -55.333 -12.667 -99.166 -38 -131.499s-59.333 -48.5 -102 -48.5c-30 0 -53.167 8.33301 -69.5 25s-24.5 40.667 -24.5 72v363l-147 -6v-28c30.667 0 51.5 -2.83301 62.5 -8.5s16.5 -16.167 16.5 -31.5v-282c0 -47.333 13.333 -81.166 40 -101.499
s63.334 -30.5 110.001 -30.5c36.667 0 66 6.5 88 19.5s42.667 33.167 62 60.5h2v-74l143 6v28c-28.667 0 -48.334 2.83301 -59.001 8.5s-16 16.167 -16 31.5v408z" />
    <glyph glyph-name="ucircumflex" unicode="&#xfb;" horiz-adv-x="556" 
d="M299 690h-41l-124 -164h21l124 106l122 -106h23zM465 476l-147 -6.00195v-28c30.667 0 51.5 -2.83301 62.5 -8.5s16.5 -16.167 16.5 -31.5v-206c0 -55.333 -12.667 -99.166 -38 -131.499s-59.333 -48.5 -102 -48.5c-30 0 -53.167 8.33301 -69.5 25s-24.5 40.667 -24.5 72
v363l-147 -6v-28c30.667 0 51.5 -2.83301 62.5 -8.5s16.5 -16.167 16.5 -31.5v-282c0 -47.333 13.333 -81.166 40 -101.499s63.334 -30.5 110.001 -30.5c36.667 0 66 6.5 88 19.5s42.667 33.167 62 60.5h2v-74l143 6v28c-28.667 0 -48.334 2.83301 -59.001 8.5
s-16 16.167 -16 31.5v408z" />
    <glyph glyph-name="udieresis" unicode="&#xfc;" horiz-adv-x="556" 
d="M183 548c11.333 0 20.833 3.83301 28.5 11.5s11.5 16.834 11.5 27.501c0 11.333 -3.83301 21 -11.5 29s-17.167 12 -28.5 12c-10.667 0 -20 -4 -28 -12s-12 -17.667 -12 -29c0 -10.667 3.83301 -19.834 11.5 -27.501s17.167 -11.5 28.5 -11.5zM375 548
c11.333 0 20.833 3.83301 28.5 11.5s11.5 16.834 11.5 27.501c0 11.333 -3.83301 21 -11.5 29s-17.167 12 -28.5 12c-10.667 0 -20 -4 -28 -12s-12 -17.667 -12 -29c0 -10.667 3.83301 -19.834 11.5 -27.501s17.167 -11.5 28.5 -11.5zM465 476l-147 -6.00195v-28
c30.667 0 51.5 -2.83301 62.5 -8.5s16.5 -16.167 16.5 -31.5v-206c0 -55.333 -12.667 -99.166 -38 -131.499s-59.333 -48.5 -102 -48.5c-30 0 -53.167 8.33301 -69.5 25s-24.5 40.667 -24.5 72v363l-147 -6v-28c30.667 0 51.5 -2.83301 62.5 -8.5s16.5 -16.167 16.5 -31.5
v-282c0 -47.333 13.333 -81.166 40 -101.499s63.334 -30.5 110.001 -30.5c36.667 0 66 6.5 88 19.5s42.667 33.167 62 60.5h2v-74l143 6v28c-28.667 0 -48.334 2.83301 -59.001 8.5s-16 16.167 -16 31.5v408z" />
    <glyph glyph-name="yacute" unicode="&#xfd;" horiz-adv-x="500" 
d="M185 526l28.999 0.000976562l171 108c10 6.66699 15 15.667 15 27c0 7.33301 -2.66699 13.666 -8 18.999s-11.666 8 -18.999 8c-10 0 -22.667 -7 -38 -21zM-2.00098 442.001c21.333 0 38.0029 -2.66699 50.0029 -8s21 -15.333 27 -30l156 -392
c-12.667 -48.667 -29.334 -86.5 -50.001 -113.5s-45 -40.5 -73 -40.5c-26.667 0 -44 6 -52 18c31.333 2 47 18.333 47 49c0 10.667 -4.33301 19.834 -13 27.501s-19 11.5 -31 11.5c-14 0 -26 -5.16699 -36 -15.5s-15 -23.166 -15 -38.499c0 -22 9.33301 -40.833 28 -56.5
s41 -23.5 67 -23.5c19.333 0 36 3 50 9s27 15.833 39 29.5s23.667 31.5 35 53.5s24.333 51.333 39 88l150 375c9.33301 23.333 19.666 38.666 30.999 45.999s29.666 11 54.999 11v28h-190v-28c28.667 0 48.167 -2.33301 58.5 -7s15.5 -13 15.5 -25
c0 -10.667 -4.66699 -28.334 -14 -53.001s-24.333 -62.334 -45 -113.001l-59 -147h-2l-46 112l-60.5 150.5c-11.667 30.333 -17.5 49.833 -17.5 58.5s5 14.834 15 18.501s32 5.5 66 5.5v28h-225v-28z" />
    <glyph glyph-name="thorn" unicode="&#xfe;" horiz-adv-x="556" 
d="M96 -102c0 -15.333 -5.83203 -25.833 -17.499 -31.5s-34.5 -8.5 -68.5 -8.5v-28h236v28c-32 0 -53.667 2.83301 -65 8.5s-17 16.167 -17 31.5v153h2c30 -42 73 -63 129 -63c33.333 0 63.333 6.83301 90 20.5s49.5 32.167 68.5 55.5s33.5 49.833 43.5 79.5
s15 60.167 15 91.5s-4.83301 61.833 -14.5 91.5s-23.5 56.167 -41.5 79.5s-39.333 41.833 -64 55.5s-51.667 20.5 -81 20.5c-36 0 -63.167 -6.66699 -81.5 -20s-36.833 -34 -55.5 -62c-2.66699 -4.66699 -5.33398 -8.66699 -8.00098 -12h-2v300l-147 -4v-28
c30.667 0 51.5 -2.83301 62.5 -8.5s16.5 -16.167 16.5 -31.5v-718zM302.001 454c40.667 0 73.835 -18 99.502 -54s38.5 -91 38.5 -165s-12.833 -129 -38.5 -165s-58.834 -54 -99.501 -54c-26.667 0 -48.667 3.5 -66 10.5s-31.333 18.667 -42 35s-18.334 38.5 -23.001 66.5
s-7 63.667 -7 107c0 74 13 129 39 165s59 54 99 54z" />
    <glyph glyph-name="ydieresis" unicode="&#xff;" horiz-adv-x="500" 
d="M161 548c11.333 0 20.833 3.83301 28.5 11.5s11.5 16.834 11.5 27.501c0 11.333 -3.83301 21 -11.5 29s-17.167 12 -28.5 12c-10.667 0 -20 -4 -28 -12s-12 -17.667 -12 -29c0 -10.667 3.83301 -19.834 11.5 -27.501s17.167 -11.5 28.5 -11.5zM353 548
c11.333 0 20.833 3.83301 28.5 11.5s11.5 16.834 11.5 27.501c0 11.333 -3.83301 21 -11.5 29s-17.167 12 -28.5 12c-10.667 0 -20 -4 -28 -12s-12 -17.667 -12 -29c0 -10.667 3.83301 -19.834 11.5 -27.501s17.167 -11.5 28.5 -11.5zM-2 442
c21.333 0 38.0029 -2.66699 50.0029 -8s21 -15.333 27 -30l156 -392c-12.667 -48.667 -29.334 -86.5 -50.001 -113.5s-45 -40.5 -73 -40.5c-26.667 0 -44 6 -52 18c31.333 2 47 18.333 47 49c0 10.667 -4.33301 19.834 -13 27.501s-19 11.5 -31 11.5
c-14 0 -26 -5.16699 -36 -15.5s-15 -23.166 -15 -38.499c0 -22 9.33301 -40.833 28 -56.5s41 -23.5 67 -23.5c19.333 0 36 3 50 9s27 15.833 39 29.5s23.667 31.5 35 53.5s24.333 51.333 39 88l150 375c9.33301 23.333 19.666 38.666 30.999 45.999s29.666 11 54.999 11v28
h-190v-28c28.667 0 48.167 -2.33301 58.5 -7s15.5 -13 15.5 -25c0 -10.667 -4.66699 -28.334 -14 -53.001s-24.333 -62.334 -45 -113.001l-59 -147h-2l-46 112l-60.5 150.5c-11.667 30.333 -17.5 49.833 -17.5 58.5s5 14.834 15 18.501s32 5.5 66 5.5v28h-225v-28z" />
    <glyph glyph-name="OE" unicode="&#x152;" horiz-adv-x="981" 
d="M904 260l-26.9951 0.000976562c-11.333 -85.333 -35 -145.333 -71 -180c-18.667 -18 -42.167 -31.167 -70.5 -39.5s-63.166 -12.5 -104.499 -12.5c-32 0 -55.167 3.16699 -69.5 9.5s-21.5 17.166 -21.5 32.499v276h52c38 0 64.833 -10.167 80.5 -30.5
s24.167 -50.166 25.5 -89.499h28v268h-28c-1.33301 -39.333 -9.83301 -69.166 -25.5 -89.499s-42.5 -30.5 -80.5 -30.5h-52v230c0 24 5.83301 39.333 17.5 46s32.5 10 62.5 10c40 0 73.667 -3.16699 101 -9.5s50.666 -17.333 69.999 -33s35 -37.834 47 -66.501
s20.333 -65.334 25 -110.001h27l-6 247h-534c-50.667 0 -95.834 -9.83301 -135.501 -29.5s-72.834 -46.667 -99.501 -81s-46.834 -72.833 -60.501 -115.5s-20.5 -86.667 -20.5 -132c0 -38.667 6.5 -77.5 19.5 -116.5s31.167 -74.833 54.5 -107.5s50.666 -58.5 81.999 -77.5
s64.666 -28.5 99.999 -28.5h608zM332.005 660.001c39.333 0 71.167 -7.16699 95.5 -21.5s36.5 -34.5 36.5 -60.5v-468c0 -22 -12.667 -41.167 -38 -57.5s-56 -24.5 -92 -24.5c-32 0 -60.5 5 -85.5 15s-46.667 26.5 -65 49.5s-32.5 54 -42.5 93s-15 86.5 -15 142.5
c0 108 17.167 190.333 51.5 247s85.833 85 154.5 85z" />
    <glyph glyph-name="oe" unicode="&#x153;" horiz-adv-x="852" 
d="M806 246c0 30 -4.33008 58.998 -12.9971 86.998s-21.5 53.333 -38.5 76s-37.667 40.5 -62 53.5s-51.5 19.5 -81.5 19.5c-37.333 0 -71 -8.83301 -101 -26.5s-55.333 -42.834 -76 -75.501c-21.333 32.667 -46.833 57.834 -76.5 75.501s-62.834 26.5 -99.501 26.5
c-32.667 0 -62.834 -6.83301 -90.501 -20.5s-51.334 -32.167 -71.001 -55.5s-34.667 -49.833 -45 -79.5s-15.5 -60.167 -15.5 -91.5s5.16699 -61.833 15.5 -91.5s25.333 -56.167 45 -79.5s43.334 -41.833 71.001 -55.5s57.834 -20.5 90.501 -20.5
c37.333 0 71.333 9.5 102 28.5s56 44.833 76 77.5c24 -34.667 50.5 -61 79.5 -79s62.167 -27 99.5 -27c44 0 79.667 7.33301 107 22s55.333 43.334 84 86.001l-24 16c-22.667 -33.333 -44.834 -57.666 -66.501 -72.999s-51.834 -23 -90.501 -23
c-44.667 0 -82 19.667 -112 59c-13.333 18 -23.833 39.333 -31.5 64s-11.5 50.667 -11.5 78v29h336zM112.003 234.998c0 72 11.5 126.5 34.5 163.5s58.5 55.5 106.5 55.5s83.5 -18.5 106.5 -55.5s34.5 -91.5 34.5 -163.5s-11.5 -126.5 -34.5 -163.5
s-58.5 -55.5 -106.5 -55.5s-83.5 18.5 -106.5 55.5s-34.5 91.5 -34.5 163.5zM470.003 273.998c0 22.667 2.66699 44.668 8 66.001s13.5 40.666 24.5 57.999s25 31 42 41s36.5 15 58.5 15c24 0 44.167 -5 60.5 -15s29.333 -23.5 39 -40.5s16.667 -36 21 -57
s6.5 -43.5 6.5 -67.5h-260z" />
    <glyph glyph-name="Scaron" unicode="&#x160;" horiz-adv-x="556" 
d="M265 723h41l124 164h-21l-124 -106l-122 106h-23zM478 455l-0.00976562 232.998h-30c-2 -4 -4.66699 -9.66699 -8 -17c-5.33301 -11.333 -9.66602 -19.833 -12.999 -25.5s-7.33301 -8.5 -12 -8.5c-2.66699 0 -9 4 -19 12c-18.667 14.667 -38.167 26.834 -58.5 36.501
s-45.833 14.5 -76.5 14.5s-58.667 -5.33301 -84 -16s-46.833 -24.667 -64.5 -42s-31 -36.666 -40 -57.999s-13.5 -42.333 -13.5 -63c0 -34 5.83301 -62.5 17.5 -85.5s27.167 -41.5 46.5 -55.5s39.833 -25 61.5 -33s49.834 -16.667 84.501 -26
c29.333 -8.66699 52.833 -16 70.5 -22s34.334 -14.167 50.001 -24.5s28 -23.333 37 -39s13.5 -34.834 13.5 -57.501c0 -52.667 -14 -92.834 -42 -120.501s-68 -41.5 -120 -41.5c-32.667 0 -61.167 6.83301 -85.5 20.5s-44.666 32 -60.999 55s-29.333 48.667 -39 77
s-16.5 58.166 -20.5 89.499h-28v-258h28c0.666992 2 2 5.66699 4 11c3.33301 10 7 17.833 11 23.5s9.66699 8.5 17 8.5c9.33301 0 25.333 -6 48 -18c22 -11.333 42.833 -20.333 62.5 -27s42.834 -10 69.501 -10c28.667 0 56.667 5 84 15s51.833 24.5 73.5 43.5
s38.834 41.333 51.501 67s19 53.167 19 82.5c0 32.667 -5.83301 60.167 -17.5 82.5s-27.334 40.5 -47.001 54.5s-40.167 24.833 -61.5 32.5s-49.666 16.834 -84.999 27.501c-29.333 8 -53.666 15.333 -72.999 22s-37.166 15.334 -53.499 26.001s-29.333 24.334 -39 41.001
s-14.5 36.667 -14.5 60c0 17.333 3.66699 34 11 50s17.333 30 30 42s26.834 21.333 42.501 28s31.834 10 48.501 10c54 0 97.333 -19.667 130 -59s55 -92 67 -158h28z" />
    <glyph glyph-name="scaron" unicode="&#x161;" horiz-adv-x="426" 
d="M194 526h41l124 164h-21l-124 -106l-122 106h-23zM69 0c0 0.666992 0.336914 1.33008 1.00391 1.99707c3.33301 8 6.5 14.333 9.5 19s7.16699 7 12.5 7c3.33301 0 10.666 -3.33301 21.999 -10c14.667 -9.33301 28.667 -16.666 42 -21.999s29.333 -8 48 -8
c54 0 97 13 129 39s48 59 48 99c0 24 -4.33301 44.333 -13 61s-20.167 30.167 -34.5 40.5s-29.333 18.5 -45 24.5s-35.834 12.667 -60.501 20c-40 12 -69.5 24.167 -88.5 36.5s-28.5 31.5 -28.5 57.5c0 28 8.66699 49.667 26 65s39.666 23 66.999 23c36 0 64 -12.5 84 -37.5
s33.333 -56.5 40 -94.5h25v148h-28c-1.33301 -5.33301 -3.33301 -9.66602 -6 -12.999s-6.66699 -5 -12 -5c-3.33301 0 -9.66602 2.33301 -18.999 7c-13.333 7.33301 -27 13 -41 17s-31.667 6 -53 6c-18.667 0 -36.834 -3.5 -54.501 -10.5s-33.334 -16.5 -47.001 -28.5
s-24.334 -25.833 -32.001 -41.5s-11.5 -32.167 -11.5 -49.5c0 -20.667 4.16699 -38.5 12.5 -53.5s19.333 -27.167 33 -36.5s28.334 -17 44.001 -23s35.5 -12.667 59.5 -20c40.667 -12.667 71 -25.167 91 -37.5s30 -31.5 30 -57.5c0 -38 -9.66699 -65.5 -29 -82.5
s-47.333 -25.5 -84 -25.5c-34 0 -63.667 14.833 -89 44.5s-40 64.834 -44 105.501h-28v-166h24z" />
    <glyph glyph-name="Ydieresis" unicode="&#x178;" horiz-adv-x="556" 
d="M200 745c11.333 0 20.833 3.83301 28.5 11.5s11.5 16.834 11.5 27.501c0 11.333 -3.83301 21 -11.5 29s-17.167 12 -28.5 12c-10.667 0 -20 -4 -28 -12s-12 -17.667 -12 -29c0 -10.667 3.83301 -19.834 11.5 -27.501s17.167 -11.5 28.5 -11.5zM392 745
c11.333 0 20.833 3.83301 28.5 11.5s11.5 16.834 11.5 27.501c0 11.333 -3.83301 21 -11.5 29s-17.167 12 -28.5 12c-10.667 0 -20 -4 -28 -12s-12 -17.667 -12 -29c0 -10.667 3.83301 -19.834 11.5 -27.501s17.167 -11.5 28.5 -11.5zM578 688l-194.005 0.000976562v-28
c25.333 0 43.5 -2.66699 54.5 -8s16.5 -13.333 16.5 -24c0 -16 -5 -33 -15 -51l-133 -256l-132 262c-4.66699 9.33301 -8.33398 17.833 -11.001 25.5s-4 13.834 -4 18.501c0 14 5.5 23 16.5 27s35.833 6 74.5 6v28h-251v-28c22.667 0 38.834 -1.83301 48.501 -5.5
s16.834 -9.83398 21.501 -18.501l179 -346v-193c0 -16.667 -1.16699 -29.5 -3.5 -38.5s-7.16602 -15.667 -14.499 -20s-17.666 -7.16602 -30.999 -8.49902s-33.333 -2 -60 -2v-28h286v28c-24.667 0 -43.167 0.666992 -55.5 2s-21.833 4.16602 -28.5 8.49902
s-11.167 11 -13.5 20s-3.5 21.833 -3.5 38.5v193l177 340c4.66699 9.33301 13.334 16.666 26.001 21.999s29.334 8 50.001 8v28z" />
    <glyph glyph-name="florin" unicode="&#x192;" 
d="M241 428l-42.999 -424.001v-2c-2 -18.667 -4.33301 -36.167 -7 -52.5s-7 -32.5 -13 -48.5s-14.5 -29.167 -25.5 -39.5s-25.167 -15.5 -42.5 -15.5c-12 0 -22.667 3.33301 -32 10c10.667 15.333 16 29 16 41c0 11.333 -3.83301 21.333 -11.5 30s-18.834 13 -33.501 13
c-12 0 -22.833 -4.5 -32.5 -13.5s-14.5 -22.167 -14.5 -39.5c0 -19.333 10 -35.666 30 -48.999s42 -20 66 -20c55.333 0 95.833 20.167 121.5 60.5s42.5 99.166 50.5 176.499l40 373h114l4 34h-114l4 49c1.33301 16.667 3.5 33.5 6.5 50.5s7.5 34 13.5 51
s14.667 31.167 26 42.5s25.333 17 42 17c13.333 0 24.333 -4.33301 33 -13v-2c-16.667 -5.33301 -25 -17.666 -25 -36.999c0 -12.667 4.5 -23.334 13.5 -32.001s19.833 -13 32.5 -13c14.667 0 26 4.33301 34 13s12 20.334 12 35.001c0 24 -9.83301 42.833 -29.5 56.5
s-41.834 20.5 -66.501 20.5c-50.667 0 -90.167 -21 -118.5 -63s-44.166 -100.333 -47.499 -175h-110l-4 -34h111z" />
    <glyph glyph-name="circumflex" unicode="&#x2c6;" horiz-adv-x="259" 
d="M150 690h-41l-124 -164h21l124 106l122 -106h23z" />
    <glyph glyph-name="tilde" unicode="&#x2dc;" horiz-adv-x="259" 
d="M-4 554c4 13.333 11.001 24.333 21.001 33s23.333 13 40 13c10 0 19.667 -1.83301 29 -5.5s20.333 -9.5 33 -17.5l4 -2c24 -14 42.333 -21 55 -21c24 0 45.5 8 64.5 24s33.167 37.333 42.5 64h-24c0 -0.666992 -0.666992 -1.66699 -2 -3
c-8.66699 -13.333 -17.167 -23.5 -25.5 -30.5s-18.833 -10.5 -31.5 -10.5c-10.667 0 -28 6.33301 -52 19l-6 3c-28 14.667 -51 22 -69 22c-26 0 -47.333 -8 -64 -24s-29.334 -37.333 -38.001 -64h23z" />
    <glyph glyph-name="endash" unicode="&#x2013;" horiz-adv-x="500" 
d="M500 214v42h-500v-42h500z" />
    <glyph glyph-name="emdash" unicode="&#x2014;" horiz-adv-x="1000" 
d="M0 256v-42h1000v42h-1000z" />
    <glyph glyph-name="quoteleft" unicode="&#x2018;" horiz-adv-x="204" 
d="M111 694c-24 -24.667 -42.001 -48.832 -54.001 -72.499s-18 -50.834 -18 -81.501c0 -24.667 5.33301 -46.5 16 -65.5s27.334 -28.5 50.001 -28.5c14.667 0 26.667 4.5 36 13.5s14 20.5 14 34.5c0 15.333 -6 27.5 -18 36.5s-32 13.5 -60 13.5
c0 28.667 4.83301 52.667 14.5 72s23.5 39.333 41.5 60z" />
    <glyph glyph-name="quoteright" unicode="&#x2019;" horiz-adv-x="204" 
d="M93 446c24 24.667 42.001 48.832 54.001 72.499s18 50.834 18 81.501c0 24.667 -5.33301 46.5 -16 65.5s-27.334 28.5 -50.001 28.5c-14 0 -25.833 -4.5 -35.5 -13.5s-14.5 -20.5 -14.5 -34.5c0 -15.333 6 -27.5 18 -36.5s32 -13.5 60 -13.5
c0 -28.667 -4.83301 -52.667 -14.5 -72s-23.5 -39.333 -41.5 -60z" />
    <glyph glyph-name="quotesinglbase" unicode="&#x201a;" horiz-adv-x="204" 
d="M93 -156c24 24.667 42.001 48.832 54.001 72.499s18 50.834 18 81.501c0 24.667 -5.33301 46.5 -16 65.5s-27.334 28.5 -50.001 28.5c-14 0 -25.833 -4.5 -35.5 -13.5s-14.5 -20.5 -14.5 -34.5c0 -15.333 6 -27.5 18 -36.5s32 -13.5 60 -13.5
c0 -28.667 -4.83301 -52.667 -14.5 -72s-23.5 -39.333 -41.5 -60z" />
    <glyph glyph-name="quotedblleft" unicode="&#x201c;" horiz-adv-x="389" 
d="M297 694c-24 -24.667 -42.001 -48.832 -54.001 -72.499s-18 -50.834 -18 -81.501c0 -24.667 5.33301 -46.5 16 -65.5s27.334 -28.5 50.001 -28.5c14.667 0 26.667 4.5 36 13.5s14 20.5 14 34.5c0 15.333 -6 27.5 -18 36.5s-32 13.5 -60 13.5
c0 28.667 4.83301 52.667 14.5 72s23.5 39.333 41.5 60zM110.999 694.002c-24 -24.667 -42.001 -48.832 -54.001 -72.499s-18 -50.834 -18 -81.501c0 -24.667 5.33301 -46.5 16 -65.5s27.334 -28.5 50.001 -28.5c14.667 0 26.667 4.5 36 13.5s14 20.5 14 34.5
c0 15.333 -6 27.5 -18 36.5s-32 13.5 -60 13.5c0 28.667 4.83301 52.667 14.5 72s23.5 39.333 41.5 60z" />
    <glyph glyph-name="quotedblright" unicode="&#x201d;" horiz-adv-x="389" 
d="M279 446c24 24.667 42.001 48.832 54.001 72.499s18 50.834 18 81.501c0 24.667 -5.33301 46.5 -16 65.5s-27.334 28.5 -50.001 28.5c-14 0 -25.833 -4.5 -35.5 -13.5s-14.5 -20.5 -14.5 -34.5c0 -15.333 6 -27.5 18 -36.5s32 -13.5 60 -13.5
c0 -28.667 -4.83301 -52.667 -14.5 -72s-23.5 -39.333 -41.5 -60zM93.001 445.998c24 24.667 42.001 48.832 54.001 72.499s18 50.834 18 81.501c0 24.667 -5.33301 46.5 -16 65.5s-27.334 28.5 -50.001 28.5c-14 0 -25.833 -4.5 -35.5 -13.5s-14.5 -20.5 -14.5 -34.5
c0 -15.333 6 -27.5 18 -36.5s32 -13.5 60 -13.5c0 -28.667 -4.83301 -52.667 -14.5 -72s-23.5 -39.333 -41.5 -60z" />
    <glyph glyph-name="quotedblbase" unicode="&#x201e;" horiz-adv-x="389" 
d="M279 -156c24 24.667 42.001 48.832 54.001 72.499s18 50.834 18 81.501c0 24.667 -5.33301 46.5 -16 65.5s-27.334 28.5 -50.001 28.5c-14 0 -25.833 -4.5 -35.5 -13.5s-14.5 -20.5 -14.5 -34.5c0 -15.333 6 -27.5 18 -36.5s32 -13.5 60 -13.5
c0 -28.667 -4.83301 -52.667 -14.5 -72s-23.5 -39.333 -41.5 -60zM93.001 -156.002c24 24.667 42.001 48.832 54.001 72.499s18 50.834 18 81.501c0 24.667 -5.33301 46.5 -16 65.5s-27.334 28.5 -50.001 28.5c-14 0 -25.833 -4.5 -35.5 -13.5s-14.5 -20.5 -14.5 -34.5
c0 -15.333 6 -27.5 18 -36.5s32 -13.5 60 -13.5c0 -28.667 -4.83301 -52.667 -14.5 -72s-23.5 -39.333 -41.5 -60z" />
    <glyph glyph-name="dagger" unicode="&#x2020;" horiz-adv-x="500" 
d="M262 -128c0 110.667 1.5 195.168 4.5 253.501s10.833 108.833 23.5 151.5c-7.33301 19.333 -13.166 39.333 -17.499 60s-7.83301 46.667 -10.5 78v47c22.667 0 42.667 -2 60 -6s35 -9 53 -15c16 -6 27 -9 33 -9c12 0 21.667 4 29 12s11 17 11 27
c0 10.667 -3.66699 19.834 -11 27.501s-17 11.5 -29 11.5c-6 0 -17 -3 -33 -9c-19.333 -6.66699 -37.333 -11.834 -54 -15.501s-36.334 -5.5 -59.001 -5.5c0 33.333 2 60.666 6 81.999s9.33301 42 16 62c4.66699 14 7 23.667 7 29c0 12.667 -3.66699 23.667 -11 33
s-17.333 14 -30 14c-12 0 -21.833 -4.66699 -29.5 -14s-11.5 -20.333 -11.5 -33c0 -5.33301 2.33301 -15 7 -29c6.66699 -19.333 12 -39.833 16 -61.5s6 -49.167 6 -82.5c-22 0 -41.833 2 -59.5 6s-35.5 9 -53.5 15c-16 6 -27 9 -33 9c-12 0 -21.667 -3.83301 -29 -11.5
s-11 -16.834 -11 -27.501c0 -10 3.66699 -19 11 -27s17 -12 29 -12c6 0 17 3 33 9c19.333 6.66699 37.5 11.834 54.5 15.501s36.5 5.5 58.5 5.5v-47c-2 -31.333 -5.33301 -57.333 -10 -78s-10.667 -40.667 -18 -60c12.667 -42.667 20.5 -93.167 23.5 -151.5
s4.5 -142.833 4.5 -253.5h24z" />
    <glyph glyph-name="daggerdbl" unicode="&#x2021;" horiz-adv-x="500" 
d="M52 101c0 -10 3.66895 -19 11.002 -27s17 -12 29 -12c6 0 17 3 33 9c19.333 6.66699 37.5 11.834 54.5 15.501s36.5 5.5 58.5 5.5c0 -33.333 -2 -60.666 -6 -81.999s-9.33301 -42 -16 -62c-4.66699 -14 -7 -23.667 -7 -29c0 -12.667 3.83301 -23.667 11.5 -33
s17.5 -14 29.5 -14c12.667 0 22.667 4.66699 30 14s11 20.333 11 33c0 5.33301 -2.33301 15 -7 29c-6.66699 19.333 -12 39.833 -16 61.5s-6 49.167 -6 82.5c22.667 0 42.667 -2 60 -6s35 -9 53 -15c16 -6 27 -9 33 -9c12 0 21.667 4 29 12s11 17 11 27
c0 10.667 -3.66699 19.834 -11 27.501s-17 11.5 -29 11.5c-6 0 -17 -3 -33 -9c-19.333 -6.66699 -37.333 -11.834 -54 -15.501s-36.334 -5.5 -59.001 -5.5c0 34 2.16699 65 6.5 93s10.5 55.667 18.5 83c-8 27.333 -14.167 55 -18.5 83s-6.5 59 -6.5 93
c22.667 0 42.667 -2 60 -6s35 -9 53 -15c16 -6 27 -9 33 -9c12 0 21.667 4 29 12s11 17 11 27c0 10.667 -3.66699 19.834 -11 27.501s-17 11.5 -29 11.5c-6 0 -17 -3 -33 -9c-19.333 -6.66699 -37.333 -11.834 -54 -15.501s-36.334 -5.5 -59.001 -5.5
c0 33.333 2 60.666 6 81.999s9.33301 42 16 62c4.66699 14 7 23.667 7 29c0 12.667 -3.66699 23.667 -11 33s-17.333 14 -30 14c-12 0 -21.833 -4.66699 -29.5 -14s-11.5 -20.333 -11.5 -33c0 -5.33301 2.33301 -15 7 -29c6.66699 -19.333 12 -39.833 16 -61.5
s6 -49.167 6 -82.5c-22 0 -41.833 2 -59.5 6s-35.5 9 -53.5 15c-16 6 -27 9 -33 9c-12 0 -21.667 -3.83301 -29 -11.5s-11 -16.834 -11 -27.501c0 -10 3.66699 -19 11 -27s17 -12 29 -12c6 0 17 3 33 9c19.333 6.66699 37.5 11.834 54.5 15.501s36.5 5.5 58.5 5.5
c0 -34 -2.16699 -65 -6.5 -93s-10.5 -55.667 -18.5 -83c8 -27.333 14.167 -55 18.5 -83s6.5 -59 6.5 -93c-22 0 -41.833 2 -59.5 6s-35.5 9 -53.5 15c-16 6 -27 9 -33 9c-12 0 -21.667 -3.83301 -29 -11.5s-11 -16.834 -11 -27.501z" />
    <glyph glyph-name="bullet" unicode="&#x2022;" horiz-adv-x="500" 
d="M250 516c-24 0 -46.499 -4.33301 -67.499 -13s-39.333 -21 -55 -37s-27.834 -34.5 -36.501 -55.5s-13 -43.167 -13 -66.5s4.33301 -45.5 13 -66.5s20.834 -39.5 36.501 -55.5s34.167 -28.333 55.5 -37s43.666 -13 66.999 -13c24 0 46.5 4.33301 67.5 13s39.333 21 55 37
s27.834 34.5 36.501 55.5s13 43.167 13 66.5s-4.33301 45.5 -13 66.5s-20.834 39.5 -36.501 55.5s-34 28.333 -55 37s-43.5 13 -67.5 13z" />
    <glyph glyph-name="ellipsis" unicode="&#x2026;" horiz-adv-x="1000" 
d="M450 42c0 -14.667 4.66699 -26.667 14 -36s21.333 -14 36 -14c14 0 25.833 5 35.5 15s14.5 21.667 14.5 35s-5 25 -15 35s-21.667 15 -35 15s-25 -5 -35 -15s-15 -21.667 -15 -35zM116 42c0 -14.667 4.66699 -26.667 14 -36s21.333 -14 36 -14c14 0 25.833 5 35.5 15
s14.5 21.667 14.5 35s-5 25 -15 35s-21.667 15 -35 15s-25 -5 -35 -15s-15 -21.667 -15 -35zM784 42c0 -14.667 4.66699 -26.667 14 -36s21.333 -14 36 -14c14 0 25.833 5 35.5 15s14.5 21.667 14.5 35s-5 25 -15 35s-21.667 15 -35 15s-25 -5 -35 -15s-15 -21.667 -15 -35z
" />
    <glyph glyph-name="perthousand" unicode="&#x2030;" horiz-adv-x="1000" 
d="M887 392c-40.667 0 -74.334 -17.667 -101.001 -53s-40 -83 -40 -143s13.333 -107.667 40 -143s60.334 -53 101.001 -53s74.334 17.667 101.001 53s40 83 40 143s-13.333 107.667 -40 143s-60.334 53 -101.001 53zM887 370c30 0 50.667 -13.332 62 -39.999
s17 -71.334 17 -134.001s-5.66699 -107.334 -17 -134.001s-32 -40 -62 -40c-29.333 0 -49.833 13.5 -61.5 40.5s-17.5 71.5 -17.5 133.5c0 62.667 5.83301 107.334 17.5 134.001s32.167 40 61.5 40zM161 676.001c-40.667 0 -74.334 -17.667 -101.001 -53s-40 -83 -40 -143
s13.333 -107.667 40 -143s60.334 -53 101.001 -53s74.334 17.667 101.001 53s40 83 40 143s-13.333 107.667 -40 143s-60.334 53 -101.001 53zM161 654.001c30 0 50.667 -13.332 62 -39.999s17 -71.334 17 -134.001s-5.66699 -107.334 -17 -134.001s-32 -40 -62 -40
c-29.333 0 -49.833 13.5 -61.5 40.5s-17.5 71.5 -17.5 133.5c0 62.667 5.83301 107.334 17.5 134.001s32.167 40 61.5 40zM551 392.002c-40.667 0 -74.334 -17.667 -101.001 -53s-40 -83 -40 -143s13.333 -107.667 40 -143s60.334 -53 101.001 -53s74.334 17.667 101.001 53
s40 83 40 143s-13.333 107.667 -40 143s-60.334 53 -101.001 53zM551 370.002c30 0 50.667 -13.332 62 -39.999s17 -71.334 17 -134.001s-5.66699 -107.334 -17 -134.001s-32 -40 -62 -40c-29.333 0 -49.833 13.5 -61.5 40.5s-17.5 71.5 -17.5 133.5
c0 62.667 5.83301 107.334 17.5 134.001s32.167 40 61.5 40zM115 -11.9971h45l440 700h-47z" />
    <glyph glyph-name="guilsinglleft" unicode="&#x2039;" horiz-adv-x="333" 
d="M68 232l30.001 -24.999l39.5 -35l34.5 -32c8 -7.33301 21 -20 39 -38c14.667 -15.333 26.167 -26.833 34.5 -34.5s13.833 -11.5 16.5 -11.5c5.33301 0 8 3.66699 8 11c0 4.66699 -4.5 14 -13.5 28s-20 29.833 -33 47.5s-26.667 35.167 -41 52.5
s-25.833 30.666 -34.5 39.999c6 6 16.167 17.333 30.5 34l43 52.5c14.333 18.333 26.666 35.333 36.999 51s15.5 26.167 15.5 31.5c0 6.66699 -2.66699 10 -8 10c-3.33301 0 -12.333 -7.33301 -27 -22c-21.333 -22 -41.333 -41.333 -60 -58
c-48 -42.667 -85 -74.667 -111 -96v-6z" />
    <glyph glyph-name="guilsinglright" unicode="&#x203a;" horiz-adv-x="333" 
d="M265 238l-29 25.001l-40.5 35l-34.5 32c-8 7.33301 -21 20.333 -39 39c-14.667 15.333 -26 26.666 -34 33.999s-13.667 11 -17 11c-5.33301 0 -8 -3.66699 -8 -11c0 -4.66699 4.5 -14 13.5 -28s20 -29.667 33 -47l41 -52.5c14.333 -17.667 25.833 -31.167 34.5 -40.5
c-6 -6 -16 -17.333 -30 -34l-43 -52.5c-14.667 -18.333 -27.167 -35.333 -37.5 -51s-15.5 -26.167 -15.5 -31.5c0 -6.66699 2.66699 -10 8 -10c3.33301 0 12.333 7.33301 27 22c21.333 22 41.333 41.333 60 58c48 42.667 85 74.667 111 96v6z" />
    <glyph glyph-name="trademark" unicode="&#x2122;" horiz-adv-x="990" 
d="M234 666h51.001c20 0 35.167 -5.5 45.5 -16.5s18.166 -26.833 23.499 -47.5h20v86h-334v-86h20c5.33301 20.667 13.333 36.5 24 47.5s25.667 16.5 45 16.5h49v-317c0 -12.667 -2.83301 -21 -8.5 -25s-19.167 -7.66699 -40.5 -11v-22h156v22c-22 3.33301 -36 7 -42 11
s-9 12.333 -9 25v317zM669.001 288l9 -0.000976562l156 313h2v-252c0 -12.667 -2.83301 -21 -8.5 -25s-19.167 -7.66699 -40.5 -11v-22h155v22c-21.333 3.33301 -35 7 -41 11s-9 12.333 -9 25v259c0 36.667 19.333 56 58 58v22h-93l-167 -316l-161 316h-109v-22
c15.333 0 30.5 -4.66699 45.5 -14s22.5 -20.666 22.5 -33.999v-243c0 -21.333 -3.66699 -36.333 -11 -45s-21.333 -14.334 -42 -17.001v-22h130v22c-20.667 2.66699 -34.667 8.33398 -42 17.001s-11 23.667 -11 45v223h2z" />
    </font>
</defs>
</svg>
